<?xml version="1.0" encoding="UTF-8" standalone="no"?>
<!-- Created with Inkscape (http://www.inkscape.org/) -->

<svg
   xmlns:dc="http://purl.org/dc/elements/1.1/"
   xmlns:cc="http://creativecommons.org/ns#"
   xmlns:rdf="http://www.w3.org/1999/02/22-rdf-syntax-ns#"
   xmlns:svg="http://www.w3.org/2000/svg"
   xmlns="http://www.w3.org/2000/svg"
   xmlns:sodipodi="http://sodipodi.sourceforge.net/DTD/sodipodi-0.dtd"
   xmlns:inkscape="http://www.inkscape.org/namespaces/inkscape"
   width="210mm"
   height="297mm"
   id="svg3403"
   version="1.1"
   inkscape:version="0.48.4 r9939"
   sodipodi:docname="unau.svg">
  <defs
     id="defs3405" />
  <sodipodi:namedview
     id="base"
     pagecolor="#ffffff"
     bordercolor="#666666"
     borderopacity="1.0"
     inkscape:pageopacity="0.0"
     inkscape:pageshadow="2"
     inkscape:zoom="0.49497475"
     inkscape:cx="-16.939187"
     inkscape:cy="520"
     inkscape:document-units="px"
     inkscape:current-layer="layer1"
     showgrid="false"
     inkscape:window-width="1535"
     inkscape:window-height="876"
     inkscape:window-x="65"
     inkscape:window-y="24"
     inkscape:window-maximized="1" />
  <metadata
     id="metadata3408">
    <rdf:RDF>
      <cc:Work
         rdf:about="">
        <dc:format>image/svg+xml</dc:format>
        <dc:type
           rdf:resource="http://purl.org/dc/dcmitype/StillImage" />
        <dc:title></dc:title>
      </cc:Work>
    </rdf:RDF>
  </metadata>
  <g
     inkscape:label="Calque 1"
     inkscape:groupmode="layer"
     id="layer1">
    <path
       sodipodi:type="arc"
       style="fill:#ffffff;fill-rule:evenodd;stroke:#000000;stroke-width:1px;stroke-linecap:butt;stroke-linejoin:miter;stroke-opacity:1;fill-opacity:1"
       id="path3769"
       sodipodi:cx="571.74634"
       sodipodi:cy="520.01178"
       sodipodi:rx="161.6244"
       sodipodi:ry="156.57364"
       d="m 733.37074,520.01178 a 161.6244,156.57364 0 1 1 -323.24881,0 161.6244,156.57364 0 1 1 323.24881,0 z"
       transform="matrix(1.0748251,0,0,1.0385292,-54.902834,-26.096545)" />
    <g
       id="g3489"
       transform="matrix(1.9084068,0,0,1.9084068,-307.44961,-446.53147)">
      <path
         style="fill:#d3d0a8"
         d="m 57.329304,830.32594 c -3.84158,-15.10057 13.011175,9.46044 0,0 z m 3.88499,-11.49514 c -8.055668,-5.59413 17.896108,4.63481 0,0 z m -2.584119,-5.6414 c -3.759336,-30.62417 13.241123,0.32027 0,0 z m 5.805609,-16.53463 c -10.392649,1.60486 -6.458126,-3.34212 0.624753,-0.97601 l -0.624753,0.97601 z m -6.054823,-5.53068 c -1.900837,-17.11159 11.505286,-1.89177 10e-7,-1.6e-4 l -10e-7,1.6e-4 z m -0.180114,-23.3757 c 1.174085,-11.95098 8.390085,8.31423 0,0 z m 225.786413,1.10303 c -35.18306,-5.57965 -16.53743,-54.70496 -43.17142,-68.814 7.54295,27.51011 -1.94596,65.43303 -37.23693,60.06124 -38.05416,4.18264 -42.54516,-41.81769 -35.47384,-68.95201 2.07936,-39.18453 10.03811,-78.71292 30.91209,-112.47239 14.19133,-28.90446 19.29046,-62.07065 36.40403,-89.38894 16.93415,-7.48743 48.17945,-5.70343 35.54759,-34.68834 -1.40197,-24.2028 -34.04003,-11.65111 -31.67458,-29.46219 -11.74137,-7.41469 -17.64597,-17.14304 0.82702,-17.28315 2.70337,-10.2896 -6.03378,-27.19744 9.33813,-11.4638 18.5587,5.60003 13.78978,-57.59168 34.86381,-28.00138 12.69077,-0.49505 13.06138,28.76767 17.60679,28.02696 -24.15213,9.76492 -28.78012,41.23262 -12.18326,59.02768 20.99847,-5.20018 32.41056,-31.55938 57.23633,-36.38175 26.02478,-13.06402 50.54277,-32.13182 65.87067,-57.16139 -0.12361,-18.03735 -37.38038,-9.50707 -48.35659,-25.67765 -17.59455,-4.35702 -37.74316,-41.9388 -5.91798,-32.42175 9.22216,4.39416 29.71553,9.44833 13.53433,-4.43361 -20.21554,-26.45169 26.07418,-19.6593 29.28109,0.29277 20.25081,7.61201 -2.34759,-33.81983 8.25947,-45.50631 14.74298,-28.12984 28.73692,30.09009 34.51264,26.62747 9.14117,-16.26698 26.24985,-14.06054 18.75011,5.99705 -8.3162,25.7465 8.57893,13.31551 22.24115,8.69695 34.82004,10.48246 -13.59565,42.56796 -30.99057,47.22031 -26.09198,13.2246 -35.24888,43.23226 -50.14822,66.4017 21.83584,2.94939 37.75664,-30.09493 61.70555,-30.22926 15.74841,5.32008 -42.50262,33.93574 -6.10849,33.17288 40.21762,6.25295 86.06393,31.27567 89.69965,76.29324 9.25307,39.02003 -20.57193,66.64896 -41.85025,93.07948 -6.25787,29.41725 3.88613,62.10174 -15.30269,88.5702 -19.61633,35.15529 -49.20167,65.24298 -83.83115,85.62897 -39.28136,16.58407 -83.50095,4.57716 -124.34448,13.24102 z m 197.3719,-186.05154 c 40.82889,-0.15955 21.9578,-50.96654 3.64241,-64.01477 5.17618,-34.69486 58.76899,15.93347 49.09364,-23.8971 -6.96448,-27.01321 -47.61107,-34.67076 -64.92544,-13.32728 -30.15953,4.02347 -63.4516,-34.22934 -88.54586,-0.40344 -9.91039,9.09566 -0.15859,27.22396 13.03567,21.61006 -17.003,14.51667 8.50564,3.59243 12.43148,-1.76916 29.2678,5.29258 1.72137,40.17264 -5.67572,47.68989 14.93104,26.09262 52.18049,39.0839 80.94382,34.1118 z m -31.23377,-18.05 c -8.5036,-2.76998 -39.31238,-33.07499 -14.77286,-23.02905 0.98062,-32.27479 36.50616,-9.83449 39.38866,-0.60787 25.93558,-20.12302 -11.69682,31.57286 -24.6158,23.63692 z m 70.0889,-52.95912 c 1.9316,-4.8321 1.22717,3.31901 0,0 z m -32.5,-10.04545 c 3.57483,-12.83184 14.9701,0.15815 0,0 z m -50,-25.95455 c 3.19534,-5.17714 3.19534,5.17714 0,0 z m 71,48.5 c 0.32516,-6.04126 -8.86652,10.74142 0,0 z M 311.32128,455.20897 c 8.92635,-17.68505 -13.99753,-10.94631 0,0 z m 11.77315,-6.96079 c 4.34863,-29.50987 -11.58888,9.06467 0,0 z m 60.61986,-16.51644 c -5.47233,-18.00081 -1.1473,12.12775 0,0 z m -114.99863,-9.75 c 10.05015,-23.78206 -11.99077,-19.95789 -4.27806,1.36572 0.48089,5.14358 4.63948,2.77024 4.27806,-1.36572 z m 168.99863,-10.19098 c -1.97856,-3.53878 -1.41049,4.92625 0,0 z M 253.7762,406.4536 c -13.77274,-14.21621 -1.42104,13.36282 0,0 z M 56.145196,760.67896 c 5.545291,-9.87322 10.187874,8.13944 0,0 z m 1.988915,-6.23656 c 1.092793,-12.53756 11.201372,6.56424 0,0 z m -0.419817,-6.92221 c 3.647208,-11.18835 10.766651,6.23731 0,0 z m 1.2,-12.92943 c -2.526976,-10.96756 8.725902,7.15875 0,0 z m -0.2,-7.3 c 0.425709,-15.37438 10.886368,5.14603 0,0 z m -1,-12.96482 c 10.83829,-29.90647 5.34733,22.09095 0,0 z m 3.666667,-3.20185 c -2.741732,0.74941 2.558568,2.9699 0,0 z"
         id="path3509"
         inkscape:connector-curvature="0" />
      <path
         style="fill:#d0e06a"
         d="m 284.71429,767.95438 c -36.1064,-5.02367 -15.49282,-57.47131 -44.74091,-69.03271 6.56268,27.51191 -1.71634,68.40808 -38.46446,60.45177 -39.6792,-1.47261 -37.79195,-49.91482 -31.62623,-78.08458 2.67326,-40.05163 14.84352,-79.26879 35.86903,-113.4321 14.64064,-26.68088 12.60505,-85.14851 52.46839,-81.89485 29.18447,-10.72847 10.96571,-60.87377 -17.24586,-52.81887 11.80052,-10.94024 -26.50099,-21.56082 0.21066,-21.10714 27.65201,1.01882 17.357,-38.78754 33.19773,-52.96634 9.72386,4.03704 -10.75904,32.45648 7.93251,18.25427 10.16508,-8.63225 11.69045,15.5933 18.83832,20.35948 -31.76175,7.23139 -30.19052,62.64354 4.58643,60.81642 8.56757,-1.80896 14.12417,-36.84324 10.54685,-11.68099 14.65935,19.56511 10.14261,-26.28225 29.81807,-26.63199 26.68086,-13.51447 54.81678,-31.51979 66.92972,-59.81295 -7.41227,-20.08881 -43.70529,-11.81222 -58.61465,-31.07249 -16.18631,-8.88758 -11.64599,-36.09994 7.8728,-21.67962 13.94774,8.05102 27.54618,1.64946 9.64885,-10.57711 -11.56483,-28.89618 18.19743,-7.34364 25.99983,3.93779 30.61682,15.48092 1.2611,-32.368 13.29107,-47.04651 10.93058,-25.39572 15.13127,42.95514 15.35173,5.05057 8.87743,9.29026 14.54225,42.806 26.13018,14.11055 23.97806,-12.68842 -9.27189,56.70088 22.98088,28.73392 18.02535,-15.59274 31.41693,4.31952 13.43371,17.8834 -21.96564,19.37838 -59.77691,23.68992 -65.30587,57.53988 -11.03062,7.95062 -35.63461,47.40678 -5.38041,30.16062 11.91521,-7.72355 39.77325,-34.68009 46.92616,-20.69706 -18.35066,9.10978 -34.73424,33.52281 -0.93069,27.81965 34.52277,6.45779 72.50457,25.56017 80.66534,62.91357 10.29862,33.89308 -3.64213,72.79198 -32.62509,92.91688 -21.91385,29.13679 4.80973,70.1803 -21.11659,98.85048 -20.8669,38.08511 -53.38922,69.15664 -91.0041,90.53617 -36.46374,5.22275 -74.00723,1.97275 -109.78344,9.01817 l -5.85996,-0.81828 0,0 z m -95.1931,-24.81706 c 4.03729,-21.83856 -23.10154,-17.67459 -9.41367,0.74668 2.66448,2.28697 7.19084,2.12825 9.41367,-0.74668 z m 28.58585,-3.17302 c 2.74314,-12.61005 -10.01262,1.1815 0,0 z m -14.38176,-5.67354 c -11.97211,-14.50717 -2.90521,-60.22271 2.2459,-60.63842 5.27039,16.41242 13.31274,33.41464 6.63195,47.43725 17.68197,12.66174 6.52202,-19.71604 15.19477,-29.26203 -1.13837,-12.62861 -16.8859,-7.78177 -9.30761,-21.81534 0.23489,-17.41081 -27.59037,-43.33424 -26.2466,-12.04281 -4.82315,15.86589 -2.86537,39.4276 -8.48058,49.70736 6.80073,7.35367 4.85149,31.56897 19.96217,26.61399 z m -15.01099,-37.55902 c 2.74815,-2.37931 0.68952,4.42284 0,0 z m 8,-25.83399 c 2.69863,-6.62725 7.57845,3.56597 0,0 z m 11.5,-10.10699 c 1.42109,-4.4653 2.6076,4.15218 0,0 z m -24.35424,-3.25424 c -10.74281,1.95483 7.86876,9.32033 0,0 z m 170.85424,-7.68674 c 0.007,-6.26357 -3.83252,3.45353 0,0 z M 192.87345,637.04076 c 11.28951,-8.95558 18.2328,-43.60943 10.47987,-43.89587 3.17097,14.80704 -22.08781,31.62034 -10.47987,43.89587 z m 288.34084,-53.25544 c 35.89129,6.42246 25.09865,-46.29016 32.24083,-54.241 38.94679,-5.24795 24.60796,-67.79583 -12.29873,-61.21544 -28.45142,6.41669 -58.59544,16.30387 -84.19479,-2.80234 -32.08511,-5.05391 -60.28212,34.51948 -29.61859,56.05674 5.4983,25.88436 20.02662,46.07334 46.24651,56.07269 14.76838,6.70396 31.62408,9.92661 47.62477,6.12935 z m -32,-21.41747 c -11.00068,-4.93578 -35.26644,-30.95216 -9.8456,-16.50169 -2.89368,-16.45887 8.67758,-30.34648 24.99697,-16.05839 10.63,11.30435 -10.60436,23.90988 11.16991,13.33185 14.30724,-8.86238 -21.06857,29.32925 -26.32128,19.22823 z m 12.49807,-31.7597 c -18.66641,-6.45823 -18.61122,7.10888 0,0 z m 35.88998,-7.31703 c -17.58648,-30.8574 36.48035,-0.23182 0,0 z m -102.45715,-0.61216 c 0.7335,-6.46223 4.87507,4.41996 0,0 z m 5.46698,-5.17138 c -18.05489,-34.22018 42.05681,1.76272 0,0 z m 116.10212,20.78318 c -3.50271,-6.83642 -3.2055,6.78884 0,0 z M 380.74013,513.96604 c -6.73193,0.18351 -0.30398,8.79092 0,0 z m -59.21338,-13.4493 c -3.84038,-9.43347 1.84865,-23.21005 -5.82296,-21.61249 7.88233,-31.36441 -55.11254,10.55366 -17.57951,12.58569 16.90862,-16.21485 13.02943,3.1496 23.40247,9.0268 z m -19.70818,-26.64037 c -5.46353,-6.95204 6.61191,-0.67688 0,0 z m -9.60428,18.91439 c -2.36552,-5.30284 -2.382,3.98245 0,0 z m -5.08889,-15.07673 c 3.9693,-27.44476 -22.63942,-8.59711 -2.91379,3.01038 l 1.52126,-0.95146 1.39253,-2.05892 z m 58.58889,-12.35069 c -0.34612,-17.73098 -19.71723,-4.03259 0,0 z m -68.84651,-17.63508 c 1.20928,-21.3366 -9.97069,10.14316 0,0 z m 72.59651,0.13562 c 29.18547,-10.88512 -13.82662,-21.0227 -7.88124,-0.62776 1.28547,3.40909 5.97285,3.7333 7.88124,0.62776 z m 20.25,-2.5141 c -0.52306,-4.33458 -3.17471,2.38316 0,0 z m 17.44225,-5.67072 c 19.24927,-5.13394 18.85336,-27.31771 0.0981,-19.58922 -7.73579,-43.59579 -32.0345,36.61469 -0.0981,19.58922 z m -117.44088,-16.1383 c 10.65908,-10.33492 -6.18969,-36.8871 -7.76961,-12.12677 -1.45951,3.63195 3.44824,27.38384 7.76961,12.12677 z m 146.83082,-2.34502 c 17.41989,-22.1365 -21.42692,4.78053 0,0 z m 11.16781,-10.35838 c 0.52625,-13.15739 -6.6097,10.37401 0,0 z m 45.76233,-82.30167 c -6.28739,-11.40272 -10.80841,11.66142 0,0 z M 391.71429,296.6195 c -0.41216,-12.03198 -9.33922,0.053 0,0 z m 30,-20.26972 c -0.97951,-9.68313 -3.73391,6.72642 0,0 z m -2.23508,-10.89883 c -2.09518,-24.41326 -7.15186,13.25645 0,0 z M 304.71429,446.79076 c 0.75945,-2.87498 0.75939,2.87502 0,0 z m -63.43282,-44.18662 c -17.87645,-28.00261 19.04218,-6.60005 0,0 z m 49.65052,-34.96788 c 4.03846,-9.53153 3.80636,5.40016 0,0 z"
         id="path3507"
         inkscape:connector-curvature="0" />
      <path
         style="fill:#ccad8e"
         d="m 284.71429,767.95438 c -36.1064,-5.02367 -15.49282,-57.47131 -44.74091,-69.03271 6.56268,27.51191 -1.71634,68.40808 -38.46446,60.45177 -39.6792,-1.47261 -37.79195,-49.91482 -31.62623,-78.08458 2.67326,-40.05163 14.84352,-79.26879 35.86903,-113.4321 14.64022,-26.67736 12.60438,-85.14533 52.46149,-81.8918 28.20421,-8.29692 12.04407,-61.29966 -14.15804,-51.30266 21.04203,-11.63203 -35.28617,-25.25375 -1.78531,-14.44057 8.57347,-2.38722 13.57148,-23.77514 20.78071,-1.82327 9.99422,20.452 16.04485,-27.32304 -3.04193,-27.56757 -3.94551,-21.35254 19.52803,16.34172 9.23814,-10.31656 3.1364,-0.52003 11.01095,11.36616 13.6302,1.57115 3.9607,10.47559 33.85402,12.96773 7.7522,21.50504 -36.65355,17.12202 13.37801,85.80823 25.19515,37.27723 -0.19612,-13.14035 3.42769,28.06956 10.52104,6.00443 1.55666,-26.82767 30.37764,-27.71911 46.7701,-42.77508 17.75556,-12.46898 34.5905,-27.80418 43.3259,-48.10905 -4.04079,-9.50798 -41.41312,-5.35783 -28.94666,-11.11088 18.16553,2.32671 -11.96497,-41.19036 11.05165,-18.91852 25.62058,24.21545 10.70051,-18.22527 9.5297,-17.31114 12.75845,-5.87724 -8.56107,-42.59386 4.15164,-42.63762 -0.0512,13.90921 -0.47578,63.22284 21.3889,37.4283 1.88877,-14.37572 17.07023,-31.61804 28.14145,-32.29966 -13.16266,12.8742 -40.0581,40.74375 -19.8413,59.85492 8.08236,-18.14105 43.75716,-44.89835 55.76759,-26.99759 -6.38118,21.35419 -16.06673,-20.10785 -28.07145,2.87431 -23.80451,7.60483 -16.63303,36.74681 -14.46572,32.95298 -32.28407,9.96804 -30.83036,51.52928 -55.13494,70.36807 24.85971,10.33504 45.99118,-40.44129 66.34133,-25.18635 -9.79612,10.26369 -41.15337,30.89026 -8.14467,28.27231 36.48905,5.96376 78.08934,24.40592 86.89462,64.17383 10.29862,33.89308 -3.64213,72.79198 -32.62509,92.91688 -21.91385,29.13679 4.80973,70.1803 -21.11659,98.85048 -20.8669,38.08511 -53.38922,69.15664 -91.0041,90.53617 -36.46376,5.22274 -74.00726,1.97277 -109.78348,9.01816 l -5.85996,-0.81832 0,0 z m -95.1931,-24.81706 c 4.03729,-21.83856 -23.10154,-17.67459 -9.41367,0.74668 2.66448,2.28697 7.19084,2.12825 9.41367,-0.74668 z m 28.58585,-3.17302 c 2.74314,-12.61005 -10.01262,1.1815 0,0 z m -14.38176,-5.67354 c -11.97211,-14.50717 -2.90521,-60.22271 2.2459,-60.63842 5.27039,16.41242 13.31274,33.41464 6.63195,47.43725 17.68197,12.66174 6.52202,-19.71604 15.19477,-29.26203 -1.13837,-12.62861 -16.8859,-7.78177 -9.30761,-21.81534 0.23489,-17.41081 -27.59037,-43.33424 -26.2466,-12.04281 -4.82315,15.86589 -2.86537,39.4276 -8.48058,49.70736 6.80073,7.35367 4.85149,31.56897 19.96217,26.61399 z m -15.01099,-37.55902 c 2.74815,-2.37931 0.68952,4.42284 0,0 z m 8,-25.83399 c 2.69863,-6.62725 7.57845,3.56597 0,0 z m 11.5,-10.10699 c 1.42109,-4.4653 2.6076,4.15218 0,0 z m -24.35424,-3.25424 c -10.74281,1.95483 7.86876,9.32033 0,0 z m 170.85424,-7.68674 c 0.007,-6.26357 -3.83252,3.45353 0,0 z M 192.87345,637.04076 c 11.28951,-8.95558 18.2328,-43.60943 10.47987,-43.89587 3.17097,14.80704 -22.08781,31.62034 -10.47987,43.89587 z m 288.34084,-53.25544 c 35.89129,6.42246 25.09865,-46.29016 32.24083,-54.241 38.94679,-5.24795 24.60796,-67.79583 -12.29873,-61.21544 -28.45142,6.41669 -58.59544,16.30387 -84.19479,-2.80234 -32.08511,-5.05391 -60.28212,34.51948 -29.61859,56.05674 5.4983,25.88436 20.02662,46.07334 46.24651,56.07269 14.76838,6.70396 31.62408,9.92661 47.62477,6.12935 z m -32,-21.41747 c -11.00068,-4.93578 -35.26644,-30.95216 -9.8456,-16.50169 -2.89368,-16.45887 8.67758,-30.34648 24.99697,-16.05839 10.63,11.30435 -10.60436,23.90988 11.16991,13.33185 14.30724,-8.86238 -21.06857,29.32925 -26.32128,19.22823 z m 12.49807,-31.7597 c -18.66641,-6.45823 -18.61122,7.10888 0,0 z m 35.88998,-7.31703 c -17.58648,-30.8574 36.48035,-0.23182 0,0 z m -102.45715,-0.61216 c 0.7335,-6.46223 4.87507,4.41996 0,0 z m 5.46698,-5.17138 c -18.05489,-34.22018 42.05681,1.76272 0,0 z m 116.10212,20.78318 c -3.50271,-6.83642 -3.2055,6.78884 0,0 z M 380.74013,513.96604 c -6.73193,0.18351 -0.30398,8.79092 0,0 z m -59.21338,-13.4493 c -3.84038,-9.43347 1.84865,-23.21005 -5.82296,-21.61249 7.88233,-31.36441 -55.11254,10.55366 -17.57951,12.58569 16.90862,-16.21485 13.02943,3.1496 23.40247,9.0268 z m -19.70818,-26.64037 c -5.46353,-6.95204 6.61191,-0.67688 0,0 z m -9.60428,18.91439 c -2.36552,-5.30284 -2.382,3.98245 0,0 z m -5.08889,-15.07673 c 3.9693,-27.44476 -22.63942,-8.59711 -2.91379,3.01038 l 1.52126,-0.95146 1.39253,-2.05892 z m 58.58889,-12.35069 c -0.34612,-17.73098 -19.71723,-4.03259 0,0 z m -68.84651,-17.63508 c 1.20928,-21.3366 -9.97069,10.14316 0,0 z m 72.59651,0.13562 c 29.18547,-10.88512 -13.82662,-21.0227 -7.88124,-0.62776 1.28547,3.40909 5.97285,3.7333 7.88124,0.62776 z m 20.25,-2.5141 c -0.52306,-4.33458 -3.17471,2.38316 0,0 z m 17.44225,-5.67072 c 19.24927,-5.13394 18.85336,-27.31771 0.0981,-19.58922 -7.73579,-43.59579 -32.0345,36.61469 -0.0981,19.58922 z m 29.38994,-18.48332 c 17.41989,-22.1365 -21.42692,4.78053 0,0 z m 11.16781,-10.35838 c 0.52625,-13.15739 -6.6097,10.37401 0,0 z M 297.07716,397.74878 c -3.70287,-10.02665 -6.65594,8.795 0,0 z m 7.63713,49.04198 c 0.75945,-2.87498 0.75939,2.87502 0,0 z m -63.33333,-43.66667 c -7.48831,-6.28445 5.22,-1.75414 0,0 z m 15.33333,-2.33333 c 0.75945,-2.87498 0.75939,2.87502 0,0 z m 1,-3 c 0.75945,-2.87498 0.75939,2.87502 0,0 z m -19.46678,-6.32322 c -1.44188,-8.82753 6.11949,3.31157 0,0 z m 51.60754,-8.69124 c -5.66599,-13.89465 4.87217,5.35559 0,0 z m 1.87891,-14.97339 c -1.10134,-17.66557 4.84406,6.18831 0,0 z m -21.01967,-7.38971 c 4.83941,-16.87257 7.49478,12.78384 0,0 z m 105.13219,-24.23166 c -26.25934,2.67689 13.12236,-14.316 0.67364,0.76197 l -0.67364,-0.76197 z m 90.20114,-0.0575 c 2.97022,-2.55876 0.74944,2.74194 0,0 z m 3,-1 c 2.97022,-2.55876 0.74944,2.74194 0,0 z m -115.28054,-6.3755 c -14.05701,-14.32049 13.08078,13.69024 0,0 z m 50.45276,-5.95165 c -2.60653,-6.49206 7.36193,7.92482 0,0 z m -58.10104,-3.16064 c 1.15034,-2.96112 2.61956,7.61052 0,0 z m 34.03662,-4.40066 c -2.52186,-4.32069 8.78956,8.03134 0,0 z m -39.75592,-6.97876 c -4.52629,-17.08095 9.41909,12.81188 0,0 z m 38.54503,-2.01735 c -14.34829,-11.12155 6.83574,1.31224 0,0 z m 75.76976,-7.94872 c 1.8946,-6.03286 1.20884,5.40241 0,0 z m 5.07569,-4.25 c 9.68254,-13.24938 -3.02341,8.22323 0,0 z m 3.0822,-6.25 c 0.85158,-4.63604 0.85158,4.63604 0,0 z m -94.15789,0 c 0.75945,-2.87498 0.75939,2.87502 0,0 z m -1.21128,-3.52579 c -6.61721,-13.74324 13.73952,2.01495 0,0 z m 68.8948,-5.85656 c -7.64147,-11.27099 4.86045,0.34839 0,0 z m -24.68352,-28.61765 0.73366,-0.18491 -0.73366,0.18491 z m 3.25,-0.99005 c -9.87606,-13.11954 11.31484,-5.03557 0,0 z"
         id="path3505"
         inkscape:connector-curvature="0" />
      <path
         style="fill:#afa794"
         d="m 285.08395,768.10477 c -29.4039,-7.10359 -23.51817,-43.7237 -35.15394,-64.89989 -19.46243,-20.44787 -0.9666,26.2668 -12.34111,36.76195 -11.13007,30.1176 -63.20928,25.56157 -68.54119,-6.49592 -5.5459,-29.00722 1.97819,-58.58996 5.73383,-87.45915 5.28596,-31.11212 20.2916,-59.05117 34.82613,-86.52404 10.02716,-25.10201 9.1571,-60.3744 37.91752,-72.64899 36.90106,5.0337 28.63884,-45.98121 4.71711,-57.14064 -13.8902,-15.92946 9.85551,-26.37025 12.31499,-5.86038 18.61138,-3.61239 1.14921,-32.86756 -2.35813,-38.77341 9.74101,12.39347 8.3079,-2.86979 21.48053,-4.08375 -3.2345,11.53974 34.96419,14.11527 6.75246,21.19003 -26.88814,15.59996 -7.24283,69.0331 21.90862,52.46911 6.89588,-11.5614 2.05094,-25.35761 6.1557,-5.68193 15.10628,1.28862 15.11909,-38.91013 38.96836,-34.1724 21.45508,-14.55137 57.97328,-40.72791 57.42138,-61.90755 -12.42277,-4.83187 -43.95037,-3.57525 -20.94727,-12.30013 -1.97049,-12.17807 -8.1958,-31.64843 6.78607,-11.37858 21.59683,14.64984 6.29145,-30.53483 7.06208,-20.41148 13.4115,2.25612 -6.37236,-52.5447 4.9194,-28.0742 -3.68661,17.19061 11.59494,51.00509 21.49106,17.64875 2.26897,-9.44587 36.09895,-39.15009 15.06336,-16.66684 -11.72163,8.48027 -22.178,53.51377 -2.22761,42.51995 4.93985,-12.27171 24.25829,-19.99954 9.11611,-3.18491 -21.08846,27.17069 -31.31326,61.41736 -54.80882,86.89589 24.11728,13.31883 39.34657,-32.27294 65.29292,-26.1997 -5.33885,11.2758 -44.62733,33.18383 -9.33293,31.68212 38.55142,5.39257 81.97197,27.829 88.77009,69.89395 4.86387,25.26923 0.30615,56.10963 -19.42337,73.67981 -33.39744,17.73561 -19.08267,59.40213 -25.45865,88.85004 -12.52034,36.77092 -38.5822,68.07881 -68.00941,92.75 -25.70114,20.18102 -58.98326,28.71137 -91.27654,25.23166 -18.99747,0.20748 -38.09142,0.82898 -56.81875,4.29063 z m 42.63034,-22.31401 c -2.20038,-4.48834 -2.20038,4.48834 0,0 z m -137.60103,-2.15923 c 10.09096,-11.05582 31.1668,-4.43324 27.46226,-17.43241 9.72667,-3.40194 4.27226,-26.12758 10.68221,-37.52515 -3.84648,-11.06072 -18.19811,-1.34125 -9.93064,-17.13078 4.74007,-16.62067 -25.39104,-43.06597 -21.23141,-40.925 19.47161,-2.32392 5.32057,-63.99687 2.94058,-24.1536 -12.47783,14.77044 -9.43108,39.51072 -11.65973,50.58964 -16.45371,-10.41972 -12.72014,37.9188 -6.9817,37.9851 -9.80684,13.40176 -2.04576,17.56146 6.28329,19.23648 8.60017,18.71507 -4.42145,12.75348 -8.71561,10.99266 -3.11638,7.13861 -1.29278,28.27426 11.15075,18.36306 z m 6.76052,-18.08128 c 10.29,-15.85807 0.48813,-38.79828 8.95803,-53.46683 -6.69242,13.94686 17.31733,20.31239 4.20147,32.65061 0.67618,8.79143 -0.005,23.8521 -13.1595,20.81622 z m 16.84051,-3.75949 c 2.20038,-4.48834 2.20038,4.48834 0,0 z m -2.40033,-12.60086 1.88594,-1.04116 -1.88594,1.04116 z m 3.97454,-3.06636 c -0.13064,-8.98496 5.41849,5.99662 0,0 z m -26.57421,-9.3918 c 2.74815,-2.37931 0.68952,4.42284 0,0 z m 7,-1.94098 c 2.88509,-4.2179 2.18064,5.31404 0,0 z m -3.65492,-4.54313 c 0.7141,-7.82279 3.34287,5.77371 0,0 z m -13.34508,-6.95687 c 2.24871,-5.97229 2.24871,5.97229 0,0 z m 7,-15.55902 c 2.63396,-7.80049 -0.4582,11.77749 0,0 z m 18.69385,-20.58046 c -1.76171,-6.31271 5.59988,2.78623 0,0 z m -11.67854,-4.5515 0.80302,3.2895 -0.80302,-3.2895 z m 10.65136,102.52431 c -2.96999,-2.55865 -0.7495,2.74175 0,0 z m 120.33333,-0.77431 c 0.68672,-5.1553 -3.73902,1.63908 0,0 z m 7,-2.55902 c -1.44555,-4.9712 -1.92184,3.56948 0,0 z m -7.2506,-4.502 c -10.96671,-14.1989 -6.40409,15.71389 0,0 z m 80.2188,-4.75647 c -8.13967,-1.62411 -4.45761,9.32875 0,0 z m -60.35589,-21.333 c 31.33308,-10.52905 7.25424,-40.65804 12.85636,-61.26595 -5.77182,-32.42799 -46.16437,-34.45658 -62.38981,-57.44428 -12.71151,-20.76073 -45.26495,-9.94046 -24.5002,13.16773 24.3824,19.11636 34.30849,47.08101 40.10789,79.4505 6.93951,13.87114 24.58691,14.22223 33.92576,26.092 z m 7.51881,-7.75054 c -1.41764,-7.96095 4.50017,4.73011 0,0 z m -34.72188,-15.0339 c -1.15257,-9.10058 6.2052,4.8228 0,0 z m -1.20346,-5.19251 c 2.10062,-12.09102 9.99699,10.33718 0,0 z m -4.20578,-5.43158 c 2.20038,-4.48834 2.20038,4.48834 0,0 z m 1.25,-4.67442 c -5.18916,-8.45266 7.0656,4.6533 0,0 z m -8.61383,-12.83132 c 0.36052,-5.35251 3.0319,4.24427 0,0 z m -0.63617,-22.05328 c 3.14452,-3.50628 0.42364,6.3116 0,0 z m -20,-15.38196 c -0.007,-6.26357 3.83252,3.45353 0,0 z m 3,-5.95203 c 3.71804,-7.74027 5.06346,5.3647 0,0 z m -20,-32.60699 c 2.24871,-5.97229 2.24871,5.97229 0,0 z m 54,117.5 c -4.17017,-5.44545 -4.48024,5.49112 0,0 z m -9.33333,-6.66667 c -2.63081,-2.47326 -0.64575,2.71076 0,0 z m -39.9162,-15.08333 c -3.91385,-5.38838 -3.31247,6.17867 0,0 z m 181.24953,0.19098 c -3.14452,-3.50628 -0.42364,6.3116 0,0 z m 2.79333,-4.48166 c 2.72793,-8.13907 -5.29507,5.74851 0,0 z m -150.5289,-0.55709 c 0.54189,-6.72295 -4.9336,3.60832 0,0 z m -32.30715,-2.82242 c 12.22698,-15.89159 -8.65607,-10.77966 0,0 z m 196.04272,1.42019 c -4.79428,-5.18262 -6.20165,5.23867 0,0 z m -14.25554,-5.55645 c 16.00427,-8.19477 -17.32353,-18.58211 1.27678,-8.85111 0.13954,2.56281 -4.43865,6.73366 -1.27678,8.85111 z m -23.74446,-5.44355 c -2.20038,-4.48834 -2.20038,4.48834 0,0 z m -6.33333,-5.66667 c -2.74175,0.74942 2.55858,2.96992 0,0 z m 11.83333,0.66667 c -1.3163,-3.41573 -1.82618,4.80506 0,0 z m 39.35676,-0.89031 c 0.54885,-6.61482 -8.31625,7.3268 0,0 z m -3.42152,-9.21447 c -4.44715,-4.78126 -1.06166,6.27759 0,0 z m -82.93524,0.10478 c -2.30615,-5.24262 -2.0919,4.38537 0,0 z m 34.16667,-7.66667 c -2.74175,0.74942 2.55858,2.96992 0,0 z m -186.87339,-6.18441 c 3.87304,-10.51691 -7.85007,-1.07135 0,0 z m 213.66401,-0.0798 c -0.57599,-6.43228 -5.03439,4.46777 0,0 z m 13.04271,-1.06912 c -1.3163,-3.41573 -1.82618,4.80506 0,0 z m -26.86163,-2.5 c 13.48444,-6.63607 -8.11646,-3.77624 0,0 z m 10.80884,-0.58541 c -4.71175,-2.96328 0.54334,5.53953 0,0 z m 20.21946,0.41874 c -2.74175,0.74942 2.55858,2.96992 0,0 z m -223.709,-1.64235 c -3.56102,-11.52679 -10.05533,1.82637 0,0 z m -2.59604,-10.19098 c -2.5635,-5.29632 -1.22282,5.61281 0,0 z m 239.63837,-4.5 c -3.05025,-7.12218 -2.32738,6.48043 0,0 z m -25.22917,-2.1875 c -2.78147,-6.77254 -2.80077,5.07671 0,0 z m -185.77083,-2.25348 c -2.17692,-4.63708 -3.65389,4.56689 0,0 z m -34.67534,-1.21701 c 0.94574,-9.44319 -7.4803,2.08309 0,0 z m 122.67534,-1.46004 c -4.22999,-2.26582 0.22284,5.33183 0,0 z m -14,-4.32295 c -3.12255,-9.27671 -5.14059,7.94287 0,0 z m 22.27496,-3.93804 c 15.31105,-11.4213 23.08013,-24.47635 42.57637,-18.36431 -0.61236,-12.06504 -33.63188,-21.73586 -44.94994,-35.84911 -16.74517,-14.39542 -36.87782,-24.38428 -55.37999,-35.45261 -16.57068,-20.32537 -73.68855,-16.26136 -51.50638,18.00856 21.71937,18.20384 38.04661,48.44953 61.27229,60.4182 13.67371,-8.91408 31.01841,13.09626 47.98765,11.23927 z m -22.27496,-9.62098 c 2.88509,-4.2179 2.18064,5.31404 0,0 z m 4.54271,-6.9309 c 1.5184,-7.44487 3.03614,6.28333 0,0 z m -38.54271,-3.0691 c -6.2271,-14.80066 10.58609,9.0563 0,0 z m 48.54271,-0.9309 c 1.5184,-7.44487 3.03614,6.28333 0,0 z m 35.45729,-2.0691 c 3.26081,-5.68242 1.99221,6.45963 0,0 z m -80.34501,-1.82874 c -6.08017,-10.76058 7.6121,6.07578 0,0 z m 46.34501,-6.17126 0.73366,-0.18491 -0.73366,0.18491 z m -58.8,-2.2 c -4.43351,-7.24586 -0.60918,3.31989 2.22249,1.14931 l -2.22249,-1.14931 z m 31.8,0.2 c 2.18065,-5.31404 2.88508,4.21791 0,0 z m 18,-1 c 2.20038,-4.48834 2.20038,4.48834 0,0 z m 4,-5.62244 2.18165,0.37434 -2.18165,-0.37434 z m -59.54112,-6.44409 c -0.16533,-5.79738 4.39645,6.54958 0,0 z m -7.01273,-8.0206 c 2.65953,-7.75658 4.99025,7.56226 0,0 z m 19.55385,-1.85385 c 1.49341,-9.17122 3.05078,6.81815 0,0 z m 34.5,-2.05902 c 1.3163,-3.41573 1.82618,4.80506 0,0 z m -69.32379,-2.22379 c 3.61029,-9.2234 8.44968,6.34415 0,0 z m 46.51764,-6.41569 c -1.76171,-6.31271 5.59988,2.78623 0,0 z m -57.94385,-3.44062 c -8.26692,-10.14653 10.26488,4.06598 0,0 z m 44.83295,-0.78569 c -3.56806,-5.9111 4.17852,1.17684 0,0 z m -48.08295,67.86579 -1.59597,-0.55996 1.59597,0.55996 z m 1.66079,-7.74728 c -7.19588,-15.22441 0.28033,11.84697 0,0 z m 137.33921,2.70494 c -7.63266,-10.13848 -8.80175,6.82308 0,0 z m -162.07693,-7.20849 c 14.86737,-15.27009 -24.74374,4.28241 -1.16842,2.90812 0.64453,12.43083 0.64549,-4.68123 1.16842,-2.90812 z m 17.2436,6.58416 c -2.74175,0.74942 2.55858,2.96992 0,0 z m 174.69496,-3.83333 c -3.91323,-8.24498 -3.40504,5.25269 0,0 z m 40.29732,-0.64434 c 35.7107,8.08876 52.41203,-35.41713 53.72611,-56.01638 33.92344,-12.6398 14.56445,-62.41261 -16.58157,-62.74931 -25.99577,4.91535 -53.81938,24.19237 -76.96576,0.72811 -32.67396,-12.16885 -71.67724,27.51592 -43.36884,55.8348 7.29846,28.11858 30.31765,46.24119 56.39128,56.04559 8.42627,3.68653 17.50419,6.49088 26.79878,6.15719 z m -17.15895,-23.27857 c -11.00068,-4.93578 -35.26644,-30.95216 -9.8456,-16.50169 -2.89368,-16.45887 8.67758,-30.34648 24.99697,-16.05839 10.63,11.30435 -10.60436,23.90988 11.16991,13.33185 14.30724,-8.86238 -21.06857,29.32925 -26.32128,19.22823 z m 12.49807,-31.7597 c -18.66641,-6.45823 -18.61122,7.10888 0,0 z m 35.88998,-7.31703 c -17.64879,-30.79309 36.36391,-0.25261 0,0 z m -96.9376,-5.74812 c -16.64256,-32.65513 36.26518,3.46443 0,0 z m 16.54955,64.24776 c -2.382,-3.98244 -2.36551,5.30287 0,0 z m -168.5,-3 c -2.20038,-4.48834 -2.20038,4.48834 0,0 z m 11,-1.33948 c -5.01836,-11.4384 -8.04789,7.22488 0,0 z m 13,-5.78296 c -6.08885,-4.39447 -1.14385,7.78049 0,0 z m -20.65361,-5.87756 c -13.6503,-7.78987 -12.12718,16.60167 -0.17011,0.12464 l 0.17011,-0.12464 z m 11.2839,5.75 c 2.99271,-10.9971 -7.57497,-4.26796 0,0 z m -14.63029,-49.64301 c -3.23846,-10.47277 -5.28694,3.97534 0,0 z m 73.25,-19.19435 c 10.98933,-13.67079 -14.45521,-38.29064 16.24787,-37.5915 9.90523,-18.2434 22.32509,-34.85253 45.15857,-24.99978 13.82029,-0.61339 43.51305,-31.96895 14.11272,-19.15671 -16.43766,2.54163 -3.0105,-26.11873 -21.43948,-11.2152 -8.06239,25.48528 -35.13721,24.10645 -47.26909,45.3229 -7.96504,21.37396 -54.80679,7.64638 -38.53023,38.73112 13.55128,-2.10675 19.12355,-5.91148 24.98466,10.95146 l 2.9337,0.25441 3.80128,-2.2967 0,0 z m -20.14572,-28.82703 c -5.46353,-6.95204 6.61191,-0.67688 0,0 z m 31.37438,-17.10919 c -3.48324,-7.6514 9.47728,8.11652 0,0 z m 3.15534,-3.7596 c -3.12663,-22.77826 21.85405,0.83193 0,0 z m -28.72156,48.16318 c 0.11219,-15.72729 -13.84971,7.36215 0,0 z M 287.1254,477.71403 c 4.37644,-27.6553 -22.96999,-8.46756 -2.8552,2.9235 l 1.51211,-0.92649 1.34309,-1.99701 z m 61.25556,-17.58994 c -2.63081,-2.47326 -0.64575,2.71076 0,0 z m -71.23365,-13.35253 c 3.68146,-20.03623 -13.75324,5.39822 -0.11016,0.11799 l 0.11016,-0.11799 z m 92.56698,-1.42178 c -0.52306,-4.33458 -3.17471,2.38316 0,0 z m -94.33772,-28.80902 c -2.65082,2.50984 3.87517,3.30619 0,0 z m 150.50898,-3.40499 c 26.2656,-21.07281 -17.36689,-0.0869 0,0 z m -24.69324,-15.10646 c 12.94164,-15.03126 -19.42147,4.66083 -2.66618,3.02291 -10.6706,10.15694 5.4015,2.268 2.66618,-3.02291 z m -104.11515,-0.28053 c -3.70287,-10.02665 -6.65594,8.795 0,0 z m 154.67762,-6.14608 c 8.16173,-9.37882 -12.39436,7.52867 0,0 z m -45.37382,-6.47861 c -2.63081,-2.47326 -0.64575,2.71076 0,0 z m 8.34661,-7.36539 c 1.43505,-12.35513 -5.91021,10.23419 0,0 z m 3.48672,-7.96794 c -1.3163,-3.41573 -1.82618,4.80506 0,0 z m -113.5,77 c 0.75945,-2.87498 0.75939,2.87502 0,0 z m -65.55931,-9.09596 c 1.04351,-7.88336 6.86696,4.88943 0,0 z m -11.44069,-21.68964 c -14.1952,-8.91256 11.15466,-0.37807 0,0 z m 10.33861,-25.77439 c 0.51309,-6.50747 4.66349,4.18791 0,0 z m 51.0659,-8.59452 c 2.11705,-2.122 1.15394,5.94362 0,0 z m -19.40451,-4.84549 c 0.75945,-2.87498 0.75939,2.87502 0,0 z m 1,-15.41821 c 0.92051,-16.95552 10.00083,9.77086 0,0 z m 181.33333,-21.24846 c 2.63081,-2.47326 0.64575,2.71076 0,0 z m 6.16667,-1.33333 c 10.56377,-6.19593 -2.21818,4.10529 0,0 z m -82.35016,-3 c -25.38965,2.94421 11.88311,-13.52522 0.76129,0.8911 l -0.76129,-0.8911 z m -19.5213,-5.07755 c -14.81937,-9.60745 6.61294,-0.43334 0,0 z m 47.87701,-7.91632 c -2.60653,-6.49206 7.36193,7.92482 0,0 z m -54.83888,0.3272 c -5.55795,-3.79577 4.34034,-0.87441 0,0 z m 139.7287,-9.70545 c -17.30562,-28.40991 33.31257,-23.39019 0,0 z m -147.86969,-4.57822 c -4.84161,-11.59566 8.56263,8.57151 0,0 z m 38.23658,-2.1229 c -10.88237,-4.20305 -1.99585,-7.29298 0,0 z m 96.23774,-4.92676 c 7.23844,-7.83604 -0.0853,4.20463 0,0 z m -15.97994,-7.52417 c 4.89073,-5.70953 -0.72717,4.7549 0,0 z m -92.36507,-12.30457 c -1.63278,-11.32017 7.94561,8.79777 0,0 z m 94.5029,-4.17126 c 0.85158,-4.63604 0.85158,4.63604 0,0 z m -26.15789,-1 c 0.75945,-2.87498 0.75939,2.87502 0,0 z m -20.81852,-28.49641 c -12.17398,-17.03083 11.20287,-2.07928 0,0 z"
         id="path3503"
         inkscape:connector-curvature="0" />
      <path
         style="fill:#c49b78"
         d="m 285.21429,767.13582 c -35.65883,-4.84551 -18.94491,-69.16232 -46.38627,-70.45095 2.00117,15.15903 -7.28907,33.16937 -4.30219,8.58705 4.56574,-34.45501 -35.90194,-57.25594 -27.36741,-92.40292 1.04778,-36.39288 4.94402,-73.28954 19.45704,-106.82406 18.44483,-35.45958 57.63413,-18.42116 83.18168,-3.17086 30.66802,9.44887 19.01906,-36.93439 48.48777,-39.57179 24.03728,-15.15789 46.07245,-32.65249 68.40996,-50.46716 11.06637,-8.87196 30.10083,-28.72205 37.86473,-28.27733 -6.14497,10.78449 -46.49867,31.20102 -12.79402,28.87903 38.64477,4.33813 83.66366,23.78576 92.49085,65.78806 8.02233,32.13275 -1.8395,70.17721 -29.72118,89.79223 -4.15382,-31.9849 46.05843,-57.24552 15.52008,-89.40968 -27.15487,-32.43601 -64.38312,10.9419 -95.31278,-8.3608 -26.94713,-19.136 -68.77531,3.45 -61.26402,37.26342 3.9977,26.82105 21.11121,48.24043 44.65693,60.64645 22.39078,16.222 54.55119,26.28611 79.16126,8.73144 14.96492,-6.13589 1.2224,22.8523 7.52033,33.31455 1.86093,33.27182 -13.55622,64.20736 -34.80978,88.81637 -25.85846,34.49166 -64.71707,65.64252 -110.27166,62.303 -24.88963,0.71453 -49.71144,2.79779 -74.52132,4.81395 z m 42.5,-21.34506 c -2.20038,-4.48834 -2.20038,4.48834 0,0 z m -4,-1.44098 c 0.68672,-5.1553 -3.73902,1.63908 0,0 z m 7,-2.55902 c -1.44555,-4.9712 -1.92184,3.56948 0,0 z m -7.2506,-4.502 c -10.96671,-14.1989 -6.40409,15.71389 0,0 z m 80.2188,-4.75647 c -8.13967,-1.62411 -4.45761,9.32875 0,0 z m -60.35589,-21.333 c 31.33308,-10.52905 7.25424,-40.65804 12.85636,-61.26595 -5.77182,-32.42799 -46.16437,-34.45658 -62.38981,-57.44428 -12.71151,-20.76073 -45.26495,-9.94046 -24.5002,13.16773 24.3824,19.11636 34.30849,47.08101 40.10789,79.4505 6.93951,13.87114 24.58691,14.22223 33.92576,26.092 z m 7.51881,-7.75054 c -1.41764,-7.96095 4.50017,4.73011 0,0 z m -34.72188,-15.0339 c -1.15257,-9.10058 6.2052,4.8228 0,0 z m -1.20346,-5.19251 c 2.10062,-12.09102 9.99699,10.33718 0,0 z m -4.20578,-5.43158 c 2.20038,-4.48834 2.20038,4.48834 0,0 z m 1.25,-4.67442 c -5.18916,-8.45266 7.0656,4.6533 0,0 z m -8.61383,-12.83132 c 0.36052,-5.35251 3.0319,4.24427 0,0 z m -0.63617,-22.05328 c 3.14452,-3.50628 0.42364,6.3116 0,0 z m -20,-15.38196 c -0.007,-6.26357 3.83252,3.45353 0,0 z m 3,-5.95203 c 3.71804,-7.74027 5.06346,5.3647 0,0 z m -20,-32.60699 c 2.24871,-5.97229 2.24871,5.97229 0,0 z m 54,117.5 c -4.17017,-5.44545 -4.48024,5.49112 0,0 z m -9.33333,-6.66667 c -2.63081,-2.47326 -0.64575,2.71076 0,0 z m -39.9162,-15.08333 c -3.91385,-5.38838 -3.31247,6.17867 0,0 z m 181.24953,0.19098 c -3.14452,-3.50628 -0.42364,6.3116 0,0 z m 2.79333,-4.48166 c 2.72793,-8.13907 -5.29507,5.74851 0,0 z m -150.5289,-0.55709 c 0.54189,-6.72295 -4.9336,3.60832 0,0 z m -32.30715,-2.82242 c 12.22698,-15.89159 -8.65607,-10.77966 0,0 z m 196.04272,1.42019 c -4.79428,-5.18262 -6.20165,5.23867 0,0 z m -14.25554,-5.55645 c 16.00427,-8.19477 -17.32353,-18.58211 1.27678,-8.85111 0.13954,2.56281 -4.43865,6.73366 -1.27678,8.85111 z m -23.74446,-5.44355 c -2.20038,-4.48834 -2.20038,4.48834 0,0 z m -6.33333,-5.66667 c -2.74175,0.74942 2.55858,2.96992 0,0 z m 11.83333,0.66667 c -1.3163,-3.41573 -1.82618,4.80506 0,0 z m 39.35676,-0.89031 c 0.54885,-6.61482 -8.31625,7.3268 0,0 z m -3.42152,-9.21447 c -4.44715,-4.78126 -1.06166,6.27759 0,0 z m -82.93524,0.10478 c -2.30615,-5.24262 -2.0919,4.38537 0,0 z m 34.16667,-7.66667 c -2.74175,0.74942 2.55858,2.96992 0,0 z m -211.66667,-0.77431 c 0.68672,-5.1553 -3.73902,1.63908 0,0 z m 24.79328,-5.4101 c 3.87304,-10.51691 -7.85007,-1.07135 0,0 z m 213.66401,-0.0798 c -0.57599,-6.43228 -5.03439,4.46777 0,0 z m 13.04271,-1.06912 c -1.3163,-3.41573 -1.82618,4.80506 0,0 z m -26.86163,-2.5 c 13.48444,-6.63607 -8.11646,-3.77624 0,0 z m 10.80884,-0.58541 c -4.71175,-2.96328 0.54334,5.53953 0,0 z m 20.21946,0.41874 c -2.74175,0.74942 2.55858,2.96992 0,0 z m -223.709,-1.64235 c -3.56102,-11.52679 -10.05533,1.82637 0,0 z m -2.59604,-10.19098 c -2.5635,-5.29632 -1.22282,5.61281 0,0 z m 239.63837,-4.5 c -3.05025,-7.12218 -2.32738,6.48043 0,0 z m -25.22917,-2.1875 c -2.78147,-6.77254 -2.80077,5.07671 0,0 z m -185.77083,-2.25348 c -2.17692,-4.63708 -3.65389,4.56689 0,0 z m -34.67534,-1.21701 c 0.94574,-9.44319 -7.4803,2.08309 0,0 z m 122.67534,-1.46004 c -4.22999,-2.26582 0.22284,5.33183 0,0 z m -14,-4.32295 c -3.12255,-9.27671 -5.14059,7.94287 0,0 z m 22.27496,-3.93804 c 15.31105,-11.4213 23.08013,-24.47635 42.57637,-18.36431 -0.61236,-12.06504 -33.63188,-21.73586 -44.94994,-35.84911 -16.74517,-14.39542 -36.87782,-24.38428 -55.37999,-35.45261 -16.57068,-20.32537 -73.68855,-16.26136 -51.50638,18.00856 21.71937,18.20384 38.04661,48.44953 61.27229,60.4182 13.67371,-8.91408 31.01841,13.09626 47.98765,11.23927 z m -22.27496,-9.62098 c 2.88509,-4.2179 2.18064,5.31404 0,0 z m 4.54271,-6.9309 c 1.5184,-7.44487 3.03614,6.28333 0,0 z m -38.54271,-3.0691 c -6.2271,-14.80066 10.58609,9.0563 0,0 z m 48.54271,-0.9309 c 1.5184,-7.44487 3.03614,6.28333 0,0 z m 35.45729,-2.0691 c 3.26081,-5.68242 1.99221,6.45963 0,0 z m -80.34501,-1.82874 c -6.08017,-10.76058 7.6121,6.07578 0,0 z m 46.34501,-6.17126 0.73366,-0.18491 -0.73366,0.18491 z m -58.8,-2.2 c -4.43351,-7.24586 -0.60918,3.31989 2.22249,1.14931 l -2.22249,-1.14931 z m 31.8,0.2 c 2.18065,-5.31404 2.88508,4.21791 0,0 z m 18,-1 c 2.20038,-4.48834 2.20038,4.48834 0,0 z m 4,-5.62244 2.18165,0.37434 -2.18165,-0.37434 z m -59.54112,-6.44409 c -0.16533,-5.79738 4.39645,6.54958 0,0 z m -7.01273,-8.0206 c 2.65953,-7.75658 4.99025,7.56226 0,0 z m 19.55385,-1.85385 c 1.49341,-9.17122 3.05078,6.81815 0,0 z m 34.5,-2.05902 c 1.3163,-3.41573 1.82618,4.80506 0,0 z m -69.32379,-2.22379 c 3.61029,-9.2234 8.44968,6.34415 0,0 z m 46.51764,-6.41569 c -1.76171,-6.31271 5.59988,2.78623 0,0 z m -57.94385,-3.44062 c -8.26692,-10.14653 10.26488,4.06598 0,0 z m 44.83295,-0.78569 c -3.56806,-5.9111 4.17852,1.17684 0,0 z m -48.08295,67.86579 -1.59597,-0.55996 1.59597,0.55996 z m 1.66079,-7.74728 c -7.19588,-15.22441 0.28033,11.84697 0,0 z m 137.33921,2.70494 c -7.63266,-10.13848 -8.80175,6.82308 0,0 z m -162.07693,-7.20849 c 14.86737,-15.27009 -24.74374,4.28241 -1.16842,2.90812 0.64453,12.43083 0.64549,-4.68123 1.16842,-2.90812 z m 17.2436,6.58416 c -2.74175,0.74942 2.55858,2.96992 0,0 z m 174.69496,-3.83333 c -3.91323,-8.24498 -3.40504,5.25269 0,0 z m -8.86163,-4.5 c -2.382,-3.98244 -2.36551,5.30287 0,0 z m -168.5,-3 c -2.20038,-4.48834 -2.20038,4.48834 0,0 z m 11,-1.33948 c -5.01836,-11.4384 -8.04789,7.22488 0,0 z m 13.08045,-5.81084 c -4.18097,-6.852 -1.70363,8.38253 0,0 z m -20.73406,-5.84968 c -13.6503,-7.78987 -12.12718,16.60167 -0.17011,0.12464 l 0.17011,-0.12464 z m 11.2839,5.75 c 2.99271,-10.9971 -7.57497,-4.26796 0,0 z m 12.36971,-20.19098 c -0.52306,-4.33458 -3.17471,2.38316 0,0 z m -27,-29.45203 c -3.23846,-10.47277 -5.28694,3.97534 0,0 z m -66,233.55864 c 1.8677,-26.64311 41.938,4.85764 50.80362,-19.79477 16.32197,-3.97429 -7.69715,26.06904 -20.96624,20.13487 -9.93315,0.9874 -19.89909,-0.0339 -29.83738,-0.3401 z m 20,-5.66563 c -2.20038,-4.48834 -2.20038,4.48834 0,0 z m 0.66667,-4.66667 c -2.96999,-2.55865 -0.7495,2.74175 0,0 z m 3.73531,-6.72817 c -6.78971,-15.86839 14.20921,-4.37269 0,0 z m -18.98097,-2.9504 c -3.2254,-10.83033 5.37543,3.15906 0,0 z m -18.62923,-12.90476 c -16.08457,-11.08165 24.36063,-40.10643 1.43144,-15.56713 -1.40902,6.31351 14.59371,17.24789 -1.43144,15.56713 z m 35.20822,-7.19024 c -7.89827,-13.60447 9.35484,-21.12346 4.20821,-3.66313 l -4.20821,3.66313 z m 21.30981,-0.42834 c -5.53256,-12.77603 6.54005,1.6785 0,0 z m -55.82383,-22.78923 c 4.65021,-24.97574 -0.10116,-55.56138 16.90977,-76.04015 0.1184,18.92703 -10.68317,52.2862 -16.90977,76.04015 z m 8.51402,-8.84219 c 2.24871,-5.97229 2.24871,5.97229 0,0 z m 25.69385,-36.13948 c -1.76171,-6.31271 5.59988,2.78623 0,0 z M 446.9439,559.78932 c -14.3485,-5.38972 1.52662,-16.02703 -5.72958,-24.77206 7.82219,-11.17354 39.00744,-1.81211 20.26594,10.83814 19.10465,3.98549 -6.97224,21.5255 -14.53636,13.93392 z m -23.47961,-19.71688 c -10.44328,-10.87831 8.58427,1.70012 0,0 z m 57.25,-2.19835 c 2.36724,-8.68958 3.62632,6.44272 0,0 z m -93,-3.08333 c 2.20038,-4.48834 2.20038,4.48834 0,0 z m 108.45455,-13.45455 c -9.20417,-39.28691 37.81034,8.67969 0,0 z m -96.53147,-5.46853 c -8.64879,-39.60945 35.16496,12.93084 0,0 z M 274.26926,474.23209 c -0.69562,-12.26644 4.3611,9.16781 0,0 z m 49.69456,0.30867 c 6.909,-14.05328 3.78068,5.08716 0,0 z m -32.19009,-2.9433 c -13.29651,-19.86584 29.56669,-6.6262 22.75287,-25.32078 16.69222,11.27547 8.28929,27.48935 -8.98574,16.42483 -6.22591,-1.75013 -14.25262,1.28556 -13.76713,8.89595 z m -17.98049,-5.39003 c 1.45397,-3.43071 0.0801,5.48099 0,0 z m -3.07593,-11.66667 c -6.55174,-18.62515 5.18897,8.48718 0,0 z m 12.04816,0.35927 c -5.96521,-17.64758 8.33409,13.26951 0,0 z m 49.44882,0.89073 c 2.382,-3.98244 2.36551,5.30287 0,0 z m -4.83333,-5.66667 c 3.70912,-36.02186 49.50984,-36.46909 67.26874,-62.10871 21.69426,-9.98947 28.3867,-48.41907 -4.75967,-40.72506 -14.52734,-6.8085 17.74128,0.88512 1.83234,-13.91288 -14.43234,-33.17663 26.45313,16.6961 24.18068,-12.54931 -1.65799,-8.42214 -9.13258,-46.56296 -3.41987,-39.31938 -2.39086,15.61538 10.75728,48.73265 21.37092,18.46544 5.59365,-12.21521 34.83768,-42.7967 13.57093,-14.68322 -13.34615,11.58829 -19.34821,62.07936 6.02541,34.80926 -14.67381,27.01346 -28.02357,55.78505 -47.98258,79.59005 -6.15285,7.87226 -2.37453,-16.98152 -15.00768,-3.28052 -19.81329,19.68099 -46.14624,31.36147 -63.07922,53.71433 z m 79,-65 c -2.63081,-2.47326 -0.64575,2.71076 0,0 z m 11.36807,-7.88383 c 12.55585,-19.68223 -15.01292,-3.62891 -6.9834,3.05041 l 2.80768,-0.91508 4.17572,-2.13533 z m 10.39787,-16.4495 c 11.72441,-12.06556 -9.3859,2.15812 0,0 z m -88.43261,87 c 0.75945,-2.87498 0.75939,2.87502 0,0 z m 16,-0.37756 c 5.00723,-15.3479 10.49326,6.8705 0,0 z M 240.05012,437.22354 c 0.58845,-8.66089 5.95721,6.23181 0,0 z m 21.78406,-3.88219 c -16.06037,-4.8281 -23.3704,-21.00827 -3.25412,-22.52081 4.64804,5.39835 -0.54239,20.84206 3.25412,22.52081 z m 7.54678,1.78274 c -3.80918,-7.6955 6.44291,1.30908 0,0 z m 8.02479,-6.12604 c -0.49925,-38.77702 5.93378,10.07647 0,0 z m -6.01281,-3.91824 c 13.22561,-16.24377 -16.46045,-34.86292 -7.94039,-40.79625 10.11763,13.30549 6.35918,-1.11897 17.10988,-0.40113 5.7186,-1.41852 7.46896,10.03116 17.79091,8.79254 4.56071,15.13076 -33.18295,0.0978 -24.79187,23.29621 l -0.60497,4.60018 -1.56356,4.50845 z m 25.68422,-27.33103 c -3.70287,-10.02665 -6.65594,8.795 0,0 z m 90.63713,22.601 c -1.46347,-15.535 18.23169,-3.45782 0,0 z m -160.25,-4.67411 c -10.58444,-9.87227 10.39063,3.90137 0,0 z m 139.75,1.11509 c 2.22569,-5.26648 0.67038,3.18291 0,0 z m 43.87474,-5.08013 c 13.87071,-9.6372 -3.95815,6.84281 0,0 z m 31.62526,-19.35178 c 4.77707,-6.33487 10.88773,-0.70589 0,0 z m -204,-2.56809 c 2.36638,-6.16234 2.87597,5.8692 0,0 z m 213.56476,-2.89522 c 1.21088,-7.5655 6.77423,4.76691 0,0 z M 289.1188,381.63625 c 2.11705,-2.122 1.15394,5.94362 0,0 z m -19.40451,-4.84549 c 0.75945,-2.87498 0.75939,2.87502 0,0 z m 1,-15.30887 c 1.74236,-18.10436 11.55878,11.74414 0,0 z m 105.14984,-25.69113 c -25.38965,2.94421 11.88311,-13.52522 0.76129,0.8911 l -0.76129,-0.8911 z m -19.5213,-5.07755 c -14.81937,-9.60745 6.61294,-0.43334 0,0 z m 47.87701,-7.91632 c -2.60653,-6.49206 7.36193,7.92482 0,0 z m -54.83888,0.3272 c -5.55795,-3.79577 4.34034,-0.87441 0,0 z m 61.87445,-7.2668 c -16.17671,-1.65617 -1.98519,-18.4837 0,0 z m 77.85425,-2.43865 c -16.22672,-16.15829 19.90513,-28.71997 7.52366,-6.46877 -1.61754,2.61609 -3.92545,6.3325 -7.52366,6.46877 z m -147.86969,-4.57822 c -4.84161,-11.59566 8.56263,8.57151 0,0 z m 123.47432,1.57278 c 1.21323,-4.71687 3.88253,0.2371 0,0 z m -7,-2.62244 c 0.75945,-2.87498 0.75939,2.87502 0,0 z m -77.59549,-1.15451 c 1.15034,-2.96112 2.61956,7.61052 0,0 z m -3,-3 c 2.11705,-2.122 1.15394,5.94362 0,0 z m 98.59549,-1.84549 c 7.23844,-7.83604 -0.0853,4.20463 0,0 z m -15.97994,-7.52417 c 4.89073,-5.70953 -0.72717,4.7549 0,0 z m -91.98371,-11.93203 c 1.3439,-9.71432 5.59631,8.09397 0,0 z m 94.12154,-4.5438 c 0.85158,-4.63604 0.85158,4.63604 0,0 z m -46.49735,-28.82261 c -9.6244,-12.52728 9.49536,-4.8207 0,0 z"
         id="path3501"
         inkscape:connector-curvature="0" />
      <path
         style="fill:#ad916d"
         d="m 285.21429,767.13582 c -35.65353,-4.84708 -18.95438,-69.1539 -46.37647,-70.45244 1.70593,15.0777 -6.82216,33.27243 -4.59437,8.50606 2.45218,-34.69782 -32.35212,-60.45763 -26.3524,-95.80745 -2.92337,-37.85976 9.29105,-74.88455 21.66544,-109.84469 22.75371,-33.44465 56.11445,-3.94736 82.23271,4.27168 30.16022,4.30154 13.36369,-33.60254 38.8803,-34.71288 26.97511,-20.38991 56.17157,-38.00768 81.14446,-60.88793 6.952,-9.88764 48.72866,-35.85149 22.79656,-13.92074 -11.90358,5.95123 -29.55894,27.23706 -3.54404,18.93672 32.33938,2.75794 67.091,17.56768 85.18239,45.43847 18.59117,33.79342 13.2956,81.04782 -16.82957,106.55265 -15.53344,-21.65205 30.42872,-40.53995 19.36495,-67.33636 -7.49841,-39.17861 -53.67456,-33.94311 -80.45706,-21.27188 -28.52216,-9.2628 -72.01808,-23.92541 -85.35458,14.82149 -4.31979,34.0728 18.73434,63.23634 46.96862,79.45686 25.02802,19.97277 57.92985,18.85982 84.49886,6.64702 -0.21526,33.37116 3.74077,72.24255 -18.82918,101.14263 -23.22258,33.98798 -52.57186,68.56644 -93.42113,80.5012 -35.44781,4.72789 -71.65227,4.05617 -106.97549,7.95959 l 0,0 z m 65.13569,-14.83216 c 17.56935,-11.78492 34.08973,-2.57876 51.94853,-11.53383 5.04959,-17.64046 13.75167,-22.04729 31.23054,-28.29536 -5.86546,12.23179 12.98116,-14.73734 20.72139,-17.91341 -10.09704,-9.22761 15.22736,1.39498 10.16755,-14.09228 15.89511,-15.18363 20.28489,-39.90005 16.68416,-58.38171 11.44352,8.72504 -0.83521,-28.90688 -15.42679,-16.68134 -13.76933,2.60224 -37.20866,-4.78731 -19.13591,-13.84959 -50.51498,-14.47047 -85.53331,-57.33971 -132.5164,-78.60092 -18.81044,-10.5214 -49.12278,-35.16226 -65.91677,-9.31845 -5.94795,33.41036 37.40741,49.04275 51.4483,74.26549 21.37832,19.75685 46.60041,37.78224 76.65639,33.49896 3.68513,7.59602 -13.03044,7.58988 5.49709,5.82606 19.47859,-8.14305 33.6822,21.84599 8.64488,17.33344 -13.6778,4.98141 -37.86082,54.20544 -34.61124,16.01786 4.79172,-25.96054 -27.03329,-29.35546 -41.85333,-42.9585 -22.45674,-12.92155 -39.14967,-32.97914 -58.95604,-49.03032 -9.11673,-10.17301 -29.85607,-8.91951 -21.94601,9.00002 -26.8576,7.7201 9.02163,44.30395 -6.87492,61.60349 2.07774,18.6615 22.64556,22.15698 27.18996,21.6835 -10.82299,19.36314 16.72842,30.23028 16.97166,51.15299 13.73846,21.65951 30.98544,40.9533 56.49525,48.33174 7.62465,2.16724 15.71345,3.65505 23.58171,1.94216 z m -17.82319,-6.19601 c 3.83685,-4.18778 1.74453,2.806 0,0 z m -17.11865,-2.95637 c 0.10419,-6.37608 5.49594,3.36941 0,0 z m 79.53234,-1.53908 c 2.2442,-7.96152 5.91462,2.36963 0,0 z m -86.24625,-2.34561 c -0.753,-8.56788 4.5304,6.18345 0,0 z m 46.38169,-3.97583 c 2.39256,-11.4544 8.71199,8.50304 0,0 z m 18.63837,0.5 c 1.44555,-4.9712 1.92184,3.56948 0,0 z m -7.52707,-1.0438 c -0.78373,-7.27745 5.61105,2.60762 0,0 z m -19.97293,-0.9562 c 2.17818,-4.82074 3.85544,6.46543 0,0 z m 19.5,-7 c 2.88509,-4.2179 2.18064,5.31404 0,0 z m 21.51008,-0.0163 c 6.41481,-5.50434 0.80659,4.70128 0,0 z m -3.17675,-19.65036 c 2.97006,-2.5587 0.74955,2.74176 0,0 z m 53.66667,-8.75155 c 1.63364,-15.02129 12.70988,7.15028 0,0 z m -150.33586,-2.29387 c -10.16427,-14.72904 13.73365,-7.49196 0,0 z m -15.16414,-1.28792 c 1.3163,-3.41573 1.82618,4.80506 0,0 z m 1.16667,-9.66667 c -1.31125,-5.84447 6.17384,3.10854 0,0 z m 7.58333,-0.36449 c -5.48446,-11.40152 11.54587,6.26509 0,0 z m 174.26008,-1.95253 c -2.20338,-7.85487 5.92637,2.20238 0,0 z m -168.41225,-6.16553 c -16.58033,-24.0435 16.57102,-15.39264 1.49151,1.35238 l -1.49151,-1.35238 z m 175.90217,1.64922 c 3.50271,-6.83642 3.2055,6.78884 0,0 z m -4.48992,-4.48369 c -2.20338,-7.85487 5.92637,2.20238 0,0 z m 6.48992,-4.51631 c 3.50271,-6.83642 3.2055,6.78884 0,0 z m -46.5,-0.5 c 1.3163,-3.41573 1.82618,4.80506 0,0 z m 48.15799,-7.67534 c -3.20358,-6.01337 6.5913,0.68369 0,0 z m -179.65799,-7.35604 c 3.08014,-9.18239 5.36864,3.1398 0,0 z m 178,-0.46862 c 2.24871,-5.97229 2.24871,5.97229 0,0 z m 6,-0.5 c 2.18065,-5.31404 2.88508,4.21791 0,0 z M 272.28956,652.0327 c 5.51587,-7.35744 12.36111,0.78657 0,0 z m -31.14437,-5.35374 c 0.84731,-9.14217 6.077,4.77109 0,0 z m 231.5691,-1.8882 c 2.20038,-4.48834 2.20038,4.48834 0,0 z m 6.82613,-3.48225 c -16.37811,-8.19291 10.83446,-0.9238 0,0 z m -230.82613,-2.10108 c 3.33515,-4.94517 1.85087,6.4097 0,0 z m -13.66667,-2.08334 c 2.96999,-2.55865 0.7495,2.74175 0,0 z m 233.66667,-1.83333 c 1.75834,-5.44871 2.20253,4.92706 0,0 z m -216.65492,-1.04313 c 5.37774,-11.1616 9.92393,8.38701 0,0 z m 222.15492,-3.45687 c 1.3163,-3.41573 1.82618,4.80506 0,0 z m -6.5,-5.05902 c 2.79934,-5.60928 0.92306,8.40724 0,0 z m -236.60104,-1.48755 c -0.67303,-11.22302 4.71854,8.8456 0,0 z m 16.73216,-0.79544 c 0.39934,-8.06709 4.20213,6.20973 0,0 z m 6.36888,0.34201 c 1.3163,-3.41573 1.82618,4.80506 0,0 z m 212.16667,-2.66667 c -2.47368,-6.23875 5.99011,2.45976 0,0 z m 7.90754,-1.00055 c -0.13064,-8.98496 5.41849,5.99662 0,0 z m -68.57421,-1.26135 c -9.53238,-7.11509 6.26494,-4.97975 0,0 z m -171.33333,-0.7381 c -7.26851,-11.62653 8.5959,-47.56242 11.39517,-21.05546 -2.49991,7.69062 -8.62999,13.4906 -11.39517,21.05546 z m 7.33333,-22.94996 c -5.98427,-5.77267 -0.34091,8.49866 0,0 z m 0.58295,22.75084 c -3.56806,-5.9111 4.17852,1.17684 0,0 z m 6.41705,-3.13421 c 2.20038,-4.48834 2.20038,4.48834 0,0 z m 10.07895,-0.58333 c 1.45397,-3.43071 0.0801,5.48099 0,0 z m 198.92105,-2.85765 c 2.23038,-5.90483 3.32678,5.30052 0,0 z m 15.5,0.44098 c -2.39346,-8.80039 5.79895,2.91488 0,0 z m -229.04112,-2.06653 c 0.72001,-7.04923 5.95059,6.60056 0,0 z m 159.98727,-0.0206 c -0.58421,-7.01082 5.73271,4.21374 0,0 z m -152.44615,-0.97189 c 2.74815,-2.37931 0.68952,4.42284 0,0 z m 144.40451,-0.0955 c 2.11705,-2.122 1.15394,5.94362 0,0 z m -148.40451,-3.84548 c 3.73375,-5.48428 2.24407,6.6122 0,0 z m 7.8125,0.31689 c 3.83685,-4.18778 1.74453,2.806 0,0 z m 168.49364,-1.9615 c 0.56734,-12.52793 7.03762,4.72455 0,0 z m -18.30614,-1.35539 c 2.20038,-4.48834 2.20038,4.48834 0,0 z m 4,-2.05902 c 2.74815,-2.37931 0.68952,4.42284 0,0 z m -159.33333,-0.60765 c -3.89624,-7.33826 6.73829,0.75914 0,0 z m 83.33333,-1.83333 c -0.0789,-4.85101 4.20697,7.81508 0,0 z m 7.573,-0.0215 c -4.11874,-7.52768 9.51892,8.46334 0,0 z m -87.573,-8.4785 0.73366,-0.18491 -0.73366,0.18491 z m 4.2375,-4.1625 c -8.99624,-7.78132 6.8006,-0.55607 0,0 z m -8.86461,-1.30815 c -2.13187,-8.46896 7.08366,-1.11266 0,0 z m -12.96838,-0.68386 c 2.11705,-2.122 1.15394,5.94362 0,0 z m 25.79549,-4.04549 c -6.05194,-8.12661 7.22916,2.40796 0,0 z m -20.53333,-0.46667 c -4.21757,-7.49268 6.05313,2.9001 0,0 z m -10.9375,-0.9375 c -7.39425,-6.16352 5.23223,-1.5364 0,0 z m 15.9375,-1.0625 c -3.89624,-7.33826 6.73829,0.75914 0,0 z m 9.66916,-3.90055 c 0.60309,-9.62814 5.65059,6.85711 0,0 z m -5.99075,-1.97591 c 0.7141,-7.82279 3.34287,5.77371 0,0 z m -8.34508,-4.45687 0.73366,-0.18491 -0.73366,0.18491 z m 3.60374,-4.59024 c 0.61893,-9.47055 3.9187,7.49763 0,0 z m 39.39626,-4.40976 0.73366,-0.18491 -0.73366,0.18491 z m 128.66667,180.33333 c -2.63081,-2.47326 -0.64575,2.71076 0,0 z M 266.71429,704.9132 c -1.82609,-12.26788 -6.55027,1.86472 0,0 z m -8,-14.42244 c -0.40417,-9.17098 -6.55725,2.25803 0,0 z m 0,-7.2 c -2.51536,-6.07596 -2.43038,6.01042 0,0 z m -5.81667,-2.71667 c -4.84364,-1.13086 5.29207,6.01853 0,0 z m 225.81667,-15.28333 c -1.28651,-5.38506 -1.83807,5.9513 0,0 z m 5,-4.5 c -1.97856,-3.53878 -1.41049,4.92625 0,0 z m -86.5,-35 c -4.00694,-6.74342 -0.98852,3.91306 0,0 z m -18.5,-13.44098 c -2.17692,-4.63708 -3.65389,4.56689 0,0 z m -121,-55.55902 c -1.44555,-4.9712 -1.92184,3.56948 0,0 z m -75,198.66563 c 10.07889,-17.62493 47.62148,2.43214 55.26504,-23.51921 6.13806,32.2921 -36.2297,22.53859 -55.26504,23.51921 z m 11.71256,-3.28831 c -5.44824,-8.28874 -6.94602,7.5538 0,0 z m 12.95411,-13.04399 c -6.14844,-8.66221 7.30551,-2.0288 0,0 z m -37.87489,-16.58333 c -10.50417,-14.12573 17.99529,-37.61904 2.16051,-10.48062 2.48045,5.0846 10.45154,12.21369 -2.16051,10.48062 z m 34.83409,-8.87066 c -4.08451,-16.16748 6.3663,7.71046 0,0 z m 21.68394,1.25208 c -5.53256,-12.77603 6.54005,1.6785 0,0 z m -22.30981,-14.19716 c -0.80097,-8.73425 7.22205,-0.3776 0,0 z m -33.49928,-8.68426 c 4.81793,-25.0785 -0.253,-55.492 16.89817,-76.21335 1.31481,17.54523 -11.45613,52.50365 -16.89817,76.21335 z M 446.9439,559.78932 c -14.3485,-5.38972 1.52662,-16.02703 -5.72958,-24.77206 7.82219,-11.17354 39.00744,-1.81211 20.26594,10.83814 19.10465,3.98549 -6.97224,21.5255 -14.53636,13.93392 z m 10.58516,-4.24856 c -10.23167,-11.86986 -9.63773,8.7367 0,0 z m -34.06477,-15.46832 c -10.44328,-10.87831 8.58427,1.70012 0,0 z m 57.25,-2.19835 c 2.36724,-8.68958 3.62632,6.44272 0,0 z m -93,-3.08333 c 2.20038,-4.48834 2.20038,4.48834 0,0 z m 108.45455,-13.45455 c -9.20417,-39.28691 37.81034,8.67969 0,0 z m -96.53147,-5.46853 c -8.64879,-39.60945 35.16496,12.93084 0,0 z M 274.26926,474.23209 c -0.69562,-12.26644 4.3611,9.16781 0,0 z m 49.69456,0.30867 c 6.909,-14.05328 3.78068,5.08716 0,0 z m -32.19009,-2.9433 c -12.82267,-19.72026 29.26263,-7.44194 22.75945,-25.69552 16.10847,11.71928 7.32054,26.89086 -9.57382,16.71516 -6.00716,-1.30706 -13.89703,1.56648 -13.18563,8.98036 z m -17.98049,-5.39003 c 1.45397,-3.43071 0.0801,5.48099 0,0 z m -3.07593,-11.66667 c -6.55174,-18.62515 5.18897,8.48718 0,0 z m 12.04816,0.35927 c -5.96521,-17.64758 8.33409,13.26951 0,0 z m 44.61549,-4.77594 c 5.62299,-36.86946 51.3873,-37.94525 70.38604,-64.53849 25.75463,-12.36001 14.22202,-47.89937 -13.60081,-41.11577 24.71563,2.98519 -0.56848,-12.80204 6.94774,-23.77522 13.11625,15.47285 33.95496,9.28492 22.81326,-12.63048 -4.93592,-10.26128 -4.49013,-45.73549 -1.80901,-17.50352 -0.11091,19.19785 19.99308,32.38603 24.4353,6.40977 4.6771,0.26315 -9.84915,48.86082 13.06515,26.90832 -1.45573,8.61748 -20.77608,40.40737 -29.68336,57.32693 -5.74495,12.00456 -30.61922,34.00862 -12.88375,10.36342 6.72219,-6.14031 17.13261,-31.57177 0.94063,-12.91215 -16.78452,27.52397 -52.26507,38.09158 -69.1625,59.73236 -4.24721,3.26003 -10.09076,6.01947 -11.44869,11.73483 z M 428.1469,360.79076 c 11.72441,-12.06556 -9.3859,2.15812 0,0 z m -88.43261,87 c 0.75945,-2.87498 0.75939,2.87502 0,0 z m 16,-0.37756 c 5.00723,-15.3479 10.49326,6.8705 0,0 z m -115.5,-9.62244 c -1.66553,-5.75695 6.02722,3.63657 0,0 z m 21.61989,-4.44941 c -13.90259,-3.96744 -20.31072,-24.94397 -3.16083,-21.27184 2.17098,1.90314 6.97106,30.33039 3.16083,21.27184 z m 7.54678,1.78274 c -3.80918,-7.6955 6.44291,1.30908 0,0 z m 8.02479,-6.12604 c -0.49925,-38.77702 5.93378,10.07647 0,0 z m -6.01281,-3.91824 c 0.23058,-18.66401 -1.85108,-53.37822 24.85804,-32.50182 14.26185,13.35498 -31.2534,-0.0248 -22.48753,21.81404 l -0.74341,5.1664 -1.6271,5.52138 0,0 z m 25.68422,-27.33103 c -3.70287,-10.02665 -6.65594,8.795 0,0 z m 90.63713,23.15629 c 0.0137,-14.8568 14.40672,-2.55321 0,0 z m -20.5,-4.11431 c 2.22569,-5.26648 0.67038,3.18291 0,0 z m -141.0573,-2.41824 c -1.08706,-7.4854 1.27621,0.0859 2.17403,1.5777 l -2.17403,-1.5777 z m 184.93204,-2.66189 c 13.87071,-9.6372 -3.95815,6.84281 0,0 z M 260.71429,394.34045 c 0.72075,-16.62283 12.31979,3.31046 0,0 z m 184.5,-4.08069 c 14.58602,-13.05909 -5.30733,8.02842 0,0 z m -206.5,-1.02802 c 3.14452,-3.50628 0.42364,6.3116 0,0 z m 215.33333,-4.10765 c 2.63081,-2.47326 0.64575,2.71076 0,0 z m -193.35808,-2.89843 c -3.39409,-12.79063 4.50706,6.72882 0,0 z m 11.02475,-21.80633 c -1.34513,-12.42462 1.02023,9.9684 0,0 z m 104.62662,-24.74546 c -23.77486,1.20389 14.21699,-16.49149 1.37187,1.91111 l -0.89931,-1.2528 -0.47256,-0.6583 0,-10e-6 z m -21.11663,-6.87268 c -8.9005,-12.08915 10.51815,10.45484 0,0 z m 48.99556,-6.0043 c -2.60653,-6.49206 7.36193,7.92482 0,0 z m -55.10104,-1.16064 c 1.15034,-2.96112 2.61956,7.61052 0,0 z m 62.13661,-5.77896 c -16.17671,-1.65617 -1.98519,-18.4837 0,0 z m 77.86002,-2.48416 c -17.40855,-15.42415 23.00385,-23.50872 4.99323,-3.63561 3.76426,-2.16422 -6.66792,9.55462 -4.99323,3.63561 z m -147.96056,-4.69727 c -1.08288,-13.87661 6.60105,10.87849 0,0 z m 116.55942,-0.8851 c 0.75945,-2.87498 0.75939,2.87502 0,0 z m -77.59549,-1.15451 c 1.15034,-2.96112 2.61956,7.61052 0,0 z m -11.86616,-24.19379 c -6.01523,-10.17595 7.8415,5.87464 0,0 z m 81.96165,-3.6517 c 2.22569,-5.26648 0.67038,3.18291 0,0 z m 5.12712,-2.31788 c -6.98812,-13.65744 16.97192,-5.29179 0,0 z m -40.46704,-28.92204 c -7.22901,-7.89475 6.86126,-3.7394 0,0 z"
         id="path3499"
         inkscape:connector-curvature="0" />
      <path
         style="fill:#947256"
         d="m 284.98726,766.89248 c -35.23739,-5.27492 -17.69435,-72.26789 -47.13985,-69.89738 -1.12331,16.95533 -3.99443,21.34997 -3.21269,1.71881 -3.34659,-32.94087 -30.41801,-59.49008 -25.64534,-94.20651 -1.63111,-35.44936 6.76081,-71.36983 21.26242,-103.45085 4.97697,-13.47944 24.69225,-15.73463 11.27268,0.15559 -3.9149,28.31831 26.47718,43.05669 41.07908,62.8326 20.02929,32.06266 57.34076,47.61134 92.45645,56.46884 21.57031,9.05058 -2.83416,18.79645 -3.59016,29.47721 -19.82192,17.36318 -10.66354,-26.67851 -33.53283,-29.97439 -22.65464,-13.45733 -48.19421,-24.12172 -62.47873,-47.81686 -10.15848,-26.98485 -59.85494,-36.37899 -55.02531,2.33267 8.43256,29.40016 -5.5687,64.28677 22.17204,85.62897 12.25718,16.06225 4.97486,33.26081 24.19192,47.65048 14.99202,18.12485 32.41032,34.44981 52.48174,46.83116 33.07097,3.83351 72.36521,1.73573 99.14785,-19.33849 33.99848,-25.50297 71.20502,-59.60542 70.70198,-105.56295 0.79031,-41.85453 -51.27409,-32.85229 -73.11264,-55.01414 -35.60121,-21.50869 -69.30072,-45.99083 -104.89836,-67.50518 27.364,6.36945 19.39046,-38.68874 44.5699,-38.52949 24.41603,-22.6273 52.87467,-44.17437 84.78155,-54.16622 31.36966,-3.75867 61.12797,13.26692 85.14345,31.50072 29.4804,31.99863 26.62792,86.62083 -3.73903,117.05597 -14.27605,-19.87843 28.02204,-37.96267 18.3777,-62.54219 -5.35227,-39.636 -51.22674,-39.5711 -77.75855,-24.1087 -27.79039,-4.17707 -62.89802,-25.49126 -83.75251,5.18722 -19.62395,27.7149 1.36826,64.82514 27.51641,79.6754 25.64296,23.63787 59.67624,32.33935 91.55152,21.20856 12.57787,24.57021 5.19934,60.21247 -6.49956,85.0978 -25.42953,42.19202 -61.83592,87.77782 -114.32352,93.71439 -30.65169,1.51531 -61.61591,0.57518 -91.99761,5.57696 z m 11.77287,-26.01607 c -5.56661,-9.40329 -5.43412,4.02962 0,0 z m 124.37237,0.30736 c 4.45781,-6.55293 -6.24992,2.40539 0,0 z M 250.21429,691.79076 c -2.30615,-5.24262 -2.0919,4.38537 0,0 z m 117.49918,-49.72608 c 1.07782,-11.88923 -7.53477,10.3472 0,0 z m 6.66749,-8.94059 c -2.74175,0.74942 2.55858,2.96992 0,0 z m 116.33333,-9.33333 c -1.97856,-3.53878 -1.41049,4.92625 0,0 z m 0,-16 c -4.24451,-9.03334 -4.60386,7.91619 0,0 z m -259,-63.5 c 12.38072,-16.84774 -17.1257,3.99592 0,0 z m -1.26847,-13.10181 c -8.14508,-2.43488 0.36521,6.64745 0,0 z m 226.26847,-63.89819 c -2.24871,-5.97229 -2.24871,5.97229 0,0 z m 13.92971,-15.75 c -6.85974,-3.96111 1.39885,7.40315 0,0 z m 9.84112,-0.9375 c -2.78147,-6.77254 -2.80077,5.07671 0,0 z m 18.22917,-0.8125 c -3.19534,-5.17714 -3.19534,5.17714 0,0 z m -3.17668,-3.33287 c -2.05537,-5.73947 -2.91088,6.71785 0,0 z m -4.15665,-3.3338 c -2.63081,-2.47326 -0.64575,2.71076 0,0 z M 188.71429,755.73174 c 2.74815,-2.37931 0.68952,4.42284 0,0 z m 7.1982,-0.0356 c 12.05743,-5.36673 53.68972,-14.56596 21.06753,-2.20455 -6.92829,1.42433 -13.99862,2.10727 -21.06753,2.20455 z m -14.48829,-1.52881 c -0.57833,-10.38527 10.35556,3.27377 0,0 z m 181.04009,-1.03885 c 3.30619,-3.87517 2.50984,2.65082 0,0 z m -49.77006,-1.86189 c 0.35937,-8.86772 4.81492,7.67182 0,0 z m -3.97994,-5.47583 c 3.19534,-5.17714 3.19534,5.17714 0,0 z m 96.68956,-4.64377 c 1.20655,-14.64286 12.92945,-10.16894 0,0 z M 234.4819,734.35541 c 0.60908,-13.91327 6.52614,8.62647 0,0 z m 183.45009,-9.71915 c 4.03846,-9.53153 3.80636,5.40016 0,0 z m -247.61993,-2.58107 c -3.37563,-6.40076 6.73035,1.4699 0,0 z m 265.81737,-1.65035 c -2.16959,-13.85822 12.41401,1.23638 0,0 z m -9.41514,-1.36919 c 0.57834,-8.26807 5.17127,0.86214 0,0 z m -257,-17.24489 c 2.56448,-7.08324 3.75406,5.24019 0,0 z m 8,-5 c 1.44555,-4.9712 1.92184,3.56948 0,0 z m 83,-16 c 2.20038,-4.48834 2.20038,4.48834 0,0 z m 94,-12.21592 c -0.0919,-10.7306 6.48998,-3.56797 0,0 z m -180.33136,-8.03408 c 2.17244,-12.97788 1.0456,9.35474 0,0 z m 1.76781,-14.90646 c -5.84275,-11.76444 16.29471,-36.62318 7.10443,-11.27592 -0.29573,2.16561 -6.44937,26.44505 -7.10443,11.27592 z m 201.56355,-1.28452 c 2.73705,-8.44982 4.34682,7.24392 0,0 z m 103,-23.61804 c 2.74815,-2.37931 0.68952,4.42284 0,0 z M 234.7296,614.25505 c -0.72834,-7.29329 5.85551,0.35737 0,0 z m 4.65136,-10.13096 c -5.75503,-11.45909 7.60957,1.37552 0,0 z m 4.33333,-8.33333 c 2.25959,-7.50779 2.25959,7.50779 0,0 z m 13.5,-24 c 1.3163,-3.41573 1.82618,4.80506 0,0 z m 192,-10.99057 c -16.97816,-3.67723 0.68029,-16.02929 -9.28209,-23.87142 6.50746,-13.21521 39.47999,-2.65161 20.08949,10.41059 20.71595,-0.68991 -3.32094,18.31349 -10.8074,13.46083 z m 8.3,-4.20943 c -3.42983,-11.3796 -11.15377,7.44974 0,0 z m -205.3,1.2 c -5.62382,-8.29351 7.63759,5.83096 0,0 z m -10.34211,-6 c 0.85158,-4.63604 0.85158,4.63604 0,0 z m 181.04355,-13.25525 c -4.3989,-8.85302 6.40885,3.12193 0,0 z m 57.94856,-0.69475 c 1.20549,-5.1211 2.35686,3.14143 0,0 z m 15.77308,-16.97308 c -9.4962,-23.37263 30.29373,4.54224 2.63782,1.73815 -0.87928,-0.57938 -1.75855,-1.15877 -2.63782,-1.73815 z m -95.21915,-3.67303 c -13.99552,-27.90885 27.67702,3.26045 0,0 z M 300.71429,505.29076 c -12.64854,-1.03499 -3.53333,-9.10327 0,0 z m -59.5,-3.5 c 2.84347,-4.56058 3.47349,5.49011 0,0 z m 5,-4 c 2.0919,-4.38537 2.30615,5.24262 0,0 z m 36,-3.27761 c -18.97412,-3.17005 -11.48902,-10.36669 2.42934,-1.70901 6.3875,1.79307 2.87262,9.80884 -2.42934,1.70901 z m -8.44254,-11.82975 c 6.23557,-5.84042 -1.50758,6.54121 0,0 z m 0.94254,-8.39264 c 2.24871,-5.97229 2.24871,5.97229 0,0 z m 15.65173,-7.11963 c -2.92882,-12.25015 10.25214,5.62934 0,0 z m 14.84827,-4.84937 c -11.55484,-9.98605 22.73117,2.72915 8.94372,-12.56028 19.70408,11.94117 7.53676,20.5677 -8.94372,12.56028 z m 23.90714,-21.68125 c -1.04896,-15.14053 30.98969,-21.46805 8.01662,-6.89075 -1.46958,2.54493 -3.71435,8.26346 -8.01662,6.89075 z m -51.40714,-14.84975 c 2.25959,-7.50779 2.25959,7.50779 0,0 z m -23.42465,0.12191 c -7.84403,-19.49713 17.07179,-8.53706 0,0 z m 134.42465,-4.70856 c -0.85116,-6.1097 7.69486,-1.85343 0,0 z m -28.66667,-6.08002 c 2.63081,-2.47326 0.64575,2.71076 0,0 z m 69.66667,-3.33333 c 11.15621,-12.18186 19.5115,-11.68076 2.90801,-0.30053 1.27229,2.5231 -5.51413,2.99114 -2.90801,0.30053 z m -62.16281,-2.3267 c 10.27389,-3.52447 36.7285,-33.98174 33.37907,-23.79194 -8.60754,10.81072 -20.07042,19.67521 -33.37907,23.79194 z m -84.58719,-8.44157 c -28.07702,-9.35016 19.75639,-12.88893 0,0 z m 120.75,-3.19655 c 11.98108,-12.4813 33.71866,-40.83668 13.74399,-43.96128 -2.04894,-11.14824 -21.96812,1.49332 -13.33976,-10.9196 -7.39383,-9.52502 22.38586,-5.93408 18.56261,-21.04073 17.87909,-23.11522 19.31934,28.76317 9.31766,38.80097 -8.73412,12.33671 -15.97114,28.06985 -28.2845,37.12064 z m 27.45729,-80.96608 c 0.66716,-7.65902 -3.77092,4.17962 0,0 z m -168.95729,76.9309 c 1.9316,-4.8321 1.22717,3.31901 0,0 z m 39,0 c 2.84347,-4.56058 3.47349,5.49011 0,0 z m -10.16667,-0.66667 c 2.63081,-2.47326 0.64575,2.71076 0,0 z m 171.66667,-6.14316 c 4.28476,-10.60471 6.99327,0.93691 0,0 z m -190.62,-26.64228 c -1.15523,-9.73473 6.0328,5.03286 0,0 z m 104.20295,-28.41368 c -3.56806,-5.9111 4.17852,1.17684 0,0 z m 14.76213,-7.67734 c 1.14917,-6.83651 4.01264,5.72255 0,0 z m 26.30165,-6.20687 c -7.35175,-9.78975 4.91272,-2.02417 0,0 z m 74.97054,-10 c -10.76208,-19.78381 19.26793,-9.75002 0,0 z m -149.8881,1.14583 c -7.39428,-6.16355 5.23223,-1.53642 0,0 z m 72.27083,-0.45485 c 2.74815,-2.37931 0.68952,4.42284 0,0 z m 21.58534,-6.6721 c -5.47276,-10.33991 7.52616,-5.6711 0,0 z m -26.58534,-20.70986 c 0.50876,-6.48208 3.00384,3.51921 0,0 z m -41.59549,-0.71353 c 1.15034,-2.96112 2.61956,7.61052 0,0 z m 88.84549,-8.56395 c -4.37554,-11.68514 13.03283,-0.0112 0,0 z m -42.25,-28.28154 c 2.25959,-7.50779 2.25959,7.50779 0,0 z"
         id="path3497"
         inkscape:connector-curvature="0" />
      <path
         style="fill:#716050"
         d="m 284.52741,765.95438 c -34.38269,-15.9523 -21.09809,-64.65045 -50.45483,-85.29602 -26.70937,-36.61006 -25.94909,-84.90917 -22.22041,-127.84565 -0.0567,-23.35986 26.83343,-47.99861 38.88698,-16.46543 20.96364,26.19896 44.71573,51.65694 73.52141,69.18235 13.54032,9.48872 49.05459,15.41009 50.22096,23.78543 -22.43272,26.26762 -28.84023,-16.22603 -52.37203,-20.03124 -28.80238,-10.29573 -43.62885,-36.39973 -64.5332,-55.93096 -10.68382,-10.9066 -35.71568,-43.79551 -38.63746,-10.84998 -3.40357,35.24506 -5.0199,73.1114 8.0455,106.64156 13.42372,33.31152 31.19219,64.6458 58.45436,88.64178 12.66606,13.86841 36.55361,22.26504 51.28813,24.50343 -17.43703,0.41296 -34.93606,0.99899 -52.19941,3.66473 z m 9.86999,-5.35112 c -2.86764,1.74058 4.34116,3.92083 0,0 z m 11.31461,0.99652 c -3.74995,-5.27365 -8.30631,5.62004 0,0 z m -15.21467,-1.64317 c -5.2021,-4.67517 -2.63118,7.01157 0,0 z m 7.21695,-0.60683 c -0.52306,-4.33458 -3.17471,2.38316 0,0 z m -15.5,-3.55902 c -1.3163,-3.41573 -1.82618,4.80506 0,0 z m 11,-1 c -2.0919,-4.38537 -2.30615,5.24262 0,0 z m 67.2267,5.59092 c 1.40309,-9.15516 5.44338,7.39361 0,0 z m 25.76043,-0.84092 c -8.44032,-4.16167 46.91291,-15.12282 17.09627,-4.43256 -5.23862,2.76512 -11.09518,4.76642 -17.09627,4.43256 z m -164.67463,-8.43311 c 3.83685,-4.18778 1.74453,2.806 0,0 z m 3.9375,-0.97917 c 3.30619,-3.87517 2.50984,2.65082 0,0 z m 6.75,-2.33772 c 9.57384,-11.59014 3.27033,4.32831 0,0 z m 194.55533,-7.69346 c 4.21874,-9.15955 14.27227,-4.3748 0,0 z m 12.64498,-10.69402 c 9.47234,-3.24368 34.10293,-46.10953 20.26102,-17.94898 -5.71905,7.01238 -12.2936,13.52242 -20.26102,17.94898 z M 234.77795,718.36746 c -6.48531,-17.0571 10.67041,-17.91791 0,0 z m 30.43634,-6.5767 c 1.3163,-3.41573 1.82618,4.80506 0,0 z m 210.9737,-24.26754 c 0.97824,-11.96153 6.29593,-3.87758 0.67012,0.80009 l -0.67012,-0.80009 z m -2.4737,-4.67344 c 1.49341,-9.17122 3.05078,6.81815 0,0 z m 4,-7 c -0.007,-6.26357 3.83252,3.45353 0,0 z m 10.66096,-9.10645 c -10.39237,-12.66985 7.35697,2.8494 0,0 z m 2.33904,-3.97098 c -0.87453,-17.21539 16.44808,-14.1847 0,0 z m -257.41705,-6.84738 c -3.56806,-5.9111 4.17852,1.17684 0,0 z M 496.27006,645.881 c -2.36513,-9.97804 7.06432,1.58419 0,0 z m -125.55577,-4.09024 0.73366,-0.18491 -0.73366,0.18491 z m 128.17735,-3.51011 c 1.37851,-16.90513 -5.07225,-29.86475 -13.60982,-47.8818 2.44403,-11.4905 25.21095,-13.36724 14.33523,1.86492 -1.12762,15.27915 12.18184,32.70741 -0.72541,46.01688 z m -320.62722,-3.13311 c 2.96567,-17.16907 1.75499,11.56446 0,0 z m 4.50628,-11.78881 c -6.06758,-9.18566 6.85925,3.29504 0,0 z m 290.94359,-31.56797 c 2.20038,-4.48834 2.20038,4.48834 0,0 z m -42.05141,-10.56194 c -33.9658,-21.541 -70.30537,-39.53816 -101.91705,-64.64028 -5.59993,-35.52173 35.80897,-53.15262 58.6847,-71.98683 22.38077,-21.76749 52.97462,-38.7088 84.28861,-25.50093 30.64849,7.55567 63.78196,27.19705 69.35989,60.91124 6.64649,8.38195 1.35154,40.1799 -2.63706,14.45971 -4.72499,-33.87445 -47.09547,-38.20661 -69.78638,-19.4579 -30.9337,0.82002 -69.2078,-30.14402 -92.44297,7.39194 -20.83532,29.31811 1.5225,67.21538 30.39891,80.68088 8.33312,5.44712 18.39378,9.51904 24.05135,18.14217 z m -76.94859,-55.83107 c -2.41425,-4.63136 -3.77746,3.23375 0,0 z m -3.34533,-10.67291 c -7.06144,-1.70499 -0.39966,14.82235 0,0 z m -9.29084,-0.42834 c -3.29398,-4.72191 -1.06673,5.33893 0,0 z m 3.44867,-4.44324 c -3.11245,-4.43731 -1.98591,8.76795 0,0 z m 113.84838,-40.61741 c 12.79541,-27.0293 -35.47834,-2.64506 0,0 z m -8.68094,-5.96926 c 0.37126,-7.64305 6.6384,4.67076 0,0 z m 33.50622,-2.72583 c 9.2711,-11.24234 49.24494,-3.81057 17.0168,-14.13467 -15.79893,-5.2401 -48.595,-4.48649 -27.87497,15.79981 5.24395,-5.00056 9.57415,6.63559 10.85817,-1.66514 z m 26.11801,-4.47917 c -4.67925,0.51848 4.34934,4.82702 0,0 z m -84.10417,-1.27083 c -2.36552,-5.30284 -2.382,3.98245 0,0 z m 21.68333,-9.21667 c -4.84364,-1.13086 5.29207,6.01853 0,0 z m 20.2609,-1.69309 c 2.60464,-9.16041 -6.8223,1.9506 0,0 z m 45.5559,123.27477 c 9.7781,-9.41267 15.93563,-45.54054 27.76185,-38.21133 -1.80092,16.45821 -13.53397,30.51894 -27.76185,38.21133 z m -294.92118,-3.94834 c 1.45397,-3.43071 0.0801,5.48099 0,0 z m 228.21638,-4.50302 c -11.76279,-3.9523 2.17893,-19.5367 -5.43285,-23.75287 25.4489,-19.77147 36.59713,36.01049 5.43285,23.75287 z m 11.8003,-0.98174 c -2.69853,-18.76016 -21.21647,9.72451 0,0 z m -240.09563,-2.43191 c 2.24871,-5.97229 2.24871,5.97229 0,0 z m 7.36612,-26.9883 c -0.31411,-8.37594 6.29218,1.56806 0,0 z m 271.18857,-6.7617 c -12.50312,-38.41892 35.64691,7.82212 0,0 z m 3.11198,-8.41667 c -2.63081,-2.47326 -0.64575,2.71076 0,0 z m -100.49236,2.35222 c -8.93477,-38.78811 35.66131,10.47503 0,0 z m -163.17431,-1.68555 c 2.20038,-4.48834 2.20038,4.48834 0,0 z m -6.60104,-7.54657 c 0.81083,-9.62384 3.12217,7.40538 0,0 z m 106.5861,-29.40727 c 10.32263,-7.58425 -3.76515,5.9008 0,0 z m -46.30917,-10.44839 c 0.88263,-8.82329 5.55981,6.05157 0,0 z m 15.69771,-4.50255 c -11.48923,-12.05341 14.86755,7.94623 0,0 z m 12.3785,-0.85217 c -13.74752,-12.91366 8.46772,-3.38867 0,0 z m 11.2479,-22.09383 c 5.78335,-15.49747 17.64679,-8.04456 0.5887,-0.40071 l -0.5887,0.40071 z m -75.32411,-14.55145 c -0.88746,-10.96667 4.4314,7.59279 0,0 z m 92.82411,-1.59777 c 2.22569,-5.26648 0.67038,3.18291 0,0 z m -90.5,-4.94098 c -0.007,-6.26357 3.83252,3.45353 0,0 z m 115.5,-11.60859 c 14.9642,-12.0159 -4.73798,6.92849 0,0 z m 8.4331,-5.8501 c 5.58872,-11.39793 10.00001,3.60183 0,0 z m -98.9331,-3.10033 c -0.45858,-8.9834 0.15892,7.30205 0,0 z m -6,-3.03814 c 3.20572,-8.75625 3.6821,8.01156 0,0 z m 116,-1.83942 c 1.21323,-4.71687 3.88253,0.2371 0,0 z m 26.53743,-33.62244 c 2.76264,-10.65659 -26.85204,-20.03051 -3.12152,-21.28395 12.01642,-22.18771 31.59218,0.28241 18.12532,14.21458 -10.91807,-6.26749 -6.04958,0.70386 -15.0038,7.06937 z m -145.53743,0 c 0.75945,-2.87498 0.75939,2.87502 0,0 z m 160.01531,-43.25 c 1.51368,-11.87462 1.77691,6.5012 0,0 z m 62.5157,-16.69983 c 1.32043,-8.73787 6.42471,2.96693 0,0 z m -37.30184,-30.23767 c 2.78147,-6.77255 2.80076,5.07671 0,0 z"
         id="path3495"
         inkscape:connector-curvature="0" />
      <path
         style="fill:#624b35"
         d="m 289.94346,764.60326 c 2.8578,-8.12851 1.99042,4.63995 0,0 z m 17.52097,-4.02124 c -17.94305,-15.34107 -57.34415,5.19064 -45.59094,-33.47479 17.00484,-14.01161 25.49494,26.22436 45.60537,26.36814 6.23779,3.20279 15.13061,10.65936 -0.0144,7.10665 z m 148.74986,-46.79126 c 2.22569,-5.26648 0.67038,3.18291 0,0 z m 7.3858,-11.75 c 10.22257,-18.89372 -3.73957,15.04377 0,0 z m -213.33322,0.63012 c -11.65337,-14.54329 7.98786,5.23204 0,0 z m -8.448,-13.10505 c -15.76531,-29.46231 -34.1224,-61.28349 -29.26319,-96.03928 -4.87969,-13.97432 3.57058,-47.11161 3.28572,-13.75163 -2.18649,32.67351 4.5724,64.58565 21.35984,92.68092 2.18931,5.49527 3.97899,11.2059 4.61763,17.10999 z m 249.89542,-28.21605 c 0.97951,-9.68313 3.73391,6.72642 0,0 z m 6,-16.55902 0.73366,-0.18491 -0.73366,0.18491 z m -140.28944,-4.7285 C 343.38909,605.7591 295.58207,607.45388 280.06508,574.37217 262.95646,559.67147 241.4952,526.13286 223.9307,526.1523 c -9.52742,9.32451 15.22848,-23.84149 17.38594,-1.85248 16.96375,29.07231 44.72341,50.73213 68.90058,73.25139 17.52634,14.92874 50.70393,17.48421 62.88732,32.41091 -5.38533,2.45992 -15.25567,2.18134 -15.67969,10.10014 z m 141.89643,-2.85329 c -6.45242,-16.00426 11.47895,-9.7058 0,0 z m -4.60699,-12.41821 0.73366,-0.18491 -0.73366,0.18491 z m 4.60478,-1.58753 c -4.8122,-10.36795 6.53113,0.0907 0,0 z m 1.89522,-7.41247 c -14.26726,-4.81765 1.84028,-7.90728 0,0 z m -0.5,-9.5 c 2.24871,-5.97229 2.24871,5.97229 0,0 z M 490.4727,594.27421 c 4.33615,-5.3751 1.87129,6.85548 0,0 z m -9.28945,-3.53367 c -2.06165,-5.98399 6.8813,4.27272 0,0 z m 11.53104,-1.48974 c 0.13232,-20.59352 18.41561,2.89588 0,0 z M 411.4152,566.79826 c -18.90761,-7.62163 10.19101,2.35039 0,0 z m 103.29909,-0.6136 c 11.37001,-5.78597 13.60518,-38.46042 25.32437,-32.75753 -3.91813,13.54195 -12.72397,26.04655 -25.32437,32.75753 z M 388.37083,554.50478 c -17.54043,-18.23757 -58.7099,-20.96026 -57.29211,-52.25378 16.51557,-33.61064 50.84992,-53.93012 81.61343,-73.20132 23.21151,-19.7217 58.48995,-15.54974 82.11832,1.25295 18.03316,22.79417 -34.61737,-4.81323 -36.30502,16.95625 -9.36681,-9.29773 -17.7413,-20.69232 -11.92626,0.46377 -0.15666,14.03021 -21.59514,-5.82229 -7.58906,13.79699 17.12242,17.2062 -21.05545,-9.40872 -30.25096,-0.32573 -31.56661,5.06828 -56.5273,47.40719 -34.21856,74.49563 4.30607,6.50347 9.86153,12.0958 13.85022,18.81524 z m -29.6222,-25.46402 c -10.85324,-7.55951 -3.11096,-54.80199 -20.68412,-28.47857 -8.90973,15.4455 10.58972,22.40741 20.68412,28.47857 z m -15.03434,-14.25 c 2.20038,-4.48834 2.20038,4.48834 0,0 z m 3.68333,-0.65 c -5.96732,-6.39116 5.93768,-2.07472 0,0 z m -7.35,-13.01667 c 2.63081,-2.47326 0.64575,2.71076 0,0 z m 2.66667,-1.33333 c 2.20038,-4.48834 2.20038,4.48834 0,0 z m 84.5,-44.58333 c -3.92713,-8.79267 -4.45995,6.70332 0,0 z m -24.67668,-1.74954 c -6.33192,-9.32324 -7.44114,8.55615 0,0 z m 10.27043,-0.7173 c 1.76419,-8.256 -12.58005,9.13504 0,0 z m -7.02801,-2.98501 c 7.60869,-8.43554 -8.3816,3.92882 0,0 z m 33.2836,-8.49685 c -6.95281,-7.6875 -0.67043,7.58621 0,0 z m 63.07582,-5.58907 c -4.15203,-2.973 -0.28115,4.7649 0,0 z m -40.06353,-2.3789 c -1.28651,-5.38506 -1.83807,5.9513 0,0 z m -19.86483,118.49647 c 4.82485,-9.74177 -4.15539,-25.70533 16.10041,-16.94541 18.37551,15.48978 -0.96014,22.95789 -16.10041,16.94541 z M 227.04762,527.12409 c 2.96999,-2.55865 0.7495,2.74175 0,0 z m 269.70563,-6.52189 c -5.15033,-25.62734 24.35813,8.99613 0,0 z m 4.11104,-7.31144 c -2.48566,-6.00674 -2.54259,5.9194 0,0 z m 4.85,0 c -2.51536,-6.07596 -2.43038,6.01042 0,0 z m -105.35398,2.04775 c -9.33868,-39.21859 34.46517,10.69369 0,0 z m 9.35398,-7.60677 c -3.93272,-5.19799 -1.73771,6.104 0,0 z m -5,0.059 c -2.20038,-4.48834 -2.20038,4.48834 0,0 z m -174,-2 c 0.75945,-2.87498 0.75939,2.87502 0,0 z m 313,-0.94098 c 0.0805,-7.87096 2.41109,4.49825 0,0 z m -1.50555,-6.06515 c -4.99528,-10.33554 8.55343,8.11972 0,0 z m -2.08521,-7.36978 c -1.15257,-9.10058 6.2052,4.8228 0,0 z m -1.40924,-7.62409 c -3.37213,-5.63176 7.07541,3.46181 0,0 z m -88.49716,-9.99105 c -2.12091,-11.90432 5.62646,5.67683 0,0 z m 82.8619,-1.89593 c -11.0752,-4.80064 -31.94642,-45.37664 -8.6929,-24.56036 1.2773,5.70956 19.14678,22.19996 8.6929,24.56036 z m -1.69807,-6.77969 c -2.96999,-2.55865 -0.7495,2.74175 0,0 z m -3.66667,-9.33333 c -2.20038,-4.48834 -2.20038,4.48834 0,0 z m -57.4017,16.15905 c 1.79453,-13.42007 15.19724,-6.91725 0,0 z m -8.58592,-1.89 c 4.80102,-10.11308 12.55465,1.99087 0,0 z m 57.80012,-2.95216 c 3.83685,-4.18778 1.74453,2.806 0,0 z m -17.51482,-5.83495 c 2.53168,-15.45277 3.42361,10.03621 0,0 z m 8.36899,2.85139 c -2.2544,-8.87437 9.41187,3.4148 0,0 z m -16.47978,-2.08333 c 3.3884,-7.54092 4.77792,4.44723 0,0 z m -161.18689,-28.25 c 0.75945,-2.87498 0.75939,2.87502 0,0 z m 51.5,-35 c 2.30615,-5.24262 2.0919,4.38537 0,0 z m 49.1911,-51.07325 c -16.38604,6.13553 -25.79285,-10.24929 -7.88951,-15.97394 7.51521,-5.2229 16.92939,13.12621 7.88951,15.97394 z m -31.35777,-5.59342 c 2.63081,-2.47326 0.64575,2.71076 0,0 z m 94.66667,-44.33333 c 1.44555,-4.9712 1.92184,3.56948 0,0 z"
         id="path3493"
         inkscape:connector-curvature="0" />
      <path
         style="fill:#2a1f16"
         d="m 276.71429,746.79076 c 1.44555,-4.9712 1.92184,3.56948 0,0 z m -10,-0.94098 c -0.007,-6.26357 3.83252,3.45353 0,0 z m 19.72713,-1.05902 c -9.81668,-3.22859 -37.84877,-11.00864 -19.41771,-21.5222 6.25036,4.42623 20.39092,16.64844 19.41771,21.5222 z m 66.42192,-118.9699 c -24.66168,-12.18886 30.40385,0.48764 1.41598,1.86283 l -1.41598,-1.86283 z m -26.14905,-19.0301 c -1.34263,-4.11872 5.84872,6.07003 0,0 z m 196.80997,-50.5669 c 5.29559,-11.68028 22.55364,-33.55997 8.56566,-8.35842 -2.1139,2.1888 -3.91477,10.60832 -8.56566,8.35842 z M 382.93852,548.3487 c -33.32534,-6.76271 -31.36499,-51.34288 -25.21065,-76.44309 8.21932,-16.54658 52.95547,-41.957 55.28377,-37.13851 -9.11871,8.73569 -32.919,18.37514 -19.15983,29.00956 -18.19158,14.03232 -35.38659,34.6875 -27.25718,59.49218 2.91596,9.68284 8.70652,18.46785 16.34389,25.07986 z m 70.17443,1.72975 c -24.67788,-16.52717 28.19482,-12.05594 1.38429,0.60724 l -1.38429,-0.60724 z m 44.90303,-28.78893 c -13.04364,-34.12853 31.94638,3.83559 0,0 z m 8.69831,-7.65714 c -9.74561,-12.01817 -12.64849,12.61019 0,0 z m -106.34501,1.32964 c -7.76044,-36.65711 31.3637,10.34074 0,0 z m 6.01168,-1.83793 c -2.63081,-2.47326 -0.64575,2.71076 0,0 z m 3.33333,-5.33557 c -11.1164,-10.47696 -7.71449,11.10638 0,0 z m -82.96937,4.00224 c -0.47822,-11.88892 3.92923,3.04009 0,0 z m 3.50256,-8 c 0.77454,-9.01245 9.97163,-7.33676 0,0 z m 8.46681,-12 c 0.75945,-2.87498 0.75939,2.87502 0,0 z m 87.60699,-43.58179 c 3.23186,-9.41222 5.43368,9.97491 0,0 z m -7.60699,-5.47723 c 2.74815,-2.37931 0.68952,4.42284 0,0 z m 8,-1 c 2.74815,-2.37931 0.68952,4.42284 0,0 z m 4.69392,-15.23487 c -19.80959,-4.89757 24.63512,-10.30912 3.19313,-0.58233 2.62321,4.22378 -2.12044,7.36763 -3.19313,0.58233 z m 30.82569,0.32562 c 1.39147,-15.33198 13.61884,6.92118 0,0 z m -7.26961,-1.25222 c -3.54202,-11.59472 8.64843,6.77491 0,0 z m 3.75,-7.22049 c 0.7376,-8.27327 4.21006,5.76114 0,0 z m -12,-0.5 c -0.007,-6.26357 3.83252,3.45353 0,0 z m -14.5,-76.05902 c 2.84347,-4.56058 3.47349,5.49011 0,0 z m -7.5,-2.51623 c 2.40977,-10.27683 9.73407,5.31075 0,0 z"
         id="path3491"
         inkscape:connector-curvature="0" />
    </g>
  </g>
</svg>
