<?xml version="1.0" encoding="UTF-8" standalone="no"?>
<!-- Generator: Adobe Illustrator 12.0.0, SVG Export Plug-In  -->

<svg
   xmlns:dc="http://purl.org/dc/elements/1.1/"
   xmlns:cc="http://creativecommons.org/ns#"
   xmlns:rdf="http://www.w3.org/1999/02/22-rdf-syntax-ns#"
   xmlns:svg="http://www.w3.org/2000/svg"
   xmlns="http://www.w3.org/2000/svg"
   xmlns:xlink="http://www.w3.org/1999/xlink"
   xmlns:sodipodi="http://sodipodi.sourceforge.net/DTD/sodipodi-0.dtd"
   xmlns:inkscape="http://www.inkscape.org/namespaces/inkscape"
   id="svg2"
   sodipodi:docname="mute.svg"
   sodipodi:modified="true"
   xml:space="preserve"
   sodipodi:version="0.32"
   version="1.1"
   enable-background="new 6.367 14.687 469 600"
   inkscape:output_extension="org.inkscape.output.svg.inkscape"
   inkscape:version="0.48.4 r9939"
   viewBox="6.367 14.687 469 600"
   width="100%"
   height="100%"><sodipodi:namedview
     id="base"
     bordercolor="#666666"
     inkscape:pageshadow="2"
     guidetolerance="10.0"
     pagecolor="#ffffff"
     gridtolerance="10.0"
     inkscape:zoom="0.63"
     objecttolerance="10.0"
     borderopacity="1.0"
     inkscape:current-layer="svg2"
     inkscape:cx="273.75513"
     inkscape:cy="436.53696"
     inkscape:window-y="24"
     inkscape:window-x="65"
     inkscape:window-height="876"
     inkscape:pageopacity="0.0"
     inkscape:window-width="1535"
     showgrid="false"
     inkscape:window-maximized="1" /><defs
     id="defs4"><filter
       id="filter5505"
       inkscape:collect="always"><feGaussianBlur
         id="feGaussianBlur5507"
         stdDeviation="12.99085"
         inkscape:collect="always" /></filter><radialGradient
       id="radialGradient5590"
       gradientUnits="userSpaceOnUse"
       cy="168.18"
       cx="148.49"
       r="148.87"
       inkscape:collect="always"><stop
         id="stop49"
         style="stop-color:#FFFFFF"
         offset="0" /><stop
         id="stop51"
         style="stop-color:#FBEEB7"
         offset="1" /></radialGradient><radialGradient
       inkscape:collect="always"
       xlink:href="#radialGradient5590"
       id="radialGradient3128"
       gradientUnits="userSpaceOnUse"
       cx="148.49"
       cy="168.18"
       r="148.87"
       gradientTransform="matrix(0.86621,0,0,0.86621,32.166,40.851)" /></defs><path
     id="Contour_1_"
     d="m413.27 172.79c-25.254-35.945-61.094-63.439-102.06-79.132-15.561-5.961-31.806-9.991-48.303-12.148 0.574-1.651 1.176-3.294 1.835-4.919l19.657-30.144c3.492-3.473 7.289-6.627 11.424-9.332 5.373-3.514 0.367-12.176-5.047-8.635-18.289 11.96-31.365 31.161-38.08 51.931-4.298-0.359-8.605-0.591-12.917-0.699 0.594-6.167 1.319-12.204 2.502-18.321 2.572-13.299 6.58-26.373 12.127-38.734 2.617-5.832-5.998-10.922-8.635-5.047-5.932 13.217-10.262 26.925-13.135 41.122-1.372 6.78-2.473 13.655-2.852 20.558-0.007 0.134-0.017 0.267-0.025 0.401-4.551 0.09-9.1 0.317-13.637 0.684-12.94-22.4-27.701-43.896-45.414-62.722-4.427-4.705-11.485 2.38-7.071 7.071 16.107 17.119 29.632 36.531 41.584 56.797-9.565 1.244-19.048 3.097-28.363 5.564-42.475 11.251-81.003 35.939-109.58 69.214-59.634 69.44-69.037 171.45-24.065 251 21.501 38.031 54.79 69.09 93.904 88.424 7.562 3.737 15.318 7.001 23.22 9.798-1.931 3.882-3.07 8.368-4.13 12.392-2.025 7.684-3.333 15.565-4.396 23.434-1.001 7.416-1.74 14.866-1.995 22.348-0.175 5.163-0.353 10.892 1.199 15.885 1.745 5.617 9.974 3.896 9.887-1.17l58.226 1.829c-0.326 4.117 6.372 7 9.591 2.689 2.722-3.645 11.236-3.854 15.284-5.198 6.499-2.158 11.021-7.746 14.995-13.066 7.987-10.692 11.771-23.935 9.837-37.176 6.499 0.336 12.937 0.185 19.144-2.91 5.928-2.955 9.15-9.401 8.807-15.517 76.074-22.783 135.93-87.797 151.99-166.31 2.949-14.411 4.351-29.149 4.397-43.852-0.15-45.04-13.98-89.22-39.89-126.1z"
     display="none"
     stroke="#929699"
     stroke-width="30"
     fill="none" /><g
     id="g7"
     transform="matrix(0.86621,0,0,0.86621,32.166,40.851)"><g
       id="g9"><path
         inkscape:connector-curvature="0"
         d="m 234.91,99.28 c -2.33,-7.387 0,-15.83 0,-23.217 2.34,-18.996 7.01,-37.992 15.18,-55.932"
         style="fill:none"
         id="path11" /><path
         inkscape:connector-curvature="0"
         d="m 239.73,97.951 c -1.51,-5.599 -0.6,-11.333 -0.07,-17.015 0.61,-6.597 1.36,-13.025 2.62,-19.548 2.58,-13.299 6.58,-26.373 12.13,-38.734 2.62,-5.832 -6,-10.922 -8.63,-5.047 -5.94,13.217 -10.27,26.925 -13.14,41.122 -1.37,6.78 -2.47,13.655 -2.85,20.558 -0.4,7.264 -1.64,14.147 0.3,21.323 1.68,6.22 11.33,3.58 9.64,-2.659 z"
         id="path13" /></g></g><g
     id="g15"
     transform="matrix(0.86621,0,0,0.86621,32.166,40.851)"><g
       id="g17"><path
         inkscape:connector-curvature="0"
         d="M 254.76,91.893 C 259.44,69.731 273.45,45.458 293.3,32.795"
         style="fill:none"
         id="path19" /><path
         inkscape:connector-curvature="0"
         d="m 259.58,93.222 c 4.82,-21.96 17.14,-43.618 36.24,-56.11 5.38,-3.514 0.37,-12.176 -5.04,-8.635 -21.24,13.891 -35.46,37.546 -40.84,62.086 -1.38,6.286 8.26,8.958 9.64,2.659 z"
         id="path21" /></g></g><g
     id="g23"
     transform="matrix(0.86621,0,0,0.86621,32.166,40.851)"><g
       id="g25"><path
         inkscape:connector-curvature="0"
         d="M 220.9,99.28 C 206.88,72.897 188.2,43.348 167.18,21.185"
         style="fill:none"
         id="path27" /><path
         inkscape:connector-curvature="0"
         d="m 225.21,96.757 c -15.05,-28.235 -32.5,-55.728 -54.5,-79.107 -4.42,-4.705 -11.48,2.38 -7.07,7.071 21.42,22.767 38.28,49.59 52.94,77.079 3.04,5.7 11.67,0.64 8.63,-5.043 z"
         id="path29" /></g></g><g
     id="g33"
     transform="matrix(0.86621,0,0,0.86621,32.166,40.851)"><radialGradient
       r="147.07001"
       cy="235.89"
       cx="190.53"
       gradientUnits="userSpaceOnUse"
       id="XMLID_1_"><stop
         offset="0"
         style="stop-color:#FFFFFF"
         id="stop36" /><stop
         offset="1"
         style="stop-color:#FBEEB7"
         id="stop38" /></radialGradient><circle
       d="m 448.14999,298.89999 c 0,118.3491 -95.94089,214.29 -214.28999,214.29 -118.34909,0 -214.289993,-95.9409 -214.289993,-214.29 0,-118.34909 95.940903,-214.289989 214.289993,-214.289989 118.3491,0 214.28999,95.940899 214.28999,214.289989 z"
       sodipodi:cx="233.86"
       r="214.28999"
       cx="233.86"
       cy="298.89999"
       sodipodi:cy="298.89999"
       style="fill:url(#XMLID_1_)"
       sodipodi:ry="214.28999"
       sodipodi:rx="214.28999"
       id="circle40" /><g
       id="g42"><circle
         d="m 448.14999,298.89999 c 0,118.3491 -95.94089,214.29 -214.28999,214.29 -118.34909,0 -214.289993,-95.9409 -214.289993,-214.29 0,-118.34909 95.940903,-214.289989 214.289993,-214.289989 118.3491,0 214.28999,95.940899 214.28999,214.289989 z"
         sodipodi:cx="233.86"
         r="214.28999"
         cx="233.86"
         sodipodi:cy="298.89999"
         cy="298.89999"
         style="fill:none"
         sodipodi:ry="214.28999"
         sodipodi:rx="214.28999"
         id="circle44" /><path
         inkscape:connector-curvature="0"
         d="m 443.16,298.9 c -0.15,45.2 -14.73,88.96 -41.6,125.29 -26.1,35.3 -63.81,61.57 -105.62,74.64 -43.7,13.67 -91.3,12.13 -134.27,-3.41 C 120.46,480.52 84.599,451.88 60.12,415.64 34.73,378.06 22.674,332.9 24.856,287.7 c 2.153,-44.61 19.372,-87.98 47.808,-122.33 28.136,-34 66.776,-58.31 109.46,-69.325 44.12,-11.387 91.97,-7.634 133.85,10.235 76.56,32.66 126.92,109.57 127.19,192.62 0.02,6.44 10.02,6.44 10,0 -0.15,-45.05 -13.98,-89.23 -39.89,-126.11 -25.25,-35.95 -61.09,-63.44 -102.06,-79.135 -42.61,-16.323 -90.34,-18.23 -134.35,-6.573 -42.47,11.251 -81,35.938 -109.58,69.218 -59.654,69.44 -69.057,171.45 -24.085,251 21.501,38.03 54.79,69.09 93.905,88.42 40.96,20.25 87.56,26.66 132.58,19.53 88.69,-14.06 161.15,-84.88 179.08,-172.5 2.95,-14.41 4.35,-29.15 4.4,-43.85 0.02,-6.45 -9.98,-6.45 -10,0 z"
         id="path46" /></g></g><path
     inkscape:connector-curvature="0"
     d="m 175.96552,183.49846 c 41.47414,-22.25293 76.00993,-17.05567 92.48524,-42.77345 4.62557,-13.87581 -30.58587,-8.98259 -46.61942,-9.5976 -38.68494,-1.48122 -76.46036,13.69478 -104.53422,40.06221 -28.203799,26.48004 -62.067413,101.88362 -47.725574,101.88362 14.341839,0 64.919844,-67.32184 106.396574,-89.57478 z"
     style="fill:url(#radialGradient3128)"
     id="path53" /><g
     id="g55"
     transform="matrix(0.86621,0,0,0.86621,32.166,40.851)"><ellipse
       d="m 293.30299,399.41 c 0,18.70368 -19.60679,33.866 -43.793,33.866 -24.1862,0 -43.79299,-15.16232 -43.79299,-33.866 0,-18.70367 19.60679,-33.866 43.79299,-33.866 24.18621,0 43.793,15.16233 43.793,33.866 z"
       sodipodi:cx="249.50999"
       cy="399.41"
       ry="33.866001"
       rx="43.792999"
       cx="249.50999"
       sodipodi:ry="33.866001"
       style="fill:#ffffff"
       sodipodi:cy="399.41"
       sodipodi:rx="43.792999"
       id="ellipse57" /><g
       id="g59"><ellipse
         d="m 293.30299,399.41 c 0,18.70368 -19.60679,33.866 -43.793,33.866 -24.1862,0 -43.79299,-15.16232 -43.79299,-33.866 0,-18.70367 19.60679,-33.866 43.79299,-33.866 24.18621,0 43.793,15.16233 43.793,33.866 z"
         sodipodi:cx="249.50999"
         cy="399.41"
         ry="33.866001"
         rx="43.792999"
         cx="249.50999"
         sodipodi:ry="33.866001"
         style="fill:none"
         sodipodi:cy="399.41"
         sodipodi:rx="43.792999"
         id="ellipse61" /><path
         inkscape:connector-curvature="0"
         d="m 288.3,399.41 c -0.44,19.48 -22.02,28.64 -38.79,28.87 -16.77,0.22 -40.9515,-16.84663 -41.3815,-35.99663 -0.45,-19.46 25.3115,-21.52337 41.3815,-21.74337 16.77,-0.23 38.36,9.72 38.79,28.87 0.15,6.44 10.15,6.45 10,0 -0.54,-24 -24.11,-37.31 -45.66,-38.78 -21.45,-1.47 -47.78,10.61 -51.5,33.84 -3.76,23.52 18.46,39.95 39.33,43.1 22.12,3.35 48.49,-6 56.34,-28.58 1.06,-3.04 1.42,-6.38 1.49,-9.58 0.15,-6.45 -9.85,-6.44 -10,0 z"
         id="path63"
         sodipodi:nodetypes="cccccccccccc" /></g></g><g
     id="g65"
     transform="matrix(0.86621,0,0,0.86621,32.166,40.851)"><circle
       d="m 206.88,249.34 c 0,28.05606 -22.74393,50.8 -50.8,50.8 -28.05606,0 -50.8,-22.74394 -50.8,-50.8 0,-28.05607 22.74394,-50.8 50.8,-50.8 28.05607,0 50.8,22.74393 50.8,50.8 z"
       sodipodi:cx="156.08"
       r="50.799999"
       cx="156.08"
       sodipodi:cy="249.34"
       cy="249.34"
       style="fill:#ffffff"
       sodipodi:ry="50.799999"
       sodipodi:rx="50.799999"
       id="circle67" /><g
       id="g69"><circle
         d="m 206.88,249.34 c 0,28.05606 -22.74393,50.8 -50.8,50.8 -28.05606,0 -50.8,-22.74394 -50.8,-50.8 0,-28.05607 22.74394,-50.8 50.8,-50.8 28.05607,0 50.8,22.74393 50.8,50.8 z"
         sodipodi:cx="156.08"
         r="50.799999"
         cx="156.08"
         sodipodi:cy="249.34"
         cy="249.34"
         style="fill:none"
         sodipodi:ry="50.799999"
         sodipodi:rx="50.799999"
         id="circle71" /><path
         inkscape:connector-curvature="0"
         d="m 201.88,249.34 c -0.31,22.88 -17.31,42.71 -40.26,45.51 -23.02,2.8 -44.26,-12.47 -50.04,-34.63 -5.8,-22.26 7.29,-45.82 28.52,-53.83 21.8,-8.23 46,1.94 56.8,22.13 3.41,6.38 4.89,13.64 4.98,20.82 0.09,6.45 10.09,6.46 10,0 -0.3,-22.48 -13.73,-43.08 -34.69,-51.62 -21.19,-8.64 -45.57,-3.21 -61.47,13.1 -16.068,16.48 -19.312,41.32 -10.23,62.03 9.05,20.64 31.24,33.12 53.38,32.22 29.59,-1.2 52.62,-26.6 53.01,-55.73 0.09,-6.45 -9.91,-6.44 -10,0 z"
         id="path73" /></g></g><g
     id="g75"
     transform="matrix(0.86621,0,0,0.86621,37.324731,24.977984)"><circle
       d="m 178.944,272.41 c 0,12.7379 -10.3261,23.064 -23.064,23.064 -12.73789,0 -23.06399,-10.3261 -23.06399,-23.064 0,-12.73789 10.3261,-23.064 23.06399,-23.064 12.7379,0 23.064,10.32611 23.064,23.064 z"
       sodipodi:cx="155.88"
       r="23.063999"
       cx="155.88"
       sodipodi:cy="272.41"
       cy="272.41"
       sodipodi:ry="23.063999"
       sodipodi:rx="23.063999"
       id="circle77" /><g
       id="g79"><circle
         d="m 178.944,272.41 c 0,12.7379 -10.3261,23.064 -23.064,23.064 -12.73789,0 -23.06399,-10.3261 -23.06399,-23.064 0,-12.73789 10.3261,-23.064 23.06399,-23.064 12.7379,0 23.064,10.32611 23.064,23.064 z"
         sodipodi:cx="155.88"
         r="23.063999"
         cx="155.88"
         sodipodi:cy="272.41"
         cy="272.41"
         style="fill:none"
         sodipodi:ry="23.063999"
         sodipodi:rx="23.063999"
         id="circle81" /><path
         inkscape:connector-curvature="0"
         d="m 173.95,272.41 c -0.29,10.07 -7.99,17.77 -18.07,18.06 -10.07,0.29 -17.78,-8.43 -18.06,-18.06 -0.29,-10.07 8.43,-17.79 18.06,-18.07 10.08,-0.29 17.79,8.43 18.07,18.07 0.19,6.43 10.19,6.45 10,0 -0.45,-15.6 -12.47,-27.61 -28.07,-28.07 -15.58,-0.45 -27.63,13.15 -28.06,28.07 -0.45,15.59 13.15,27.63 28.06,28.06 15.6,0.45 27.64,-13.14 28.07,-28.06 0.19,-6.45 -9.81,-6.44 -10,0 z"
         id="path83" /></g></g><g
     id="g85"
     transform="matrix(0.86621,0,0,0.86621,32.166,40.851)"><circle
       d="m 360.8,249.34 c 0,28.05606 -22.74394,50.8 -50.8,50.8 -28.05606,0 -50.8,-22.74394 -50.8,-50.8 0,-28.05607 22.74394,-50.8 50.8,-50.8 28.05606,0 50.8,22.74393 50.8,50.8 z"
       sodipodi:cx="310"
       r="50.799999"
       cx="310"
       sodipodi:cy="249.34"
       cy="249.34"
       style="fill:#ffffff"
       sodipodi:ry="50.799999"
       sodipodi:rx="50.799999"
       id="circle87" /><g
       id="g89"><circle
         d="m 360.8,249.34 c 0,28.05606 -22.74394,50.8 -50.8,50.8 -28.05606,0 -50.8,-22.74394 -50.8,-50.8 0,-28.05607 22.74394,-50.8 50.8,-50.8 28.05606,0 50.8,22.74393 50.8,50.8 z"
         sodipodi:cx="310"
         r="50.799999"
         cx="310"
         sodipodi:cy="249.34"
         cy="249.34"
         style="fill:none"
         sodipodi:ry="50.799999"
         sodipodi:rx="50.799999"
         id="circle91" /><path
         inkscape:connector-curvature="0"
         d="m 355.8,249.34 c -0.31,22.88 -17.32,42.71 -40.27,45.51 -23.02,2.8 -44.26,-12.47 -50.04,-34.63 -5.8,-22.26 7.29,-45.82 28.52,-53.83 21.8,-8.23 46,1.94 56.8,22.13 3.41,6.38 4.89,13.64 4.99,20.82 0.08,6.45 10.08,6.46 10,0 -0.31,-22.48 -13.74,-43.08 -34.7,-51.62 -21.19,-8.64 -45.57,-3.21 -61.47,13.1 -16.07,16.48 -19.31,41.32 -10.23,62.03 9.05,20.64 31.24,33.12 53.38,32.22 29.6,-1.2 52.62,-26.6 53.02,-55.73 0.08,-6.45 -9.92,-6.44 -10,0 z"
         id="path93" /></g></g><g
     id="g95"
     transform="matrix(0.86621,0,0,0.86621,31.37235,27.358937)"><circle
       d="m 331.944,272.70001 c 0,12.7379 -10.3261,23.064 -23.064,23.064 -12.73789,0 -23.06399,-10.3261 -23.06399,-23.064 0,-12.73789 10.3261,-23.064 23.06399,-23.064 12.7379,0 23.064,10.32611 23.064,23.064 z"
       sodipodi:cx="308.88"
       r="23.063999"
       cx="308.88"
       sodipodi:cy="272.70001"
       cy="272.70001"
       sodipodi:ry="23.063999"
       sodipodi:rx="23.063999"
       id="circle97" /><g
       id="g99"><circle
         d="m 331.944,272.70001 c 0,12.7379 -10.3261,23.064 -23.064,23.064 -12.73789,0 -23.06399,-10.3261 -23.06399,-23.064 0,-12.73789 10.3261,-23.064 23.06399,-23.064 12.7379,0 23.064,10.32611 23.064,23.064 z"
         sodipodi:cx="308.88"
         r="23.063999"
         cx="308.88"
         sodipodi:cy="272.70001"
         cy="272.70001"
         style="fill:none"
         sodipodi:ry="23.063999"
         sodipodi:rx="23.063999"
         id="circle101" /><path
         inkscape:connector-curvature="0"
         d="m 326.94,272.7 c -0.29,10.07 -7.99,17.77 -18.06,18.06 -10.07,0.29 -17.79,-8.43 -18.06,-18.06 -0.3,-10.07 8.42,-17.79 18.06,-18.06 10.07,-0.3 17.78,8.42 18.06,18.06 0.19,6.43 10.19,6.45 10,0 -0.45,-15.6 -12.47,-27.61 -28.06,-28.06 -15.59,-0.46 -27.64,13.14 -28.06,28.06 -0.46,15.59 13.14,27.63 28.06,28.06 15.59,0.45 27.63,-13.14 28.06,-28.06 0.19,-6.45 -9.81,-6.44 -10,0 z"
         id="path103" /></g></g><g
     id="g105"
     transform="matrix(0.66825377,-0.55114124,0.55114124,0.66825377,-58.713669,185.62055)"><g
       id="g107"><path
         inkscape:connector-curvature="0"
         d="m 219.93,212.95 c 0,-30.42 -14.95,-55.03 -33.43,-55.03"
         style="fill:none"
         id="path109" /><path
         inkscape:connector-curvature="0"
         d="m 224.93,212.95 c -0.21,-22.82 -9.91,-59.33 -38.43,-60.03 -6.45,-0.16 -6.44,9.84 0,10 9.16,0.23 15.64,7.38 19.99,14.76 6.22,10.52 8.33,23.22 8.44,35.27 0.06,6.45 10.06,6.45 10,0 z"
         id="path111" /></g></g><g
     id="g113"
     transform="matrix(0.45836494,0.73499751,-0.73499751,0.45836494,310.59061,-76.849387)"
     inkscape:transform-center-x="17.949218"
     inkscape:transform-center-y="-0.82980832"><g
       id="g115"><path
         inkscape:connector-curvature="0"
         d="m 244.56,214.32 c 0,-17.22 5.22,-31.15 11.68,-31.15"
         style="fill:none"
         id="path117" /><path
         inkscape:connector-curvature="0"
         d="m 249.56,214.32 c 0.07,-6.18 4.2867,-21.02824 5.9867,-26.98824 7.28305,-20.42534 19.542,-26.4236 21.612,-26.5836 6.39,-0.49 -0.46512,-3.71874 -6.89512,-3.22874 -15.09,1.16 -30.58358,45.82058 -30.70358,56.80058 -0.07,6.46 9.93,6.45 10,0 z"
         id="path119"
         sodipodi:nodetypes="cccccc" /></g></g><g
     id="g121"
     transform="matrix(0.86621,0,0,0.86621,32.166,40.851)"><g
       id="g125"><g
         id="g127"><g
           id="g129"><path
             inkscape:connector-curvature="0"
             d="m 174.21,496.06 c 13.05,-30.5 37.62,-57.75 51.77,-88.33 5.76,-11.16 9.29,-22.17 12.68,-34.97 1.61,-7.29 -0.32,-17.04 2.4,-24.4 2.65,-8.26 8.91,-7.63 17.68,-2.09 15.42,9.74 9.27,33.04 4.2,52.24 -4.04,18.23 -11.48,33.55 -22.4,49.55 -7.98,11.31 -4.82,2.41 -9.39,14.39"
             style="fill:#fbeeb7"
             id="path131" /><g
             id="g133"><path
               inkscape:connector-curvature="0"
               d="m 178.53,498.59 c 11.6,-26.69 30.29,-49.4 44.64,-74.55 6.92,-12.12 12.76,-24.9 16.97,-38.22 1.95,-6.2 3.82,-12.39 4.19,-18.91 0.36,-6.33 -0.84,-13.59 2.57,-19.29 1.64,-2.75 9.99,3.35 11.28,4.47 4.02,3.51 5.11,9.01 5.34,14.09 0.54,12.11 -3.65,24.46 -6.63,36.05 -3.58,13.92 -9.98,26.76 -17.69,38.82 -2.29,3.58 -4.59,7.52 -7.94,10.23 -2.4,1.94 -3.3,5.6 -4.36,8.33 -0.19,0.5 -0.38,1 -0.57,1.51 -2.31,6.03 7.36,8.61 9.64,2.65 0.67,-1.74 1.27,-3.55 2.12,-5.22 0.58,-1.13 -0.7,0.66 0.01,-0.01 0.25,-0.23 0.53,-0.44 0.78,-0.65 4.14,-3.45 7.06,-8.82 9.91,-13.28 7.54,-11.8 13.45,-24.6 17.29,-38.07 5.56,-19.43 15.58,-49.02 -3.76,-63.87 -7.81,-6 -20.13,-8.77 -25.13,1.93 -2.55,5.48 -2.7,11.65 -2.76,17.58 -0.09,7.43 -1.77,13.91 -3.94,20.99 -8.54,27.86 -25.73,51.61 -41.39,75.79 -7.17,11.08 -13.94,22.45 -19.21,34.58 -2.54,5.85 6.07,10.95 8.64,5.05 z"
               id="path135" /></g></g><g
           id="g137"><path
             inkscape:connector-curvature="0"
             d="m 155.82,578.25 c -3.78,-11.23 2.9,-65.06 11.59,-74.53 6.76,-7.76 11.58,-12.93 14.48,-23.27 2.9,-11.2 9.26,-16.88 12.55,-23.27 5.96,-11.55 27.04,-5.17 39.6,-9.47 -0.97,7.75 -3.86,13.78 -0.97,21.54 3.87,7.75 13.52,11.2 17.39,18.95 2.89,5.18 2.89,12.07 5.79,17.24 2.9,6.89 4.83,12.06 6.76,18.95 2.89,8.62 0.97,22.41 -3.86,31.03 -2.9,5.17 -7.73,11.2 -12.56,15.51 -5.79,4.3 -18.35,3.44 -22.21,9.47"
             style="fill:#fbeeb7"
             id="path139" /><g
             id="g141"><path
               inkscape:connector-curvature="0"
               d="m 160.64,576.92 c -1.26,-4.05 -0.96,-8.82 -0.84,-13.22 0.19,-6.98 0.86,-13.96 1.8,-20.87 0.96,-7.14 2.25,-14.26 3.98,-21.26 1.18,-4.81 2.48,-9.92 5.2,-14.12 1.34,-2.07 4.82,-5.54 6.85,-8.11 2.84,-3.6 5.23,-7.4 7,-11.64 1.84,-4.45 2.79,-9.16 4.95,-13.48 1.89,-3.81 4.51,-7.21 6.89,-10.72 1.71,-2.5 2.63,-5.24 5.35,-6.82 3.02,-1.76 7.18,-1.81 10.57,-1.98 7.67,-0.39 15.55,0.17 22.98,-2.17 l -6.15,-6.15 c -0.98,6.78 -3.47,13.84 -1.92,20.73 1.55,6.91 6.2,11.23 11.46,15.6 5.94,4.92 8.33,9.49 10.14,16.95 1.76,7.27 5.5,14.03 7.83,21.16 4.54,13.96 2.5,27.48 -6.67,39.14 -2.15,2.74 -4.72,6.06 -7.82,7.75 -2.4,1.31 -5.54,1.7 -8.18,2.34 -5.55,1.33 -10.49,3.14 -14,7.83 -3.86,5.18 4.83,10.15 8.64,5.05 2.72,-3.65 11.24,-3.85 15.28,-5.2 6.5,-2.16 11.02,-7.74 15,-13.06 8.38,-11.22 12.15,-25.25 9.52,-39.13 -1.38,-7.32 -4.57,-14.58 -7.43,-21.43 -2.69,-6.45 -3.55,-13.45 -6.95,-19.62 -3.08,-5.58 -8.98,-9.09 -13.47,-13.39 -6.38,-6.12 -2.88,-14.52 -1.79,-22.06 0.51,-3.52 -2.13,-7.42 -6.15,-6.15 -14.16,4.46 -34.47,-3.21 -43.1,12.73 -4.37,8.06 -9.99,14.42 -12.54,23.5 -2.71,9.66 -9.36,15.42 -14.93,23.29 -3.12,4.42 -4.59,10.35 -5.95,15.51 -2.03,7.68 -3.33,15.56 -4.4,23.43 -1,7.41 -1.74,14.87 -1.99,22.35 -0.18,5.16 -0.36,10.89 1.2,15.88 1.9,6.14 11.56,3.52 9.64,-2.66 z"
               id="path143" /></g></g><g
           id="g145"><path
             inkscape:connector-curvature="0"
             d="m 198.53,456.41 c 7.26,-5.37 22.43,-5.1 30.49,-6.59 14.51,-2.69 15.22,-3.08 23.38,-3.08 5.43,-0.6 8.02,-1.85 23.23,-0.18 5.38,4.79 6.36,7.6 11.8,12.98 4.53,5.37 10.33,20.96 12.14,29.02"
             style="fill:#fbeeb7"
             id="path147" /><g
             id="g149"><path
               inkscape:connector-curvature="0"
               d="m 201.05,460.73 c 6.03,-4.11 14.11,-4.34 21.15,-5.04 7.08,-0.71 13.99,-2.25 21,-3.41 4.37,-0.72 8.8,-0.44 13.19,-1.07 6.39,-0.93 12.86,-0.32 19.25,0.35 -1.18,-0.49 -2.36,-0.98 -3.54,-1.47 5.29,4.89 11.02,11.01 14.42,17.36 3.74,6.95 6.42,14.77 8.23,22.44 1.48,6.27 11.12,3.61 9.65,-2.66 -2.57,-10.87 -6.7,-24.38 -14.71,-32.52 -3.87,-3.94 -8.11,-12.53 -14.05,-13.15 -5.96,-0.63 -11.97,-1.18 -17.95,-0.53 -8.38,0.91 -16.63,1.46 -24.98,3.03 -11.82,2.22 -26.41,1.02 -36.71,8.03 -5.29,3.61 -0.3,12.28 5.05,8.64 z"
               id="path151" /></g></g><rect
           x="201.07001"
           y="463.35999"
           width="60.438"
           height="34.730999"
           style="fill:#fbeeb7"
           id="rect153" /><g
           id="g155"><path
             inkscape:connector-curvature="0"
             d="m 215.76,474.78 c 17.6,0 36.4,-3.96 50.58,-5.28 13.34,-1.32 28.62,2.8 28.62,5.2 0,24.02 -15.28,23.86 -26.96,22.54 -12.51,-2.65 -25.02,-1.33 -35.86,2.64"
             style="fill:#fbeeb7"
             id="path157" /><g
             id="g159"><path
               inkscape:connector-curvature="0"
               d="m 215.76,479.78 c 15.49,-0.11 30.7,-2.92 46.03,-4.79 7.09,-0.87 14.07,-0.99 21.13,0.26 2.46,0.43 4.88,1.08 7.23,1.91 2.17,0.76 -0.25,0.85 -0.22,-0.83 -0.03,1.94 -0.26,3.84 -0.64,5.74 -1.71,8.69 -8.24,10.87 -16.24,10.59 -6.08,-0.22 -11.99,-1.7 -18.11,-1.8 -8.18,-0.14 -16.45,1.5 -24.13,4.2 -6.05,2.11 -3.45,11.78 2.66,9.64 8.81,-3.09 17.72,-4.28 27.04,-3.58 6.01,0.44 11.62,1.92 17.7,1.45 11.85,-0.92 19.38,-8.88 21.19,-20.45 1.03,-6.65 1.05,-11.55 -5.71,-14.25 -6.96,-2.78 -14.86,-3.56 -22.29,-3.62 -8.64,-0.07 -17.43,1.76 -25.95,2.96 -9.85,1.38 -19.74,2.5 -29.69,2.57 -6.45,0.05 -6.45,10.05 0,10 z"
               id="path161" /></g></g><g
           id="g163"><path
             inkscape:connector-curvature="0"
             d="m 232.33,499.42 c 10.63,0 66.63,-8.62 58.91,13.78 -4.83,15.51 -30.9,6.9 -43.46,9.48"
             style="fill:#fbeeb7"
             id="path165" /><g
             id="g167"><path
               inkscape:connector-curvature="0"
               d="m 232.33,504.42 c 16.51,-0.14 34.41,-4.79 50.47,0.82 0.97,0.34 2.31,1.08 2.85,1.54 0.81,0.68 1.27,1.59 1.29,1.79 0.48,4.12 -2.64,7.12 -6.36,8.27 -10.88,3.34 -22.97,-1.02 -34.12,1.02 -6.34,1.16 -3.65,10.8 2.65,9.64 12.97,-2.37 26.37,3.3 38.85,-2.92 9.81,-4.89 12.23,-19.34 3.3,-26.03 -8.24,-6.18 -21.03,-5.87 -30.79,-5.74 -9.4,0.12 -18.75,1.53 -28.14,1.61 -6.44,0.05 -6.45,10.05 0,10 z"
               id="path169" /></g></g></g></g></g><g
     id="g3310"
     transform="translate(600)"><circle
       id="circle3312"
       sodipodi:rx="214.29401"
       sodipodi:ry="214.29401"
       style="fill:none"
       cx="233.86"
       cy="298.9"
       sodipodi:cy="298.896"
       sodipodi:cx="233.86301"
       r="214.29"
       d="m 448.14999,298.89999 c 0,118.3491 -95.94089,214.29 -214.28999,214.29 -118.34909,0 -214.289993,-95.9409 -214.289993,-214.29 0,-118.34909 95.940903,-214.289989 214.289993,-214.289989 118.3491,0 214.28999,95.940899 214.28999,214.289989 z" /></g><metadata
     id="metadata93"><rdf:RDF><cc:Work><dc:format>image/svg+xml</dc:format><dc:type
           rdf:resource="http://purl.org/dc/dcmitype/StillImage" /><cc:license
           rdf:resource="http://creativecommons.org/licenses/publicdomain/" /><dc:publisher><cc:Agent
             rdf:about="http://openclipart.org/"><dc:title>Openclipart</dc:title></cc:Agent></dc:publisher><dc:title>Pssst!</dc:title><dc:date>2006-11-07T10:46:29</dc:date><dc:description>Smiley with angry face making a gesture to maintain silence</dc:description><dc:source>https://openclipart.org/detail/1327/pssst!-by-mip</dc:source><dc:creator><cc:Agent><dc:title>mip</dc:title></cc:Agent></dc:creator><dc:subject><rdf:Bag><rdf:li>gesture</rdf:li><rdf:li>icon</rdf:li><rdf:li>psst</rdf:li><rdf:li>ruhe</rdf:li><rdf:li>silence</rdf:li><rdf:li>silentium</rdf:li><rdf:li>smiley</rdf:li><rdf:li>smilie</rdf:li><rdf:li>stille</rdf:li><rdf:li>warning</rdf:li><rdf:li>warnung</rdf:li></rdf:Bag></dc:subject></cc:Work><cc:License
         rdf:about="http://creativecommons.org/licenses/publicdomain/"><cc:permits
           rdf:resource="http://creativecommons.org/ns#Reproduction" /><cc:permits
           rdf:resource="http://creativecommons.org/ns#Distribution" /><cc:permits
           rdf:resource="http://creativecommons.org/ns#DerivativeWorks" /></cc:License></rdf:RDF></metadata></svg>