<?xml version="1.0" encoding="UTF-8" standalone="no"?>
<!-- Created with Inkscape (http://www.inkscape.org/) -->

<svg
   xmlns:dc="http://purl.org/dc/elements/1.1/"
   xmlns:cc="http://creativecommons.org/ns#"
   xmlns:rdf="http://www.w3.org/1999/02/22-rdf-syntax-ns#"
   xmlns:svg="http://www.w3.org/2000/svg"
   xmlns="http://www.w3.org/2000/svg"
   xmlns:sodipodi="http://sodipodi.sourceforge.net/DTD/sodipodi-0.dtd"
   xmlns:inkscape="http://www.inkscape.org/namespaces/inkscape"
   width="744.09003"
   height="690"
   id="svg2"
   version="1.1"
   inkscape:version="0.48.4 r9939"
   sodipodi:docname="dromadaire.svg">
  <defs
     id="defs4" />
  <sodipodi:namedview
     id="base"
     pagecolor="#ffffff"
     bordercolor="#666666"
     borderopacity="1.0"
     inkscape:pageopacity="0.0"
     inkscape:pageshadow="2"
     inkscape:zoom="0.49497475"
     inkscape:cx="375"
     inkscape:cy="520"
     inkscape:document-units="px"
     inkscape:current-layer="layer1"
     showgrid="false"
     inkscape:window-width="1535"
     inkscape:window-height="876"
     inkscape:window-x="65"
     inkscape:window-y="24"
     inkscape:window-maximized="1" />
  <metadata
     id="metadata7">
    <rdf:RDF>
      <cc:Work
         rdf:about="">
        <dc:format>image/svg+xml</dc:format>
        <dc:type
           rdf:resource="http://purl.org/dc/dcmitype/StillImage" />
        <dc:title></dc:title>
      </cc:Work>
    </rdf:RDF>
  </metadata>
  <g
     inkscape:label="Calque 1"
     inkscape:groupmode="layer"
     id="layer1"
     transform="translate(0,-362.36218)">
    <g
       id="g3063"
       transform="translate(-1.9103626e-6,169.70563)">
      <path
         style="fill:#daab87"
         d="m 544.0385,843.40857 c -0.95706,-1.15319 -0.83823,-2.07683 0.57499,-4.46923 0.97976,-1.65859 1.58003,-3.17317 1.33394,-3.36572 -2.00184,-1.56636 -8.34655,-4.71144 -9.50459,-4.71144 -1.40525,0 -1.56709,0.71101 -1.82094,8 -0.0945,2.71241 -0.58142,3.56578 -2.16398,3.7923 -1.48413,0.21244 -2.64535,-0.78105 -4.25,-3.63615 C 526.99356,836.85768 526,834.13424 526,832.96624 c 0,-1.168 -0.9,-2.89424 -2,-3.83609 -1.55868,-1.33458 -1.99515,-2.9322 -1.97804,-7.24021 0.0551,-13.87211 7.07941,-19.35692 32.55163,-25.4174 7.39029,-1.75833 9.86842,-1.50685 10.86994,1.10308 0.52979,1.3806 0.82012,1.35793 2.53967,-0.19824 1.06783,-0.96637 2.46935,-3.39012 3.11448,-5.38612 2.39224,-7.40141 5.03155,-11.05719 15.67726,-21.71497 7.12428,-7.13236 12.01258,-12.99311 14.10763,-16.91411 2.68258,-5.02058 8.69173,-25.417 11.49009,-39 0.33993,-1.65 1.51332,-7.5 2.60753,-13 3.4861,-17.52272 4.47462,-20.96391 6.11279,-21.27939 2.80594,-0.54038 3.67696,3.69654 2.31879,11.27939 -1.57505,8.79371 -1.61373,9.5 -0.52035,9.5 1.64645,0 8.10858,-17.00975 8.10858,-21.34358 0,-5.18135 -10.11312,-19.17957 -34,-47.06161 -35.9698,-41.98585 -39.93155,-50.22717 -59.89499,-124.59481 -9.00739,-33.55423 -13.62978,-48.38913 -18.50042,-59.37443 -1.43252,-3.23094 -2.60459,-6.49344 -2.60459,-7.25 0,-2.20808 3.23151,-1.60805 10.09484,1.87443 6.24405,3.16825 6.48674,3.44106 9.64827,10.84578 1.7837,4.17768 4.0877,10.9756 5.11999,15.10649 1.0323,4.13089 2.40689,8.36279 3.05465,9.40422 1.13358,1.8225 1.15943,1.8185 0.68941,-0.10649 -0.26859,-1.1 -0.78229,-4.7 -1.14156,-8 -0.90281,-8.29253 -6.0133,-36.74109 -7.8806,-43.86892 -1.84237,-7.03264 -2.86327,-8.39228 -8.085,-10.7676 -8.62236,-3.92222 -34.62794,-1.90388 -47.0306,3.65013 -5.89467,2.63968 -6.6599,3.49708 -8.46656,9.48639 -3.48677,11.55906 -9.67585,25.05791 -15.35941,33.5 -9.55812,14.1972 -16.54982,18.78617 -37.92731,24.8934 -18.72094,5.34829 -33.76902,7.74097 -52.47231,8.34322 -22.8069,0.73439 -30.30666,-1.44781 -36.70448,-10.67987 -1.54623,-2.23121 -3.38897,-4.05675 -4.09496,-4.05675 -1.69433,0 -4.05634,7.52784 -5.56925,17.74951 -1.50339,10.15737 -0.602,15.86579 5.64522,35.75049 6.58792,20.96917 7.81944,29.10908 7.03328,46.48771 -0.36107,7.98176 -1.02728,27.56229 -1.48045,43.51229 -0.45318,15.95 -1.16456,30.27447 -1.58084,31.83215 -0.96692,3.61803 -2.85211,4.31736 -6.0283,2.23624 -1.38628,-0.90833 -2.95781,-1.38125 -3.49228,-1.05093 -2.20469,1.36257 -0.45151,19.48254 1.88502,19.48254 0.36361,0 1.69658,-2.88721 2.96215,-6.41603 3.16715,-8.83101 6.65938,-9.84495 9.49498,-2.7568 1.98862,4.97096 5.6861,22.30406 5.6861,26.65538 0,1.9346 0.35066,3.51745 0.77923,3.51745 1.01353,0 3.22193,-14.07964 3.21675,-20.50833 -0.005,-6.71109 -2.67258,-22.78191 -4.51135,-27.18269 -1.86702,-4.46842 -1.89198,-13.80028 -0.07,-26.18965 0.77803,-5.29063 1.90447,-13.44433 2.50322,-18.11933 0.59874,-4.675 1.53718,-11.7362 2.08541,-15.69155 1.2252,-8.8395 1.26195,-26.69811 0.0719,-34.92245 -0.72573,-5.01528 -1.9486,-7.71087 -6.80488,-15 -8.58686,-12.88864 -9.98254,-15.37447 -12.62372,-22.48393 -3.59896,-9.68761 -4.08814,-15.66791 -1.61351,-19.72543 2.50446,-4.10643 4.11987,-3.70557 5.6273,1.3964 6.08866,20.60739 10.14079,28.08914 18.64467,34.4251 l 4.69507,3.49814 -0.009,28.50186 c -0.009,29.43522 -0.99316,39.39141 -5.43282,54.96979 -2.79834,9.81913 -1.84431,20.83758 4.44687,51.35836 1.35334,6.56556 1.19779,12.9316 -0.50517,20.67371 -1.7081,7.76551 -1.90351,23.32727 -0.43983,35.02623 1.14615,9.16089 6.7185,27.13617 8.59255,27.71782 0.63551,0.19724 1.98159,-2.02073 3,-4.94314 3.04046,-8.72485 2.3904,-22.67438 -1.69166,-36.30091 -1.81239,-6.05 -4.34505,-13.37533 -5.62815,-16.27851 -1.2831,-2.90319 -2.33291,-5.94069 -2.33291,-6.75 0,-3.0449 3.58634,-1.33125 6.34182,3.0303 1.56301,2.47401 3.1833,4.49821 3.60066,4.49821 1.01571,0 -0.31807,-7.6941 -3.03365,-17.5 -3.2447,-11.71655 -3.4262,-16.04265 -0.95065,-22.6589 3.95859,-10.57988 6.31236,-10.12767 10.3676,1.99186 2.57646,7.70002 3.00595,7.9185 4.06035,2.06546 0.65324,-3.62619 -1.5118,-16.39621 -3.3678,-19.86417 -0.53978,-1.00859 -1.44409,-10.5414 -2.00958,-21.18403 -0.93417,-17.58116 -2.16436,-30.99358 -5.15486,-56.20211 -1.20075,-10.12173 -0.58481,-11.7578 3.69279,-9.80879 1.43051,0.65178 4.40072,2.6314 6.60045,4.39916 3.29451,2.64754 3.89642,3.65895 3.41468,5.73781 -0.32166,1.38804 -1.0239,17.28844 -1.56054,35.33422 l -0.9757,32.8105 2.62691,6.1895 c 3.41602,8.04876 3.80235,22.37985 0.89929,33.35943 -1.80648,6.83223 -1.81821,7.5623 -0.2491,15.5 1.5421,7.80104 8.52878,30.09735 14.04776,44.83006 1.33922,3.575 3.17538,10.45155 4.08035,15.28122 1.54264,8.23279 1.53864,8.96197 -0.0642,11.67528 -0.94026,1.59173 -3.8824,4.55108 -6.5381,6.57634 -5.32826,4.06339 -5.78799,5.02786 -2.84221,5.96282 2.43325,0.77228 9.01368,12.24542 9.01368,15.71558 0,3.43725 -3.00681,6.98395 -8.30258,9.79335 -3.96545,2.10367 -4.75645,2.2136 -7.56303,1.05108 C 376.41048,799.20378 375,797.94425 375,797.11889 c 0,-1.28959 -0.31646,-1.26842 -2.25,0.15057 -3.36536,2.46975 -12.0202,6.57181 -13.88922,6.58295 -0.90156,0.005 -2.68697,-0.83865 -3.96756,-1.87561 -1.99611,-1.61636 -2.13714,-2.11578 -0.98834,-3.5 0.737,-0.88804 2.12422,-1.61462 3.08271,-1.61462 0.95848,0 2.97014,-0.96551 4.47036,-2.14559 l 2.72767,-2.14558 -5.34281,-2.61732 -5.34281,-2.61732 -5.19014,4.7629 c -5.67956,5.21204 -6.44661,5.50799 -8.3455,3.21997 -1.12762,-1.3587 -1.67959,-1.15616 -4.62245,1.69616 -1.83805,1.78151 -3.33754,3.93834 -3.3322,4.79295 0.005,0.85461 1.58033,3.52966 3.5,5.94456 1.91966,2.4149 3.49029,4.71419 3.49029,5.10954 0,0.39534 -1.39247,3.59451 -3.09438,7.10927 -1.70191,3.51475 -3.62786,7.50869 -4.2799,8.87542 -2.45122,5.13796 -18.78519,11.03106 -26.43249,9.53652 C 303.16196,837.98668 297,837.71803 291.5,837.78665 c -8.74517,0.10912 -10.50193,-0.16389 -14,-2.17567 -3.69641,-2.12584 -4.0235,-2.66795 -4.30961,-7.14263 -0.47297,-7.39705 3.41424,-14.45901 13.12191,-23.83881 8.63934,-8.34755 10.54892,-9.44718 13.58445,-7.82262 1.31879,0.7058 2.82236,0.73235 4.53778,0.0802 2.32211,-0.88286 2.56547,-1.49391 2.56547,-6.44154 0,-4.86196 0.9119,-7.2688 8.25,-21.77475 l 8.25,-16.30865 -0.18445,-27.31967 c -0.18395,-27.24375 -0.1912,-27.32852 -2.60976,-30.5 C 313.58317,685.20255 309,671.70972 309,660.08072 c 0,-9.419 1.3258,-11.54554 5.49499,-8.81378 1.37776,0.90274 2.50501,1.42793 2.50501,1.16708 0,-1.51665 -3.01921,-11.60966 -4.359,-14.57184 -0.87067,-1.925 -4.11813,-10.025 -7.21658,-18 -3.09844,-7.975 -6.97719,-17.875 -8.61944,-22 -6.61652,-16.61939 -10.07858,-28.48265 -10.56883,-36.2156 l -0.48914,-7.7156 -4.6235,-1.75149 c -2.54293,-0.96331 -6.76101,-3.74037 -9.37351,-6.17124 -6.86045,-6.38347 -5.84982,-3.67181 1.25,3.35393 5.81391,5.75325 7.34541,8.5 4.73932,8.5 -2.55823,0 -14.69993,-9.08757 -19.39559,-14.51682 -5.56067,-6.42939 -14.43044,-21.42268 -17.44172,-29.48318 -2.58573,-6.92137 -6.40301,-12 -9.01962,-12 -2.80256,0 -8.27193,-4.39054 -13.64407,-10.95277 l -4.54122,-5.54723 0.56756,4.33398 c 0.31215,2.38369 2.68965,8.55315 5.28333,13.70991 3.65622,7.26933 6.72392,11.51561 13.65345,18.89897 4.91572,5.23766 8.65482,9.9807 8.3091,10.54008 -1.23846,2.00388 -5.40127,0.95435 -10.83981,-2.73294 -9.26796,-6.28361 -18.34181,-18.18358 -27.58248,-36.17325 -2.84684,-5.54221 -5.49381,-10.07613 -5.88216,-10.07538 -1.70428,0.003 -17.0318,3.00155 -20.19949,3.95126 -4.84632,1.45299 -7.94796,1.3151 -13.93874,-0.61971 C 143.34941,480.82675 125,431.24016 125,384.32227 c 0,-11.16379 0.444,-14.97706 2.91828,-25.06358 1.60506,-6.54308 4.31234,-19.09651 6.01619,-27.89651 1.70385,-8.8 3.55509,-17.97304 4.11386,-20.38452 1.21997,-5.26501 0.62162,-6.21171 -2.08789,-3.30339 -2.45848,2.63886 -6.92581,5.01699 -12.37655,6.5885 -4.02076,1.15923 -4.0875,1.25411 -4.31751,6.13842 -0.12849,2.72854 -0.95859,11.93599 -1.84466,20.46099 -4.06076,39.06916 2.395,105.20154 12.43016,127.33359 3.9798,8.77728 15.0432,19.93245 24.64812,24.8526 11.96064,6.12686 22.04587,9.17959 30.5,9.23214 4.125,0.0256 8.96298,-0.33934 10.75107,-0.81107 3.01277,-0.79482 3.54418,-0.53703 7.25,3.51708 2.19941,2.40613 3.99893,5.12577 3.99893,6.04366 0,2.2492 -5.53816,5.52979 -11.75947,6.96584 -10.9353,2.52417 -26.53741,-2.60321 -43.13475,-14.17553 -29.10835,-20.29549 -39.29611,-43.7777 -43.04155,-99.20831 -0.58533,-8.6625 -1.54313,-22.8375 -2.12846,-31.5 -1.1934,-17.66182 -3.12633,-32.94813 -5.413,-42.80804 -0.84373,-3.63808 -1.25158,-7.07174 -0.90633,-7.63036 0.34524,-0.55862 2.26028,-1.70181 4.25564,-2.54044 3.31387,-1.39278 3.44519,-1.59311 1.51702,-2.31428 -2.62217,-0.98074 -3.78744,-3.77198 -2.31525,-5.54587 0.6096,-0.73451 3.53975,-2.24519 6.51146,-3.35704 10.1176,-3.78548 18.35619,-10.67011 21.31418,-17.81131 0.73873,-1.78346 2.02645,-3.24266 2.86159,-3.24266 1.85901,0 4.16398,2.87633 4.20712,5.25 0.0437,2.4059 2.0318,2.22498 2.0318,-0.1849 0,-4.96066 -5.57058,-13.0651 -8.98029,-13.0651 -0.9491,0 -1.99752,1.32949 -2.56291,3.25 -0.71344,2.42337 -2.35222,4.08126 -6.44308,6.51824 -6.30058,3.75332 -10.19388,5.01041 -18.23122,5.88659 -10.916498,1.19005 -18.603213,-3.10774 -22.503447,-12.5821 -1.823488,-4.42958 -4.998283,-7.98047 -8.279053,-9.2598 -1.375,-0.53619 -8.880924,-2.24875 -16.679832,-3.80571 -17.657402,-3.52508 -19.716053,-4.43406 -20.143215,-8.89408 -0.286004,-2.98618 0.369115,-4.04605 5.713228,-9.24304 3.319951,-3.22856 5.566041,-5.8701 4.991311,-5.8701 C 44.538244,245.86218 24,260.54879 24,262.9395 c 0,0.50747 0.829552,0.92268 1.84345,0.92268 2.499491,0 11.263246,3.12106 19.15655,6.82227 12.191385,5.71661 19.977446,12.65054 19.993411,17.80528 0.0087,2.7947 0.412595,3.08723 15.008798,10.86949 14.624509,7.79735 20.923881,12.26911 20.966871,14.8838 0.0426,2.5893 -3.811364,1.87291 -17.988296,-3.34378 -14.733024,-5.42132 -21.194362,-7.03706 -28.141193,-7.03706 -4.372223,0 -5.967891,-0.40684 -6.695578,-1.70715 -0.776457,-1.38745 -1.169059,-0.87246 -2.096467,2.75 -2.627847,10.2644 -6.017273,13.94567 -12.847206,13.95341 -3.866188,0.004 -8.704594,-2.26198 -9.553861,-4.47514 -0.458346,-1.19443 -1.490158,-1.40985 -4.470333,-0.9333 C 10.457597,314.84416 6.2973627,309.33213 7.368618,297.80585 7.9662192,291.37589 7.7838027,290.37686 5.0081346,284.87829 1.4837878,277.8966 1.3388398,276.06179 3.9174783,271.07234 9.7086343,259.86693 38.180095,240.8118 62.5,231.86474 c 14.887534,-5.47699 28.689452,-5.29892 33.445277,0.4315 1.785808,2.15177 2.731209,1.96384 3.441254,-0.68406 0.33184,-1.2375 1.932369,-4.34881 3.556729,-6.91402 2.54762,-4.02323 3.70292,-4.88191 8.40897,-6.25 7.16578,-2.08315 18.53624,-1.96804 26.72978,0.27058 7.04844,1.92577 19.7181,8.59311 29.33053,15.43502 7.26115,5.16833 8.52869,6.97162 6.82169,9.70496 -0.68815,1.1019 -1.13486,2.00435 -0.9927,2.00544 0.14216,0.001 6.71223,0.68234 14.60015,1.51389 13.9186,1.46729 18.15832,2.52182 18.15832,4.51643 0,1.91924 -7.52206,9.2254 -12.31808,11.96453 l -4.91278,2.8058 2.86543,1.7833 c 4.47523,2.78517 7.42137,5.65622 9.08312,8.85165 2.48971,4.7875 1.58484,20.34952 -2.64929,45.56242 -1.06219,6.325 -2.72188,16.225 -3.6882,22 -2.25098,13.45243 -2.55512,43.54354 -0.50032,49.5 1.8698,5.42017 7.71867,12.43431 11.78551,14.13355 2.6197,1.09458 3.33789,1.97999 3.34992,4.12987 0.0229,4.09636 1.26406,5.45555 4.28853,4.69646 3.78903,-0.95099 5.09204,-2.85311 3.59575,-5.24905 -1.84202,-2.94955 -0.63694,-4.5352 4.92619,-6.48189 7.48245,-2.61831 16.62291,-13.62265 23.86291,-28.72894 16.01419,-33.41369 15.07587,-31.83881 24.75525,-41.54938 9.55275,-9.58354 19.93519,-16.40287 31.89558,-20.94947 26.51793,-10.08049 57.70474,-30.76848 84.84708,-56.28395 11.69465,-10.99367 22.34948,-18.02532 33.01548,-21.7885 11.57057,-4.08233 30.92469,-5.94527 47.60128,-4.58187 10.94241,0.89459 13.47986,1.97314 17.58824,7.47586 1.87664,2.51355 1.90119,2.81309 0.35713,4.35715 -1.54405,1.54405 -2.13068,1.44018 -8.53314,-1.5109 -7.70413,-3.55106 -10.76606,-4.04581 -9.82258,-1.58715 0.33385,0.86998 0.60699,2.20652 0.60699,2.9701 0,0.97673 1.11173,1.32306 3.75,1.16821 3.50893,-0.20595 3.7471,-0.0386 3.70492,2.60275 -0.0424,2.65447 0.15063,2.78613 3.23599,2.20731 3.68966,-0.69218 7.30909,0.79589 7.30909,3.00502 0,0.80565 0.8632,1.46482 1.91821,1.46482 1.05502,0 2.63841,0.27636 3.51865,0.61414 1.37291,0.52684 1.45033,0.21936 0.54463,-2.16283 -1.5139,-3.98184 -0.0193,-5.07882 4.90827,-3.60249 6.14343,1.84062 13.8926,8.27209 17.84434,14.81001 4.61783,7.63994 6.55799,12.25039 11.33781,26.94239 2.17968,6.6998 5.94196,16.39286 8.36062,21.54012 3.95806,8.42334 5.27381,10.15662 13.16524,17.34299 25.10945,22.86605 35.04603,29.50851 56.76351,37.94559 21.95262,8.52842 33.23333,18.63253 43.65464,39.10135 8.85517,17.39271 12.95727,34.4934 10.48723,43.71873 -0.70255,2.62391 -0.57264,2.75 2.83327,2.75 3.27113,0 3.65754,0.31353 4.62171,3.75 0.57868,2.0625 1.78808,8.025 2.68757,13.25 1.92792,11.19906 1.3729,36.28955 -1.03967,47 -0.80529,3.575 -2.8352,12.575 -4.51092,20 -4.60259,20.39376 -6.08831,30.96901 -6.74354,48 -0.54648,14.20418 -0.77337,15.6409 -2.71398,17.18535 l -2.11764,1.68535 2.76567,5.31465 c 5.88641,11.31163 16.01993,22.65218 24.46336,27.37724 7.2269,4.04428 7.10154,7.15135 -0.49829,12.34995 -2.05723,1.40723 -3.98332,1.98971 -5.25,1.58768 C 671.47878,649.87936 671,650.18226 671,651.62813 c 0,3.14292 1.07564,3.27814 4.61322,0.5799 8.90425,-6.79161 8.22521,4.36859 -1.40436,23.08075 -5.46093,10.61169 -17.92639,24.16691 -23.19259,25.22015 l -3.11711,0.62342 3.23952,2.70447 3.23952,2.70447 -4.61792,7.91044 c -8.41747,14.419 -13.56976,27.55833 -21.92402,55.91045 -2.75508,9.35 -6.07982,20.6 -7.3883,25 -1.30848,4.4 -3.10088,9.02079 -3.98312,10.26843 -2.18518,3.09023 -10.64738,7.23157 -14.77661,7.23157 -3.93482,0 -5.42933,1.44302 -9.11876,8.80462 -2.17623,4.34229 -3.46681,5.6511 -7.114,7.21447 -2.45051,1.05041 -4.45547,2.15447 -4.45547,2.45347 0,0.299 1.76527,1.24996 3.92283,2.11324 3.82188,1.52921 5.63296,3.70589 4.54634,5.46408 -0.60441,0.97796 -8.28619,3.28018 -16.29546,4.88373 -8.2732,1.6564 -27.65292,1.39883 -29.13521,-0.38722 z M 538,811.84831 c 5.25758,-3.47884 4.90854,-3.73315 -1.40774,-1.02568 -2.85255,1.22275 -5.32826,3.1983 -6.57917,5.25 -2.86916,4.70592 -2.43355,5.85874 0.76381,2.0214 1.49771,-1.79748 4.7481,-4.60806 7.2231,-6.24572 z m 18.63197,-4.06769 C 558.48438,806.63576 560,805.55861 560,805.38695 c 0,-0.336 -8.26855,1.58717 -8.85014,2.05845 -0.4737,0.38385 0.82264,2.41678 1.54112,2.41678 0.31512,0 2.08857,-0.9367 3.94099,-2.08156 z m 8.90915,-4.98497 c 1.07627,-1.74144 -0.14952,-2.11024 -1.52106,-0.45764 -0.78875,0.95039 -0.86462,1.52417 -0.20152,1.52417 0.58488,0 1.36004,-0.47994 1.72258,-1.06653 z m 24.22898,-17.68347 c 7.01264,-6.81361 11.64847,-12.17938 12.66009,-14.65354 0.87783,-2.14695 1.46222,-4.03738 1.29864,-4.20096 -0.41429,-0.4143 -22.10947,22.92595 -24.72706,26.60202 -4.05939,5.70088 -0.25815,2.96599 10.76833,-7.74752 z m -209.35819,8.22236 c 5.55378,-2.32052 6.44782,-5.32963 3.21996,-10.83756 C 382.18434,780.02696 381,777.07367 381,775.93411 c 0,-1.24148 -0.64796,-2.07193 -1.61663,-2.07193 -1.2064,0 -1.4483,0.57096 -0.95326,2.25 0.36485,1.2375 0.9337,4.88017 1.26412,8.09483 0.5717,5.56224 0.46065,5.95939 -2.29674,8.21404 -3.35532,2.74356 -2.20202,3.09306 3.01442,0.91349 z m -32.27539,-14.97236 c 2.49356,-5.48169 2.32836,-8.76058 -0.8817,-17.5 -2.01103,-5.47503 -2.84564,-6.85784 -3.0912,-5.12158 -0.18501,1.30813 0.15249,4.3199 0.75,6.69282 1.50873,5.99171 1.35636,12.41209 -0.41362,17.42876 -1.88055,5.33004 -1.87145,5.55228 0.15848,3.87244 0.91216,-0.75484 2.47728,-3.17244 3.47804,-5.37244 z m -23.98447,-2.25 c 3.16525,-8.26901 4.263,-12.62455 2.98234,-11.83306 C 326.3573,764.75939 320,780.91939 320,782.41445 c 0,0.24625 0.35286,0.44773 0.78413,0.44773 0.43127,0 1.94683,-3.0375 3.36792,-6.75 z m 55.34795,-9.25 c 0.33992,-0.55 0.14148,-1 -0.44098,-1 -0.58246,0 -1.05902,0.45 -1.05902,1 0,0.55 0.19844,1 0.44098,1 0.24254,0 0.7191,-0.45 1.05902,-1 z m -16.13029,-2.25 c 0.85871,-3.20426 0.80252,-3.46993 -0.86971,-4.11163 -1.15566,-0.44347 -1.5,0.22064 -1.5,2.89301 0,3.90142 1.45081,4.6475 2.36971,1.21862 z m -18.38502,-14 c -0.008,-1.2375 -0.45153,-2.925 -0.98469,-3.75 -0.72105,-1.11575 -0.9733,-0.53938 -0.98469,2.25 -0.008,2.0625 0.43469,3.75 0.98469,3.75 0.55,0 0.99311,-1.0125 0.98469,-2.25 z M 344,742.9212 c 0,-1.06754 -0.45,-2.2191 -1,-2.55902 -0.56716,-0.35052 -1,0.48962 -1,1.94098 0,1.40746 0.45,2.55902 1,2.55902 0.55,0 1,-0.87344 1,-1.94098 z M 627.09018,636.81987 c 4.48755,-5.99054 6.1738,-12.34699 4.9716,-18.7408 -0.67056,-3.56628 -0.50532,-4.49324 0.98733,-5.53873 0.98596,-0.6906 1.94076,-2.8132 2.12177,-4.7169 0.18102,-1.90369 0.77912,-3.4312 1.32912,-3.39447 0.55,0.0367 3.14522,4.31173 5.76716,9.5 3.37289,6.67424 6.51699,11.18513 10.75,15.42321 6.30414,6.31168 7.70206,6.3225 3.42951,0.0265 -4.97549,-7.3318 -13.21497,-25.1399 -15.73882,-34.01655 -4.98237,-17.52347 -5.68653,-35.39169 -2.77833,-70.5 2.16092,-26.08689 2.3872,-35.03349 1.10744,-43.78565 -1.77376,-12.13066 -4.31954,-20.47598 -9.01324,-29.54633 -4.17143,-8.06109 -4.83653,-11.78999 -2.87196,-16.10175 1.2291,-2.69759 4.10436,-4.14404 5.95902,-2.9978 1.75631,1.08546 9.88922,19.26801 9.88922,22.10909 0,1.90204 0.39562,2.3846 1.58179,1.92943 0.86998,-0.33385 2.19047,-0.60699 2.93442,-0.60699 2.15623,0 -2.15377,-11.55625 -6.69206,-17.9432 -5.1906,-7.30493 -14.43622,-15.05675 -17.95829,-15.05675 -3.39847,0 -6.48237,3.70895 -7.29987,8.77944 -0.6596,4.09109 0.0697,8.97602 3.91465,26.22056 1.41026,6.325 3.46092,16.225 4.55703,22 1.09611,5.775 2.77354,14.325 3.72763,19 1.46902,7.19816 1.71495,13.86052 1.60572,43.5 -0.12489,33.88951 -0.96163,48.13058 -3.93661,67 -2.43157,15.42274 -4.62665,20.5 -8.86285,20.5 -7.1987,0 -27.68982,-25.07921 -44.93809,-55 -6.54604,-11.35551 -8.85538,-16.17527 -11.72351,-24.46792 -4.20055,-12.14505 -3.37107,-3.61899 1.0908,11.21215 4.58711,15.24743 9.63392,26.68911 15.77152,35.75577 2.23391,3.3 13.43651,15.46519 24.89468,27.03376 20.28639,20.48184 20.85928,20.96617 21.83304,18.4577 0.55,-1.41684 2.16558,-4.13203 3.59018,-6.03377 z m 22.92423,-63.45769 c 0.597,-5.5 1.52511,-12.925 2.06246,-16.5 5.33307,-35.48085 7.44855,-61.9392 5.0699,-63.40929 -0.81267,-0.50226 -1.17474,1.12934 -1.24277,5.60027 -0.14583,9.58452 -1.9646,16.30902 -4.41106,16.30902 -1.89945,0 -2.01809,-0.86784 -2.52899,-18.5 -0.76366,-26.35545 -2.4171,-27.08484 -2.68823,-1.18587 -0.1191,11.37723 -0.95956,28.56087 -1.86769,38.18587 -2.36085,25.02221 -1.45422,41.40369 3.23771,58.5 0.70258,2.56006 0.85704,2.12011 1.05326,-3 0.12647,-3.3 0.7184,-10.5 1.31541,-16 z M 328,321.29354 c 5.775,-0.34459 12.90015,-1.30049 15.83367,-2.12422 6.28707,-1.76542 18.85788,-10.91129 36.16633,-26.31275 15.00108,-13.34831 20.89422,-17.82153 30,-22.77168 10.23873,-5.56606 18.60491,-8.7271 30.90081,-11.67543 6.76255,-1.62153 11.06309,-3.20478 12.29407,-4.52608 1.04128,-1.11769 4.16816,-3.18495 6.94862,-4.59392 2.78045,-1.40896 4.79565,-2.82146 4.47823,-3.13889 -0.79479,-0.79479 -9.05691,2.37029 -15.24346,5.83951 -8.38401,4.70149 -11.10773,3.55265 -6.52685,-2.75297 1.90314,-2.61969 4.73171,-4.73273 8.73181,-6.52295 3.25422,-1.45641 7.04177,-3.14888 8.41677,-3.76104 2.05327,-0.91414 1.4616,-1.00749 -3.31115,-0.52239 -8.39238,0.853 -25,6.51457 -35.29197,12.03111 -8.58631,4.6023 -37.91263,23.82522 -61.10838,40.05553 -14.53441,10.1699 -28.20876,18.50697 -41.2885,25.1731 -13.23704,6.74628 -14.08092,7.56782 -7,6.81462 3.025,-0.32177 10.225,-0.86697 16,-1.21155 z m 169,-61.27637 c 0,-0.46476 -0.9,-1.6595 -2,-2.65499 -1.93885,-1.75463 -2,-1.74663 -2,0.26168 0,1.8598 1.10453,2.93353 3.25,3.15937 0.4125,0.0434 0.75,-0.30131 0.75,-0.76606 z M 336.33032,825.2806 c -0.3338,-0.86986 0.35533,-3.29363 1.53139,-5.38615 2.67086,-4.75215 2.71258,-8.98624 0.13829,-14.03227 -2.36069,-4.62734 -2.53029,-6.85928 -0.57814,-7.60839 2.47863,-0.95114 5.50037,1.5214 8.07949,6.61105 3.02036,5.96041 3.16902,10.76297 0.49538,16.00374 -2.82895,5.54521 -8.2773,8.03199 -9.66641,4.41202 z m 335.30638,0.3052 c -2.55391,-1.86747 -1.20064,-4.05111 4.10942,-6.63093 l 4.67108,-2.26939 -2.4586,-1.88941 c -1.35223,-1.03918 -2.87317,-1.89942 -3.37986,-1.91165 -0.50669,-0.0122 -1.71584,-0.74132 -2.68699,-1.6202 -2.31792,-2.0977 -3.57767,-1.18239 -5.02603,3.65182 -1.49997,5.00643 -2.48233,5.79479 -8.19687,6.57805 -6.42854,0.88113 -6.84458,-0.8725 -2.35663,-9.93326 2.39095,-4.8271 5.0616,-8.44492 8.10656,-10.98159 4.71318,-3.92642 15.864,-9.7149 18.71727,-9.71627 2.66022,-10e-4 13.58746,-7.82678 17.36323,-12.43461 5.79502,-7.07205 6.79932,-18.17153 3.94197,-43.56618 -0.83544,-7.425 -1.79471,-16.2 -2.13169,-19.5 -0.60714,-5.94559 -3.83672,-14.83729 -14.32718,-39.44574 -2.84297,-6.66901 -4.9034,-12.81771 -4.57873,-13.66377 1.81631,-4.73322 6.41897,2.42711 18.09635,28.15237 2.39598,5.27833 4.13978,8.08675 4.34858,7.00344 0.19171,-0.99471 -0.4223,-9.57377 -1.36449,-19.06459 -2.22875,-22.45065 -1.79799,-37.58964 1.21486,-42.69604 l 2.18386,-3.70136 -4.71963,-3.46452 c -8.75651,-6.42787 -24.18482,-27.28437 -29.67806,-40.11979 -4.62447,-10.80544 -6.73557,-16.78707 -9.13427,-25.8812 -2.46513,-9.34594 -2.54078,-10.31239 -1.31561,-16.80555 1.36955,-7.25837 2.98551,-10.53649 4.67827,-9.49031 1.03864,0.64192 1.52841,2.87588 3.32579,15.16986 1.27524,8.72253 6.05394,23.80482 9.92174,31.31447 2.8126,5.4609 6.52734,11.50984 12.17064,19.81823 4.6437,6.83671 17.98181,18.85723 24.11832,21.73581 6.40569,3.00486 6.64697,3.64995 4.12906,11.03961 -2.01294,5.90765 -0.59506,8.41469 2.5196,4.45504 2.4755,-3.14709 9.78998,-6.56732 11.14563,-5.21167 0.63727,0.63727 0.26097,3.04684 -1.08021,6.91683 -4.05606,11.70385 -6.17088,30.1667 -5.66295,49.43888 0.25367,9.625 0.93266,19.075 1.50885,21 0.5762,1.925 2.48293,8.675 4.23718,15 1.75425,6.325 4.01219,14.2 5.01766,17.5 5.89606,19.35127 8.93518,31.72134 8.93518,36.36873 0,7.94095 -3.83761,14.49742 -9.17126,15.66889 -3.82328,0.83973 -4.51018,2.81018 -2.47061,7.0872 3.63189,7.61615 2.20558,10.06325 -9.22157,15.82126 -4.64503,2.34058 -5.74046,2.54642 -8.17815,1.53669 -5.54718,-2.29772 -4.5677,-6.20307 1.99927,-7.97138 4.63231,-1.24735 7.92202,-4.53169 6.23194,-6.22177 -0.88417,-0.88417 -1.70594,-0.67747 -3.42638,0.86186 -1.24478,1.11374 -3.94482,3.03082 -6.00008,4.26018 -2.05526,1.22935 -4.47639,3.48716 -5.3803,5.01735 -0.91716,1.55263 -4.06525,3.96992 -7.12344,5.4698 -5.04274,2.47319 -6.12941,2.6377 -13.6197,2.06184 -6.17262,-0.47456 -9.19719,-0.24334 -12.51545,0.95678 -5.2743,1.90756 -5.29633,1.90846 -7.48757,0.30619 z M 359.75,552.31674 c -1.18541,-1.24531 -0.87361,-5.11174 0.5,-6.20004 0.6875,-0.5447 7.06461,-1.30086 14.17136,-1.68035 11.77098,-0.62856 18.4474,-1.70256 37.57864,-6.04508 23.43866,-5.32026 39.10998,-13.71275 62.60741,-33.52826 18.19737,-15.34594 36.37802,-32.21303 39.91444,-37.03059 2.00667,-2.73363 4.30115,-4.97024 5.09886,-4.97024 1.67936,0 5.37929,8.001 5.37929,11.63257 0,1.35671 -0.64726,3.71841 -1.43835,5.24821 -1.55934,3.01543 -19.49924,19.49607 -27.2655,25.04769 -29.57078,21.13831 -34.04266,23.98257 -43.92135,27.93545 -2.68114,1.07284 -8.2498,3.37899 -12.3748,5.12477 -9.23952,3.91036 -26.29985,8.46654 -43.5,11.61724 -13.65271,2.50088 -35.47114,4.19211 -36.75,2.84863 z"
         id="path3069"
         inkscape:connector-curvature="0" />
      <path
         style="fill:#b3a39a"
         d="m 544.00415,843.36719 c -0.99931,-1.20411 -0.92585,-1.97557 0.37756,-3.96482 0.89006,-1.3584 1.61829,-2.92651 1.61829,-3.48468 0,-1.19373 -7.22639,-5.05551 -9.46016,-5.05551 -1.5157,0 -1.66034,0.60329 -1.91794,8 -0.0945,2.71241 -0.58142,3.56578 -2.16398,3.7923 -1.48413,0.21244 -2.64535,-0.78105 -4.25,-3.63615 C 526.99356,836.85768 526,834.13424 526,832.96624 c 0,-1.168 -0.9,-2.89424 -2,-3.83609 -1.55868,-1.33458 -1.99515,-2.9322 -1.97804,-7.24021 0.0551,-13.87211 7.07941,-19.35692 32.55163,-25.4174 7.39029,-1.75833 9.86842,-1.50685 10.86994,1.10308 0.52979,1.3806 0.82012,1.35793 2.53967,-0.19824 1.06783,-0.96637 2.46935,-3.39012 3.11448,-5.38612 2.39224,-7.40141 5.03155,-11.05719 15.67726,-21.71497 7.12428,-7.13236 12.01258,-12.99311 14.10763,-16.91411 2.68258,-5.02058 8.69173,-25.417 11.49009,-39 0.33993,-1.65 1.51332,-7.5 2.60753,-13 3.4861,-17.52272 4.47462,-20.96391 6.11279,-21.27939 2.90592,-0.55963 3.68388,3.70846 2.2252,12.20813 -1.92864,11.2382 -0.2972,11.4929 4.0497,0.63224 4.19641,-10.48466 4.50927,-14.89336 1.41525,-19.94295 C 624.21038,665.5173 612.15429,650.14588 597,632.45699 561.0302,590.47114 557.06845,582.22982 537.10501,507.86218 528.09762,474.30795 523.47523,459.47305 518.60459,448.48775 517.17207,445.25681 516,441.99431 516,441.23775 c 0,-2.20808 3.23151,-1.60805 10.09484,1.87443 6.24405,3.16825 6.48674,3.44106 9.64827,10.84578 4.65148,10.89439 8.54779,26.70849 15.25209,61.90422 1.62389,8.525 3.68879,19.325 4.58866,24 2.3836,12.38326 8.97578,34.17797 12.91939,42.7134 6.0598,13.11565 11.75997,20.29061 33.42477,42.07267 18.50323,18.60338 21.05479,20.83207 21.64032,18.90199 0.36508,-1.20343 1.66987,-3.53806 2.89951,-5.18806 5.36881,-7.20413 6.95129,-12.93312 5.58804,-20.23021 -0.70269,-3.76132 -0.54886,-4.56949 1.06114,-5.57495 1.21831,-0.76085 1.88297,-2.32647 1.88297,-4.43539 0,-5.63481 2.42896,-3.68339 6.83413,5.49055 2.78144,5.79244 6.21815,10.92434 10.16757,15.18283 6.18201,6.66579 8.78616,7.60836 5.15063,1.86427 -1.14773,-1.8134 -4.74139,-8.4721 -7.9859,-14.7971 -12.73944,-24.83485 -15.12046,-44.11709 -11.23691,-91 2.16092,-26.08689 2.3872,-35.03349 1.10744,-43.78565 -1.77376,-12.13066 -4.31954,-20.47598 -9.01324,-29.54633 -4.17143,-8.06109 -4.83653,-11.78999 -2.87196,-16.10175 1.2291,-2.69759 4.10436,-4.14404 5.95902,-2.9978 1.74272,1.07706 9.88922,19.25737 9.88922,22.06949 0,2.02572 0.37023,2.37931 1.96223,1.87403 6.66341,-2.11489 10.16167,8.16947 10.71073,31.48801 0.44891,19.06477 -0.83826,27.5 -4.19635,27.5 -1.87827,0 -2.00328,-0.92043 -2.51266,-18.5 -0.76366,-26.35545 -2.4171,-27.08484 -2.68823,-1.18587 -0.1191,11.37723 -0.95944,28.56087 -1.86742,38.18587 -1.87285,19.85308 -1.43438,39.04463 1.15198,50.42162 2.57182,11.31307 3.29624,12.01555 3.37204,3.26993 0.0372,-4.29464 0.5124,-11.04464 1.05594,-15 0.54354,-3.95535 1.44745,-10.56655 2.00868,-14.69155 0.56123,-4.125 2.00565,-13.8 3.20981,-21.5 1.92364,-12.30078 2.19891,-18.18737 2.26796,-48.5 l 0.0786,-34.5 3.66071,-0.30663 c 3.47295,-0.2909 3.71548,-0.11139 4.72848,3.5 0.58728,2.09365 1.80372,8.08163 2.70321,13.30663 1.92792,11.19906 1.3729,36.28955 -1.03967,47 -0.80529,3.575 -2.8352,12.575 -4.51092,20 -4.60259,20.39376 -6.08831,30.96901 -6.74354,48 -0.54648,14.20418 -0.77337,15.6409 -2.71398,17.18535 l -2.11764,1.68535 2.76567,5.31465 c 5.88641,11.31163 16.01993,22.65218 24.46336,27.37724 7.2269,4.04428 7.10154,7.15135 -0.49829,12.34995 -2.05723,1.40723 -3.98332,1.98971 -5.25,1.58768 -1.52192,-0.48304 -2.0007,-0.18014 -2.0007,1.26573 0,3.14292 1.07564,3.27814 4.61322,0.5799 8.90425,-6.79161 8.22521,4.36859 -1.40436,23.08075 -5.46093,10.61169 -17.92639,24.16691 -23.19259,25.22015 l -3.11711,0.62342 3.23952,2.70447 3.23952,2.70447 -4.61792,7.91044 c -8.41747,14.419 -13.56976,27.55833 -21.92402,55.91045 -2.75508,9.35 -6.07982,20.6 -7.3883,25 -1.30848,4.4 -3.10088,9.02079 -3.98312,10.26843 -2.19236,3.10038 -10.65241,7.23157 -14.80915,7.23157 -3.89802,0 -4.95682,1.02757 -9.15569,8.88561 -2.52639,4.72805 -3.67095,5.84633 -7.25,7.08356 -2.3375,0.80804 -4.25,1.82418 -4.25,2.25809 0,0.43392 1.76527,1.49526 3.92283,2.35854 3.82188,1.52921 5.63296,3.70589 4.54634,5.46408 -0.60441,0.97796 -8.28619,3.28018 -16.29546,4.88373 -8.39977,1.68174 -27.65291,1.39884 -29.16956,-0.4286 z M 538,811.84831 c 5.25758,-3.47884 4.90854,-3.73315 -1.40774,-1.02568 -2.85255,1.22275 -5.32826,3.1983 -6.57917,5.25 -2.86916,4.70592 -2.43355,5.85874 0.76381,2.0214 1.49771,-1.79748 4.7481,-4.60806 7.2231,-6.24572 z m 18.91264,-3.73613 c 4.29486,-2.44446 3.84123,-3.22242 -1.16264,-1.99392 -5.03474,1.23608 -5.14094,1.30234 -4.29112,2.67739 0.90782,1.46888 1.88792,1.34606 5.45376,-0.68347 z m 8.62848,-5.31653 c 1.07627,-1.74144 -0.14952,-2.11024 -1.52106,-0.45764 -0.78875,0.95039 -0.86462,1.52417 -0.20152,1.52417 0.58488,0 1.36004,-0.47994 1.72258,-1.06653 z m 23.86091,-17.07249 c 9.67873,-9.17201 15.23399,-16.46991 14.4064,-18.92558 -0.32411,-0.96173 -21.12551,20.89241 -24.80666,26.06212 -3.92964,5.51866 -0.39382,3.09242 10.40026,-7.13654 z m -286.89408,52.2804 c -1.09563,-0.46055 -6.04563,-0.64632 -11,-0.41281 -7.96385,0.37535 -9.52954,0.15489 -13.50795,-1.90201 -4.30015,-2.22323 -4.51375,-2.54275 -4.80961,-7.19458 -0.45167,-7.10166 3.45202,-14.4871 12.14028,-22.96831 9.63228,-9.40275 10.96541,-10.19788 14.5845,-8.69881 4.93309,2.04335 7.08483,0.087 7.08483,-6.44144 0,-4.7869 0.94511,-7.27451 8.25,-21.71482 l 8.25,-16.3086 0,-26.94042 0,-26.94043 -2.6881,-3.71546 C 313.26886,684.33994 309,671.80462 309,660.08072 c 0,-9.419 1.3258,-11.54554 5.49499,-8.81378 1.37776,0.90274 2.50501,1.42793 2.50501,1.16708 0,-1.51665 -3.01921,-11.60966 -4.359,-14.57184 -0.87067,-1.925 -4.11813,-10.025 -7.21658,-18 -3.09844,-7.975 -6.97719,-17.875 -8.61944,-22 -7.00271,-17.58943 -10.0964,-28.3548 -10.20176,-35.5 l -0.10322,-7 3.5,-0.29451 c 5.7005,-0.47966 7.10135,1.32751 8.03012,10.35938 1.20339,11.70242 4.80514,25.40209 9.31618,35.43513 7.93236,17.64243 14.86055,38.54021 16.25025,49.01629 0.58271,4.39267 0.41993,4.92681 -1.98084,6.49985 -2.35807,1.54507 -2.61571,2.32808 -2.61571,7.94965 0,6.22285 1.49846,12.53421 2.9759,12.53421 0.42914,0 1.7848,-2.68613 3.01257,-5.96918 3.37017,-9.01175 5.4505,-9.95019 8.59172,-3.87575 2.02675,3.91931 6.39903,23.19436 6.41075,28.2616 0.005,2.15416 0.34596,3.57976 0.75773,3.168 1.15448,-1.15449 3.08466,-13.39032 3.16831,-20.08467 0.0922,-7.37799 -2.42467,-23.38596 -4.43235,-28.19102 -1.86702,-4.46842 -1.89198,-13.80028 -0.07,-26.18965 0.77803,-5.29063 1.90447,-13.44433 2.50322,-18.11933 0.59874,-4.675 1.53718,-11.7362 2.08541,-15.69155 1.2252,-8.8395 1.26195,-26.69811 0.0719,-34.92245 -0.72573,-5.01528 -1.9486,-7.71087 -6.80488,-15 -8.58686,-12.88864 -9.98254,-15.37447 -12.62372,-22.48393 -3.59896,-9.68761 -4.08814,-15.66791 -1.61351,-19.72543 2.50446,-4.10643 4.11987,-3.70557 5.6273,1.3964 6.08866,20.60739 10.14079,28.08914 18.64467,34.4251 l 4.69507,3.49814 -0.009,28.50186 c -0.009,29.43522 -0.99316,39.39141 -5.43282,54.96979 -2.79834,9.81913 -1.84431,20.83758 4.44687,51.35836 1.35334,6.56556 1.19779,12.9316 -0.50517,20.67371 -1.7081,7.76551 -1.90351,23.32727 -0.43983,35.02623 1.14615,9.16089 6.7185,27.13617 8.59255,27.71782 0.63551,0.19724 1.98159,-2.02073 3,-4.94314 3.04046,-8.72485 2.3904,-22.67438 -1.69166,-36.30091 -1.81239,-6.05 -4.34505,-13.37533 -5.62815,-16.27851 -1.2831,-2.90319 -2.33291,-5.94069 -2.33291,-6.75 0,-3.0449 3.58634,-1.33125 6.34182,3.0303 1.56301,2.47401 3.22222,4.49821 3.68713,4.49821 1.17004,0 0.19452,-5.7948 -2.86183,-17 -3.23195,-11.84896 -3.29282,-17.88851 -0.24944,-24.75 3.41864,-7.70756 5.26212,-7.14487 8.73759,2.66701 1.54236,4.35435 3.09178,7.73932 3.44316,7.52216 2.43904,-1.50741 0.97378,-18.69869 -2.0801,-24.40492 -0.53978,-1.00859 -1.44409,-10.5414 -2.00958,-21.18403 -0.93417,-17.58116 -2.16436,-30.99358 -5.15486,-56.20211 -1.20075,-10.12173 -0.58481,-11.7578 3.69279,-9.80879 1.43051,0.65178 4.40072,2.6314 6.60045,4.39916 3.29451,2.64754 3.89642,3.65895 3.41468,5.73781 -0.32166,1.38804 -1.0239,17.28844 -1.56054,35.33422 l -0.9757,32.8105 2.62691,6.1895 c 3.41602,8.04876 3.80235,22.37985 0.89929,33.35943 -1.80648,6.83223 -1.81821,7.5623 -0.2491,15.5 1.5421,7.80104 8.52878,30.09735 14.04776,44.83006 1.33922,3.575 3.17538,10.45155 4.08035,15.28122 1.54264,8.23279 1.53864,8.96197 -0.0642,11.67528 -0.94026,1.59173 -3.8824,4.55108 -6.5381,6.57634 -5.32826,4.06339 -5.78799,5.02786 -2.84221,5.96282 2.43325,0.77228 9.01368,12.24542 9.01368,15.71558 0,3.43725 -3.00681,6.98395 -8.30258,9.79335 -3.96545,2.10367 -4.75645,2.2136 -7.56303,1.05108 C 376.41048,799.20378 375,797.94425 375,797.11889 c 0,-1.28959 -0.31646,-1.26842 -2.25,0.15057 -3.36536,2.46975 -12.0202,6.57181 -13.88922,6.58295 -0.90156,0.005 -2.68697,-0.83865 -3.96756,-1.87561 -1.99611,-1.61636 -2.13714,-2.11578 -0.98834,-3.5 0.737,-0.88804 2.15982,-1.61462 3.1618,-1.61462 1.00199,0 3.02975,-1.03904 4.50614,-2.30898 l 2.68435,-2.30898 -5.33541,-2.64047 -5.33542,-2.64047 -5.23331,4.94945 c -2.87832,2.7222 -5.56231,4.94945 -5.96443,4.94945 -0.40211,0 -1.5663,-0.75583 -2.58708,-1.67962 -1.75809,-1.59105 -2.01058,-1.49877 -4.7881,1.75 -1.61268,1.88629 -2.95043,4.00987 -2.97278,4.71907 -0.0224,0.7092 1.51143,3.59413 3.40839,6.41097 2.96878,4.40838 3.28208,5.41241 2.25,7.21055 -0.65946,1.14897 -2.34279,5.00875 -3.74072,8.57729 -2.86346,7.30968 -5.95421,10.01579 -14.36993,12.58163 -6.33409,1.93118 -14.44868,2.67776 -17.08043,1.57149 z m 77.90396,-44.66902 c 5.55378,-2.32052 6.44782,-5.32963 3.21996,-10.83756 C 382.18434,780.02696 381,777.07367 381,775.93411 c 0,-1.24148 -0.64796,-2.07193 -1.61663,-2.07193 -1.2064,0 -1.4483,0.57096 -0.95326,2.25 0.36485,1.2375 0.9337,4.88017 1.26412,8.09483 0.5717,5.56224 0.46065,5.95939 -2.29674,8.21404 -3.35532,2.74356 -2.20202,3.09306 3.01442,0.91349 z m -32.27539,-14.97236 c 2.4753,-5.44154 2.32021,-9.05468 -0.73533,-17.13094 -2.42473,-6.40896 -3.31038,-11.03673 -3.35929,-17.55332 -0.0111,-1.47635 -0.47504,-2.9654 -1.03102,-3.30902 -1.32181,-0.81692 -1.24773,0.92243 0.57471,13.49328 2.70617,18.66661 2.74467,19.58249 1.03433,24.60207 -0.89096,2.61482 -1.61992,5.17915 -1.61992,5.69851 0,1.89394 3.36491,-1.90599 5.13652,-5.80058 z m -21.65526,-7.74884 c 1.75452,-5.90813 1.86893,-7.08563 0.61305,-6.30945 -1.40349,0.86741 -7.19347,17.58882 -6.48645,18.73281 0.73124,1.18318 3.69327,-5.08208 5.8734,-12.42336 z m 36.43815,-9.81124 c -1.06809,-0.66784 -1.49975,-0.25431 -1.74398,1.67076 -0.17852,1.40705 -0.003,3.30775 0.39072,4.22379 0.55653,1.29587 0.9436,0.92506 1.74398,-1.67075 0.81133,-2.63135 0.72877,-3.52381 -0.39072,-4.2238 z M 379.5,766.86218 c 0.33992,-0.55 0.16803,-1 -0.38197,-1 -0.55,0 -1.27811,0.45 -1.61803,1 -0.33992,0.55 -0.16803,1 0.38197,1 0.55,0 1.27811,-0.45 1.61803,-1 z m -43.16968,58.41842 c -0.3338,-0.86986 0.35533,-3.29363 1.53139,-5.38615 2.67086,-4.75215 2.71258,-8.98624 0.13829,-14.03227 -2.36069,-4.62734 -2.53029,-6.85928 -0.57814,-7.60839 2.47863,-0.95114 5.50037,1.5214 8.07949,6.61105 3.02036,5.96041 3.16902,10.76297 0.49538,16.00374 -2.82895,5.54521 -8.2773,8.03199 -9.66641,4.41202 z m 335.30638,0.3052 c -2.52641,-1.84736 -1.21365,-4.04478 3.90082,-6.52959 3.9799,-1.93358 5.92128,-4.19403 3.60203,-4.19403 -0.47325,0 -2.55634,-1.15086 -4.62908,-2.55746 -2.07274,-1.4066 -4.36035,-2.33039 -5.08357,-2.05286 -0.72321,0.27752 -1.86296,2.33372 -2.53276,4.56933 -1.52982,5.10608 -2.4926,5.88715 -8.22529,6.6729 -6.42854,0.88113 -6.84458,-0.8725 -2.35663,-9.93326 2.39095,-4.8271 5.0616,-8.44492 8.10656,-10.98159 4.71318,-3.92642 15.864,-9.7149 18.71727,-9.71627 2.66022,-10e-4 13.58746,-7.82678 17.36323,-12.43461 5.79502,-7.07205 6.79932,-18.17153 3.94197,-43.56618 -0.83544,-7.425 -1.79471,-16.2 -2.13169,-19.5 -0.60714,-5.94559 -3.83672,-14.83729 -14.32718,-39.44574 -2.84297,-6.66901 -4.9034,-12.81771 -4.57873,-13.66377 1.81729,-4.73579 6.48497,2.53127 18.09635,28.17404 4.99406,11.02896 5.26053,9.84823 2.97446,-13.1798 -2.19706,-22.13145 -1.76876,-35.52588 1.30242,-40.73114 1.22272,-2.07235 2.22312,-3.92886 2.22312,-4.12558 0,-0.19672 -2.1502,-1.93606 -4.77822,-3.86521 -8.81173,-6.4684 -24.22648,-27.2878 -29.73666,-40.1628 -4.62447,-10.80544 -6.73557,-16.78707 -9.13427,-25.8812 -2.46513,-9.34594 -2.54078,-10.31239 -1.31561,-16.80555 1.36955,-7.25837 2.98551,-10.53649 4.67827,-9.49031 1.03864,0.64192 1.52841,2.87588 3.32579,15.16986 1.27524,8.72253 6.05394,23.80482 9.92174,31.31447 2.8126,5.4609 6.52734,11.50984 12.17064,19.81823 4.6437,6.83671 17.98181,18.85723 24.11832,21.73581 6.35659,2.98183 6.6725,3.77261 4.25,10.63869 -2.51523,7.12891 -1.24167,9.48389 2.53342,4.68464 2.36683,-3.00893 9.69002,-6.3612 11.01087,-5.04035 0.63727,0.63727 0.26097,3.04684 -1.08021,6.91683 -4.05606,11.70385 -6.17088,30.1667 -5.66295,49.43888 0.25367,9.625 0.93266,19.075 1.50885,21 0.5762,1.925 2.48293,8.675 4.23718,15 1.75425,6.325 4.01219,14.2 5.01766,17.5 5.89606,19.35127 8.93518,31.72134 8.93518,36.36873 0,7.94095 -3.83761,14.49742 -9.17126,15.66889 -3.82328,0.83973 -4.51018,2.81018 -2.47061,7.0872 3.63189,7.61615 2.20558,10.06325 -9.22157,15.82126 -4.64503,2.34058 -5.74046,2.54642 -8.17815,1.53669 -5.54718,-2.29772 -4.5677,-6.20307 1.99927,-7.97138 4.5449,-1.22381 7.91817,-4.53554 6.28418,-6.16953 -1.38298,-1.38298 -13.11405,6.68229 -15.09017,10.37471 -0.71918,1.34379 -3.79714,3.66424 -6.83992,5.15656 -5.10128,2.5019 -6.16651,2.66455 -13.67205,2.08752 -6.17262,-0.47456 -9.19719,-0.24334 -12.51545,0.95678 -5.2743,1.90756 -5.29633,1.90846 -7.48757,0.30619 z M 269.88242,553.43711 c -10.72528,-7.19503 -20.16101,-19.61134 -27.41502,-36.07493 -1.45401,-3.3 -3.93945,-8.72568 -5.52321,-12.05706 -3.83904,-8.07533 -7.93854,-23.67754 -7.94167,-30.22506 -0.004,-7.45394 1.81476,-10.97977 9.02947,-17.50871 9.24394,-8.36529 10.13876,-7.85116 7.46801,4.29083 -2.64769,12.03714 -1.1908,27.05598 4.36711,45.01976 5.90264,19.07794 14.19923,33.94047 24.52743,43.93845 4.54683,4.40145 5.80096,7.04179 3.34478,7.04179 -0.69337,0 -4.22897,-1.99128 -7.8569,-4.42507 z M 359.75,552.31674 c -1.18541,-1.24531 -0.87361,-5.11174 0.5,-6.20004 0.6875,-0.5447 7.06461,-1.30086 14.17136,-1.68035 11.77098,-0.62856 18.4474,-1.70256 37.57864,-6.04508 23.43866,-5.32026 39.10998,-13.71275 62.60741,-33.52826 18.19737,-15.34594 36.37802,-32.21303 39.91444,-37.03059 2.00667,-2.73363 4.30115,-4.97024 5.09886,-4.97024 1.67936,0 5.37929,8.001 5.37929,11.63257 0,1.35671 -0.64726,3.71841 -1.43835,5.24821 -1.55934,3.01543 -19.49924,19.49607 -27.2655,25.04769 -29.57078,21.13831 -34.04266,23.98257 -43.92135,27.93545 -2.68114,1.07284 -8.2498,3.37899 -12.3748,5.12477 -9.23952,3.91036 -26.29985,8.46654 -43.5,11.61724 -13.65271,2.50088 -35.47114,4.19211 -36.75,2.84863 z M 230.85049,530.29938 c -8.82824,-5.87857 -17.48632,-17.01778 -26.62523,-34.25514 -6.20535,-11.70421 -6.37693,-13.80244 -1.92408,-23.52874 3.57394,-7.80651 8.69012,-10.0658 8.70545,-3.8443 0.004,1.48004 0.89455,7.84823 1.97978,14.15155 2.79312,16.22322 8.08383,26.55658 20.21503,39.48229 4.91572,5.23766 8.65482,9.9807 8.3091,10.54008 -1.21743,1.96986 -5.36681,0.97894 -10.66005,-2.54574 z M 179.0815,517.31637 c -10.33826,-2.35521 -27.2158,-12.32642 -38.80971,-22.92868 -19.70652,-18.02098 -27.96793,-41.73575 -31.18759,-89.52551 -0.57435,-8.525 -1.53215,-22.7 -2.12846,-31.5 -1.21314,-17.90286 -3.13919,-33.16746 -5.43297,-43.05804 -0.84373,-3.63808 -1.25158,-7.07174 -0.90633,-7.63036 0.34524,-0.55862 2.26028,-1.70181 4.25564,-2.54044 3.31387,-1.39278 3.44519,-1.59311 1.51702,-2.31428 -2.62217,-0.98074 -3.78744,-3.77199 -2.31525,-5.54587 0.6096,-0.73452 3.53975,-2.24519 6.51146,-3.35704 10.1176,-3.78548 18.35619,-10.67011 21.31418,-17.81131 2.6956,-6.50777 6.99736,-2.8207 7.78091,6.6691 0.42853,5.19001 0.23889,5.81992 -2.66114,8.83927 -3.53777,3.68332 -7.49668,5.93737 -13.43537,7.64956 -4.02076,1.15923 -4.0875,1.25411 -4.31751,6.13842 -0.12849,2.72854 -0.95859,11.93599 -1.84466,20.46099 -4.06076,39.06916 2.395,105.20154 12.43016,127.33359 3.9798,8.77728 15.0432,19.93245 24.64812,24.8526 11.96064,6.12686 22.04587,9.17959 30.5,9.23214 4.125,0.0256 8.96298,-0.33934 10.75107,-0.81107 3.01143,-0.79447 3.54758,-0.53519 7.27381,3.51753 5.07092,5.51522 4.8441,7.56389 -1.17993,10.65726 -5.84379,3.00082 -14.22781,3.61668 -22.76345,1.67214 z m 472.68749,-68.20419 c -2.18823,-2.48503 -5.80354,-9.96897 -11.23153,-23.25 C 628.14997,395.55281 621.32091,387.73441 593,371.43786 570.35122,358.40519 560.76843,351.96698 550.89802,343.1516 c -4.18109,-3.73418 -9.69868,-8.50357 -12.26132,-10.59865 -2.56263,-2.09508 -6.94396,-6.82008 -9.73629,-10.5 -4.93189,-6.49959 -15.20161,-26.48156 -20.91298,-40.69077 -3.41265,-8.49025 -10.36302,-21.27194 -13.03551,-23.97222 C 493.00996,255.4278 493,255.42912 493,257.64929 c 0,3.01641 -12.24707,9.36582 -14.23358,7.37931 -1.00424,-1.00424 -0.90066,-1.86741 0.52143,-4.34524 0.97603,-1.70064 1.53649,-3.33018 1.24546,-3.6212 -0.29102,-0.29102 -2.99888,0.72045 -6.01746,2.24771 -6.52238,3.30002 -9.03065,2.87631 -8.17906,-1.38165 l 0.58064,-2.90317 -6.43676,2.91857 C 452.74562,261.45086 450,261.67898 450,258.81443 c 0,-2.61266 4.15883,-6.47993 10.34943,-9.62389 2.66719,-1.35455 4.58972,-2.72254 4.2723,-3.03997 -0.79479,-0.79479 -9.05691,2.37029 -15.24346,5.83951 -8.38401,4.70149 -11.10773,3.55265 -6.52685,-2.75297 1.90314,-2.61969 4.73171,-4.73273 8.73181,-6.52295 3.25422,-1.45641 7.04177,-3.14888 8.41677,-3.76104 2.05327,-0.91414 1.4616,-1.00749 -3.31115,-0.52239 -8.39238,0.853 -25,6.51457 -35.29197,12.03111 -8.58631,4.6023 -37.91263,23.82522 -61.10838,40.05553 -21.09826,14.76269 -50.00989,30.85035 -64.05039,35.64037 -6.93937,2.36742 -17.08812,11.77014 -20.51427,19.00627 -1.37586,2.90585 -4.87194,11.96649 -7.76908,20.13476 -9.58835,27.03362 -16.13543,36.35536 -30.88395,43.97268 -7.05886,3.64576 -9.91128,4.59073 -13.85721,4.59073 -8.96296,0 -9.88003,-5.04862 -1.48516,-8.17595 7.69819,-2.86779 16.72423,-13.72607 23.96025,-28.82405 16.01419,-33.41369 15.07587,-31.83881 24.75525,-41.54938 9.55275,-9.58354 19.93519,-16.40287 31.89558,-20.94947 26.51793,-10.08049 57.70474,-30.76848 84.84708,-56.28395 11.69465,-10.99367 22.34948,-18.02532 33.01548,-21.7885 11.57057,-4.08233 30.92469,-5.94527 47.60128,-4.58187 10.94241,0.89459 13.47986,1.97314 17.58824,7.47586 1.87664,2.51355 1.90119,2.81309 0.35713,4.35715 -1.54405,1.54405 -2.13068,1.44018 -8.53314,-1.5109 -7.70413,-3.55106 -10.76606,-4.04581 -9.82258,-1.58715 0.33385,0.86998 0.60699,2.20652 0.60699,2.9701 0,0.97673 1.11173,1.32306 3.75,1.16821 3.50893,-0.20595 3.7471,-0.0386 3.70492,2.60275 -0.0424,2.65447 0.15063,2.78613 3.23599,2.20731 3.68966,-0.69218 7.30909,0.79589 7.30909,3.00502 0,0.80565 0.8632,1.46482 1.91821,1.46482 1.05502,0 2.63841,0.27636 3.51865,0.61414 1.37291,0.52684 1.45033,0.21936 0.54463,-2.16283 -1.5139,-3.98184 -0.0193,-5.07882 4.90827,-3.60249 6.14343,1.84062 13.8926,8.27209 17.84434,14.81001 4.61783,7.63994 6.55799,12.25039 11.33781,26.94239 2.17968,6.6998 5.94196,16.39286 8.36062,21.54012 3.95806,8.42334 5.27381,10.15662 13.16524,17.34299 25.31815,23.05611 34.53688,29.20755 56.96869,38.01391 22.84771,8.96963 35.99689,21.60135 46.14471,44.32877 7.18474,16.09118 10.63524,32.46916 7.76386,36.85145 -1.80754,2.75864 -4.57264,2.99431 -6.70604,0.57154 z m -449.42563,-28.3091 c -12.64751,-6.26048 -17.37006,-18.56224 -17.25248,-44.9409 0.0282,-6.325 0.42429,-15.325 0.88022,-20 3.87515,-39.73477 4.20943,-45.20846 3.66697,-60.04447 -0.38674,-10.57693 -1.05886,-16.71838 -2.10322,-19.21788 C 186.69068,274.57945 186,271.78696 186,270.3943 c 0,-2.85404 -0.50935,-2.95269 -7.95476,-1.5407 -6.46254,1.2256 -12.95532,-0.20236 -16.08951,-3.53854 -2.45555,-2.61382 -2.01731,-6.07422 0.64012,-5.05447 0.86844,0.33325 3.45215,0.86157 5.74157,1.17404 l 4.16258,0.56813 -6.44078,-3.56345 c -3.54242,-1.9599 -7.21335,-3.80866 -8.15762,-4.10836 -2.04308,-0.64845 -3.06237,-2.88624 -2.26323,-4.96877 0.76105,-1.98325 2.30457,-1.89362 8.6009,0.4995 6.1431,2.33486 6.56282,2.40259 4.96073,0.8005 -1.72453,-1.72453 -1.47775,-4.59817 0.42737,-4.97668 3.43296,-0.68205 -16.15648,-12.34791 -26.62737,-15.85707 -10.06933,-3.37458 -21.23153,-1.58443 -32.3563,5.18919 -5.93864,3.6159 -9.7006,3.50689 -11.038237,-0.31985 -0.77419,-2.21482 -0.348729,-3.64912 2.521367,-8.5 3.02293,-5.10919 4.07015,-6.04345 8.41294,-7.50542 6.69642,-2.2543 19.23873,-2.24228 27.54224,0.0264 7.04844,1.92577 19.7181,8.59311 29.33053,15.43502 7.26115,5.16833 8.52869,6.97162 6.82169,9.70496 -0.68815,1.1019 -1.13486,2.00435 -0.9927,2.00544 0.14216,0.001 6.71223,0.68234 14.60015,1.51389 13.9186,1.46729 18.15832,2.52182 18.15832,4.51643 0,1.91924 -7.52206,9.2254 -12.31808,11.96453 l -4.91278,2.8058 2.86543,1.7833 c 4.47523,2.78517 7.42137,5.65622 9.08312,8.85165 2.48794,4.78409 1.58779,20.29507 -2.64412,45.56242 -1.05934,6.325 -2.66386,15.96659 -3.56559,21.42575 -2.58099,15.62551 -3.14573,39.63977 -1.11709,47.50139 1.92541,7.46153 7.14227,14.56203 12.2745,16.70641 2.44643,1.02219 3.33461,2.02307 3.33461,3.75775 0,1.30045 0.675,3.97995 1.5,5.95446 0.825,1.9745 1.5,3.82946 1.5,4.12212 0,1.28093 -5.8542,0.35521 -9.65664,-1.52698 z M 26.868574,317.35233 c -1.447285,-0.78637 -2.898401,-2.12549 -3.224703,-2.97582 -0.455454,-1.1869 -1.493337,-1.40213 -4.467725,-0.92651 C 10.457597,314.84416 6.2973627,309.33213 7.368618,297.80585 7.9662192,291.37589 7.7838027,290.37686 5.0081346,284.87829 3.3536606,281.6008 2,277.98845 2,276.85086 c 0,-9.3809 18.976362,-25.42761 45,-38.05271 17.319905,-8.40257 25.85921,-10.93941 36.799221,-10.93223 6.554305,0.004 11.543432,2.45943 13.43521,6.61143 1.059566,2.3255 0.921061,2.8405 -1.233026,4.58478 -1.832791,1.4841 -3.170011,1.7873 -5.464039,1.23893 -18.711316,-4.47287 -44.21934,2.70394 -61.287366,17.2435 -2.8875,2.45975 -5.249376,4.77497 -5.248614,5.14494 7.62e-4,0.36998 2.736817,1.47655 6.080121,2.45905 16.578563,4.87199 33.161402,15.67817 34.525462,22.49848 0.799992,3.99996 0.494562,3.76759 15.39524,11.71219 14.624509,7.79735 20.923881,12.26911 20.966871,14.8838 0.0426,2.5893 -3.811364,1.87291 -17.988296,-3.34378 -14.733024,-5.42132 -21.194362,-7.03706 -28.141193,-7.03706 -4.372223,0 -5.967891,-0.40684 -6.695578,-1.70715 -0.776457,-1.38745 -1.169059,-0.87246 -2.096467,2.75 -0.627604,2.45143 -1.646689,5.74787 -2.264632,7.32542 -2.246029,5.73389 -10.941737,8.36707 -16.91434,5.12188 z M 486.33166,271.2841 c -0.98712,-2.5724 2.9567,-6.92192 6.27626,-6.92192 2.21356,0 2.96516,0.51345 3.20357,2.18851 0.64565,4.53623 -7.91519,8.81078 -9.47983,4.73341 z M 107.21355,258.93046 c -4.38794,-3.29703 -8.689194,-5.34937 -17.96355,-8.57126 -3.790686,-1.31688 2.115955,-8.40973 7.04966,-8.46542 3.89325,-0.0439 7.72625,2.1478 11.96892,6.84392 4.21618,4.66681 6.73142,9.17865 6.73142,12.07482 0,2.99601 -1.90818,2.53479 -7.78645,-1.88206 z"
         id="path3067"
         inkscape:connector-curvature="0" />
      <path
         style="fill:#252321"
         d="m 545.38671,842.42754 c -1.24804,-3.25232 2.25563,-5.31956 9.92205,-5.85421 3.95518,-0.27583 10.84555,-1.20348 15.31193,-2.06143 8.62968,-1.65769 13.97308,-1.04904 16.39343,1.8673 1.03108,1.24237 0.61406,1.74039 -2.57209,3.07165 -5.82584,2.43419 -12.78414,3.52217 -26.18404,4.09407 -10.72736,0.45783 -12.31987,0.31958 -12.87128,-1.11738 z m -14.59768,-2.30923 C 528.08527,837.01906 527,834.09285 527,829.90195 c 0,-5.04464 5.23294,-12.58914 11.21188,-16.16455 2.18456,-1.30637 5.16808,-3.3735 6.63003,-4.59362 l 2.65809,-2.2184 -2.72976,-0.0316 c -8.65252,-0.10017 -17.16355,6.9218 -18.28658,15.08721 -0.93096,6.76887 -3.0152,5.87927 -2.88341,-1.2307 0.17987,-9.7033 4.59739,-14.64333 16.90102,-18.90011 9.46946,-3.27621 21.43216,-5.45457 22.74497,-4.14176 1.81818,1.81818 -1.92447,4.95852 -8.14839,6.83705 -3.07882,0.92927 -5.9607,1.99103 -6.40418,2.35947 -0.44348,0.36845 0.34402,2.03701 1.75,3.70793 3.97577,4.72493 3.3805,6.31936 -3.73226,9.9969 -3.45465,1.78618 -7.8058,4.5204 -9.66922,6.07604 -3.06539,2.55911 -3.40418,3.36965 -3.55767,8.51164 -0.19673,6.59033 -0.59876,7.32428 -2.69549,4.92086 z M 303.75,836.78208 c -2.82383,-1.64473 -2.09068,-2.52462 4,-4.80053 12.10631,-4.52379 17.89666,-11.47801 19.15482,-23.005 0.32735,-2.99905 1.14422,-5.63468 1.81526,-5.85696 2.07347,-0.6868 5.27345,5.84732 5.261,10.74259 -0.0118,4.64148 -1.60089,10.88215 -3.73105,14.65259 -1.51118,2.67484 -8.43539,6.09408 -16.00398,7.90291 -6.89279,1.64732 -8.21462,1.69321 -10.49605,0.3644 z m -28.55,-4.1199 c -1.97803,-1.97803 -1.36657,-7.57175 1.48706,-13.60384 2.99441,-6.32965 16.01034,-19.83113 20.10988,-20.86004 2.16637,-0.54373 4.13581,0.75162 4.18775,2.75436 0.008,0.32477 -3.53077,3.5588 -7.86486,7.18674 -8.37493,7.01041 -11.16901,11.30804 -13.36662,20.55944 -1.23576,5.20228 -2.347,6.16955 -4.55321,3.96334 z M 586.41386,820.4948 c 3.32273,-8.82768 4.11926,-10.16399 7.48848,-12.56308 1.95352,-1.39103 4.45636,-2.06954 7.63395,-2.06954 4.05557,0 5.17077,-0.4702 7.84563,-3.30795 3.81343,-4.04563 7.14982,-13.23017 9.15133,-25.19205 3.42138,-20.44765 7.64008,-33.48609 16.17794,-50 1.42178,-2.75 3.59449,-8.15 4.82824,-12 4.22922,-13.19754 5.42219,-14.40617 10.42493,-10.56177 l 2.46435,1.89375 -2.78291,4.83401 c -8.94658,15.54048 -15.7955,32.69549 -23.28912,58.33401 -8.58545,29.37408 -9.52678,32.32997 -11.02299,34.61347 -1.95362,2.9816 -10.8437,7.38653 -14.90759,7.38653 -3.64972,0 -4.77866,1.12382 -8.9261,8.88561 -2.09608,3.92274 -3.68351,5.7114 -5.2685,5.93637 l -2.2685,0.32197 2.45086,-6.51133 z m -248.80302,4.54673 c -0.27895,-0.45136 0.34295,-2.2186 1.38202,-3.9272 3.38031,-5.55849 3.53922,-9.63543 0.59503,-15.26608 -2.17758,-4.16456 -2.37715,-5.12971 -1.15746,-5.59775 0.81059,-0.31105 1.9539,-0.26882 2.5407,0.0938 1.61271,0.9967 6.02887,10.16523 6.02887,12.51671 0,3.11714 -2.49527,8.45299 -5.07836,10.85951 -2.46901,2.30023 -3.50868,2.61882 -4.3108,1.32097 z m 334.5827,-1.27673 c 0.25407,-0.77144 2.22696,-2.40772 4.3842,-3.63617 3.3485,-1.90682 5.42124,-2.23596 14.16938,-2.25 l 10.24712,-0.0165 3.79629,-3.42972 c 2.08795,-1.88634 4.43553,-4.69884 5.21684,-6.25 4.0097,-7.9606 7.20894,-10.36482 8.47677,-6.37026 1.28455,4.04727 -7.21893,15.83867 -13.91252,19.29188 -3.31224,1.70878 -6.02992,2.12404 -14.57162,2.22651 -5.775,0.0693 -12.24789,0.51092 -14.38421,0.9814 -3.14471,0.69257 -3.79626,0.58839 -3.42225,-0.54719 z m -17.18377,-4.60731 c 0.019,-3.49289 4.74059,-11.85054 9.05017,-16.01968 4.83701,-4.67937 13.56945,-9.66423 18.91356,-10.79667 6.63155,-1.40525 16.84822,-9.26839 21.24772,-16.35305 2.98453,-4.80608 3.52211,-22.69074 1.28125,-42.62591 -0.92736,-8.25 -1.9135,-17.25 -2.19142,-20 -0.49305,-4.87865 -5.2572,-17.81733 -13.98777,-37.98857 -4.29364,-9.92008 -5.02976,-12.51143 -3.5541,-12.51143 1.0316,0 6.47828,10.01035 10.1047,18.57124 10.39719,24.54462 12.09594,29.20934 13.0322,35.7859 2.27796,16.00105 3.59392,31.79843 3.59392,43.14286 0,11.77902 -0.0634,12.11689 -3.44139,18.34768 -1.89276,3.49122 -4.4879,7.09122 -5.76696,8 -1.27907,0.90878 -4.81604,3.54071 -7.85994,5.84874 -3.87999,2.942 -6.93892,4.40072 -10.23303,4.87986 -2.58428,0.37588 -5.83785,1.2607 -7.23016,1.96625 -4.43938,2.24965 -11.78129,10.94253 -12.50639,14.80766 -0.80406,4.28601 -1.79135,5.17807 -6.71213,6.06473 -3.19359,0.57545 -3.74855,0.40932 -3.74023,-1.11961 z m 63.02658,-0.75151 c -1.59096,-1.917 -0.71291,-3.15849 2.71938,-3.84495 1.53855,-0.30771 4.0644,-1.55613 5.61302,-2.77427 2.37752,-1.87016 2.71345,-2.69793 2.15887,-5.31969 -2.13552,-10.09539 -2.00841,-10.68065 3.73786,-17.21138 7.44358,-8.45975 8.37415,-11.03819 6.95958,-19.28391 -0.62364,-3.63528 -3.42697,-13.5846 -6.22961,-22.1096 -10.46147,-31.82137 -12.77044,-43.1708 -13.62086,-66.95146 -0.95674,-26.75381 1.7515,-38.74051 9.80479,-43.39608 2.02366,-1.16987 3.91798,-1.88844 4.20959,-1.59682 0.29161,0.29161 -0.29577,3.21089 -1.3053,6.48728 -3.66,11.87843 -5.33668,29.01572 -4.81562,49.22037 0.26576,10.30519 0.95784,20.31171 1.53795,22.23671 1.80766,5.9984 6.44141,22.35385 7.22454,25.5 0.41071,1.65 3.25612,11.58813 6.32313,22.08473 4.79442,16.40854 5.43959,19.58015 4.6009,22.61763 -1.65071,5.9784 -5.04484,10.01869 -9.44662,11.24505 -4.79969,1.33722 -5.31866,3.04315 -2.56675,8.43733 3.58769,7.03245 2.63086,8.78128 -7.65136,13.98468 -4.93432,2.49705 -7.58074,2.68992 -9.25349,0.67438 z M 568,802.43603 c 0,-0.86505 1.09569,-3.71054 2.43487,-6.32333 1.33918,-2.61279 3.20186,-6.65047 4.1393,-8.97263 1.13341,-2.80763 5.28534,-7.7628 12.39319,-14.79081 14.11125,-13.95275 17.45805,-19.92115 22.42291,-39.98708 4.63392,-18.72838 5.28126,-21.55735 6.63599,-29 1.86368,-10.23879 4.22712,-19.95816 5.08639,-20.91722 1.68903,-1.88518 2.11481,2.75857 0.93791,10.22935 -2.84524,18.06121 -8.84688,46.10009 -10.59937,49.51891 -0.79815,1.55707 -1.45119,3.42295 -1.45119,4.14639 0,3.09562 -6.11226,15.9561 -9.64806,20.29996 -2.11425,2.59744 -8.12086,9.27941 -13.34801,14.84884 -5.34116,5.69089 -10.8502,12.69897 -12.57757,16 -2.9473,5.63234 -6.42636,8.31085 -6.42636,4.94762 z m -212.5,-1.57385 c -0.96907,-1.56799 0.4018,-3 2.87193,-3 3.42481,0 7.29461,-4.78704 10.08191,-12.47161 3.28958,-9.06932 4.6297,-10.44485 7.43902,-7.63553 3.43024,3.43024 2.91191,10.11884 -1.14286,14.74767 -6.28667,7.17673 -17.08331,11.86525 -19.25,8.35947 z m -43.25219,-0.69605 c -3.25656,-0.64146 -4.53501,-3.8271 -4.02141,-10.02051 0.35655,-4.29955 2.18093,-8.8549 8.76497,-21.88552 l 8.31469,-16.45579 -0.69482,-22.81394 c -0.57932,-19.02185 -0.46059,-23.00833 0.7143,-23.9834 3.26618,-2.71069 3.97116,1.13234 4.46784,24.3555 l 0.47945,22.41709 -3.77461,8.78642 c -6.40609,14.91192 -7.64819,19.34901 -8.33799,29.78527 -0.69821,10.56364 -0.84807,10.81242 -5.91242,9.81488 z m 65.41886,-1.97062 c -1.22952,-1.22952 -0.68395,-2.11218 1.67085,-2.70319 1.28563,-0.32268 3.53563,-1.52912 5,-2.68099 3.47328,-2.73209 3.47425,-6.76537 0.003,-12.01098 -1.98533,-3.00002 -2.37161,-4.30695 -1.52363,-5.15493 1.60431,-1.60431 4.36347,1.11932 7.81796,7.7173 2.58018,4.9281 2.68222,5.53873 1.34353,8.04009 -2.711,5.06557 -11.74901,9.35527 -14.31158,6.7927 z m -37.05647,-4.15503 c -0.71272,-1.1532 1.84239,-5.79081 5.46145,-9.91269 1.68428,-1.91828 3.48218,-4.5921 3.99534,-5.9418 1.55236,-4.08302 1.05298,-11.50656 -1.16537,-17.32381 -1.15356,-3.025 -2.98891,-11.8 -4.07857,-19.5 -1.6504,-11.66243 -1.88351,-17.17242 -1.39613,-33 0.32179,-10.45 0.85134,-22.6 1.17679,-27 0.69017,-9.3311 -0.99874,-23.67318 -3.70533,-31.46534 -2.28701,-6.5842 -2.36392,-11.12298 -0.4137,-24.41533 1.60807,-10.96032 2.8182,-19.93333 4.63499,-34.36829 0.69052,-5.4864 0.95675,-15.74677 0.65442,-25.2216 l -0.50966,-15.97263 -8.08587,-12.34438 c -12.17468,-18.58656 -17.02764,-33.59591 -12.69756,-39.2713 1.97895,-2.59379 3.03856,-0.95545 4.40716,6.81424 2.04738,11.62313 9.90714,24.27927 19.86335,31.98484 2.233,1.72823 2.24834,1.92457 2.22618,28.5 -0.023,27.58963 -1.74364,45.25707 -4.9922,51.25979 -0.8068,1.49081 -1.52879,6.97272 -1.78855,13.57998 -0.35761,9.09626 0.0386,13.57218 2.21281,25 5.285,27.77802 5.06417,25.25747 3.09919,35.37401 -1.46845,7.56014 -1.69235,12.2147 -1.2219,25.40115 0.65285,18.29889 2.43704,26.85247 8.31804,39.87759 3.29695,7.30201 3.58841,8.64196 3.03385,13.94775 -0.77968,7.45954 -2.04344,9.78287 -9.82885,18.06952 -6.05645,6.44638 -8.07557,7.74748 -9.19988,5.9283 z M 379,770.75654 c 0,-0.60811 1.125,-2.44263 2.5,-4.07673 1.375,-1.63409 2.5,-3.78512 2.5,-4.78005 0,-0.99493 0.67223,-3.0979 1.49384,-4.67327 1.90761,-3.65768 1.95405,-15.35476 0.0848,-21.36431 -0.76984,-2.475 -3.51857,-9.675 -6.1083,-16 -6.80505,-16.62023 -8.4289,-21.64863 -9.52663,-29.5 -0.99831,-7.14034 -0.82482,-8.6339 2.66932,-22.97915 1.4711,-6.03961 1.53419,-7.96559 0.46868,-14.30682 -0.6772,-4.03022 -1.86504,-8.84451 -2.63966,-10.69843 -0.8837,-2.11499 -1.79264,-10.56923 -2.43981,-22.69317 -0.91743,-17.18723 -2.53164,-34.94119 -4.98449,-54.82243 -0.44402,-3.59894 -0.4128,-6.91498 0.07,-7.42979 0.97377,-1.03844 3.87108,0.29921 8.10338,3.74121 l 2.69107,2.18858 -0.97941,36.21469 c -0.95882,35.45296 -0.93661,36.2986 1.0561,40.20462 4.00063,7.8419 4.52581,24.41536 1.06233,33.525 -3.12201,8.21153 0.55696,24.14657 14.41991,62.45812 1.4732,4.07133 3.19993,10.97963 3.83718,15.35176 l 1.15863,7.94935 -6.85413,6.39823 C 380.80225,771.79346 379,772.90483 379,770.75654 z m -16.88295,-12.25333 c -0.84947,-1.02355 -0.7056,-2.44277 0.58289,-5.75 1.29959,-3.33571 1.70066,-7.39523 1.66878,-16.89103 -0.0371,-11.0438 -0.39964,-13.66496 -3.11221,-22.5 -1.68864,-5.5 -4.02626,-12.2077 -5.19471,-14.906 -3.08674,-7.12817 -1.96393,-7.92376 2.23609,-1.58444 6.68472,10.08961 12.41957,34.40974 11.36306,48.18796 -0.9088,11.85177 -4.11827,17.57115 -7.5439,13.44351 z m -35.77287,-60.67844 c -4.1668,-1.60126 -10.83954,-13.15601 -14.27727,-24.72302 -2.28669,-7.69405 -2.57808,-20.24652 -0.48604,-20.93683 0.59448,-0.19616 2.28198,0.58814 3.75,1.74288 2.53272,1.99224 2.66913,2.55154 2.66913,10.94391 0,9.43398 0.15283,9.85694 9.8381,27.22657 2.837,5.0879 2.28796,7.19982 -1.49392,5.74649 z m 323.32249,0.37074 c -1.42625,-1.42624 -0.51046,-3.85106 3.33872,-8.84032 6.06147,-7.85679 13.79426,-21.18537 15.60639,-26.89987 1.33287,-4.20317 2.39533,-5.5755 6.08024,-7.85359 6.86696,-4.2453 7.42463,-2.67871 3.21505,9.03165 -4.57955,12.73956 -13.09932,25.22975 -21.6774,31.77961 -4.68778,3.57938 -5.44507,3.90045 -6.563,2.78252 z m -19.2371,-25.08333 c -3.20613,-5.51686 -17.90877,-25.03576 -25.42223,-33.75 -2.84527,-3.3 -7.47625,-8.66 -10.29106,-11.91112 -13.42677,-15.50794 -27.024,-34.22977 -31.65761,-43.58888 -5.65193,-11.41596 -14.16655,-37.89261 -23.63683,-73.5 -8.78715,-33.03892 -13.32925,-47.7297 -18.6349,-60.27203 -1.69192,-3.99962 -2.81628,-7.53197 -2.49858,-7.84967 0.77206,-0.77206 6.46646,1.16914 10.30489,3.5129 2.32916,1.4222 3.87077,3.8303 6.2409,9.74877 4.53642,11.32793 7.35679,23.05367 14.63851,60.86003 7.58973,39.40552 10.97978,52.22429 17.49609,66.1579 6.80987,14.56131 12.369,21.9727 27.25947,36.3421 23.88874,23.05278 34.2364,36.31769 38.8964,49.86222 3.40127,9.88595 1.91062,12.31285 -2.69505,4.38778 z m 22.71304,-16.85993 c -8.54981,-7.31832 -17.77769,-24.45424 -18.87043,-35.04186 -0.30359,-2.94152 -0.25725,-5.34821 0.10298,-5.34821 0.36023,0 4.01839,6.8625 8.12924,15.25 4.77331,9.73912 9.46533,17.68924 12.98402,22 4.22305,5.17366 5.08493,6.75 3.69066,6.75 -1.00049,0 -3.71691,-1.62447 -6.03647,-3.60993 z m -335.54173,-7.64007 c -1.84369,-6.67218 -6.21372,-18.63533 -12.14594,-33.25 -15.12765,-37.26862 -20.18834,-53.57794 -17.78097,-57.30351 1.12444,-1.74016 5.98351,-1.88551 7.67505,-0.22959 0.46697,0.45713 1.22742,4.13909 1.6899,8.18212 1.71214,14.96757 3.17245,19.85977 14.32028,47.97425 6.40355,16.14953 9.82457,27.25089 11.17708,36.27007 0.62031,4.13652 0.49184,4.60666 -1.25879,4.60666 -1.54061,0 -2.31187,-1.31109 -3.67661,-6.25 z m 350.46506,-6.88945 c -15.81157,-17.49735 -26.25499,-40.13128 -29.69633,-64.36055 -1.62692,-11.45466 -1.45439,-26.33366 0.58558,-50.5 3.59753,-42.6177 2.14291,-57.07744 -7.64273,-75.97302 -4.48561,-8.66149 -4.99212,-12.29819 -2.18408,-15.68167 2.13245,-2.56945 3.99634,-1.31364 6.53752,4.40469 1.40539,3.1625 3.4055,7.57958 4.44468,9.81572 1.03918,2.23615 1.88942,5.19865 1.88942,6.58334 0,3.15654 0.93745,4.14774 2.61,2.75965 3.70693,-3.07648 7.25525,2.43088 9.35823,14.52495 2.17152,12.48829 0.47931,39.93488 -2.46823,40.03304 -0.61008,0.0203 -1.22698,-6.98523 -1.58213,-17.9667 -0.53237,-16.46144 -1.43588,-23.11769 -4.17395,-30.75 C 644.69891,461.69926 643,460.88501 643,463.29708 c 0,0.7892 0.49265,2.7017 1.09479,4.25 1.60638,4.13059 1.2491,44.86527 -0.55532,63.3151 -2.39747,24.51357 -1.81381,42.88169 1.87972,59.15587 4.05028,17.84606 17.28157,37.80117 30.83081,46.49827 3.7125,2.38301 6.75,4.73908 6.75,5.23571 0,1.02002 -6.68285,7.11539 -7.7848,7.10045 -0.39336,-0.005 -3.61053,-3.21372 -7.14926,-7.12975 z m 43.86602,-8.10858 c -2.88894,-2.33858 -7.18306,-5.82697 -9.54249,-7.75197 -5.80325,-4.73473 -14.07202,-14.81257 -20.10203,-24.5 -7.75674,-12.46148 -11.61499,-21.62763 -16.34429,-38.8296 -2.3938,-8.70697 -2.79767,-11.54901 -2.06054,-14.5 0.50425,-2.01872 1.20015,-4.9263 1.54643,-6.4613 1.27681,-5.65987 2.42673,-2.32782 5.10447,14.7909 1.82458,11.66447 9.49605,29.35626 18.61715,42.93451 7.67184,11.42081 22.70778,25.37605 28.98904,26.90548 1.45183,0.35351 2.89598,1.3106 3.20921,2.12687 0.61068,1.5914 -1.7143,8.0229 -3.24146,8.96673 -0.50757,0.3137 -3.28654,-1.34303 -6.17549,-3.68162 z m -60.43099,-33.75041 c -2.21615,-3.5858 -1.58597,-20.35184 1.52231,-40.50156 5.65346,-36.64907 6.94891,-54.63172 5.91059,-82.04706 -0.64652,-17.07069 -0.543,-21.20988 0.55874,-22.33968 3.44935,-3.5372 5.29379,0.28249 8.15425,16.88674 1.89265,10.98641 1.37335,32.05604 -1.05984,43 -0.79483,3.575 -2.81619,12.575 -4.49191,20 -4.52856,20.06573 -6.06741,30.90112 -6.67497,47 -0.30098,7.975 -0.75221,15.5125 -1.00274,16.75 -0.47695,2.35595 -1.86558,2.95187 -2.91643,1.25156 z M 268.57793,550.706 c -7.9119,-5.24062 -17.77984,-18.39892 -23.88096,-31.84382 -9.06121,-19.96795 -10.81315,-24.35431 -12.64788,-31.66661 -2.39388,-9.54078 -2.61191,-16.34433 -0.64564,-20.14668 1.81514,-3.5101 12.33251,-13.46793 13.47738,-12.76036 0.48694,0.30094 0.27927,3.33221 -0.46641,6.80807 -3.64065,16.97025 0.7181,41.19931 11.83812,65.80479 4.64426,10.27645 6.70732,13.57863 13.5639,21.71079 2.43458,2.8875 4.22399,5.25 3.97648,5.25 -0.24752,0 -2.59426,-1.42028 -5.21499,-3.15618 z m 92.53107,-0.21249 c -2.75299,-3.31714 0.0794,-4.29184 14.63977,-5.0379 7.56318,-0.38753 17.80123,-1.59848 22.75123,-2.691 4.95,-1.09252 11.925,-2.62493 15.5,-3.40536 7.98728,-1.74363 15.52243,-4.03872 19.5,-5.93939 1.65,-0.78845 5.13596,-2.40087 7.74658,-3.58316 6.91016,-3.12946 22.89415,-14.12446 33.25242,-22.87354 17.96238,-15.17186 37.93072,-33.65216 40.87447,-37.82848 1.65634,-2.34988 3.52682,-4.2725 4.15661,-4.2725 0.62979,0 1.96631,2.41603 2.97004,5.36896 1.80611,5.31348 1.80306,5.40441 -0.29481,8.79884 -2.70637,4.379 -16.9298,17.34301 -26.95532,24.56855 -29.0027,20.90267 -34.72892,24.59186 -42.907,27.64336 -2.11365,0.78867 -8.23767,3.24678 -13.60894,5.46246 -5.37127,2.21568 -13.24627,4.7912 -17.5,5.72338 -4.25373,0.93219 -8.44512,2.06122 -9.31421,2.50895 -2.66738,1.37419 -29.86076,5.81402 -39.9384,6.52069 -8.12036,0.56943 -9.71744,0.42784 -10.87244,-0.96386 z M 230.47064,528.18415 c -2.64933,-2.02291 -6.10064,-5.06041 -7.66958,-6.75 -4.538,-4.88696 -15.27118,-21.36584 -19.44507,-29.85443 l -3.82668,-7.78246 2.33,-6.71754 c 2.3694,-6.83111 4.54899,-10.21754 6.57627,-10.21754 0.68957,0 1.80259,5.13272 2.87323,13.25 1.62198,12.29747 2.11685,13.99012 6.88374,23.54525 4.09364,8.20561 6.8471,12.11281 13.56575,19.25 7.41433,7.8762 8.13452,8.95475 5.97947,8.95475 -1.34759,0 -4.6178,-1.65511 -7.26713,-3.67803 z M 181.08077,516.2576 c -9.00765,-1.96979 -15.48848,-5.16896 -27.9114,-13.77805 -20.69051,-14.33853 -30.0717,-27.85774 -36.2562,-52.2487 -3.76267,-14.83953 -5.50631,-27.1774 -6.90631,-48.86867 -2.13439,-33.06961 -4.04116,-54.34248 -5.70209,-63.61526 -2.70799,-15.11841 -2.82355,-14.66146 4.44669,-17.58432 10.23603,-4.11521 10.36106,-3.80107 7.68255,19.30306 -4.41403,38.07426 2.10962,107.25914 12.1923,129.30221 4.51244,9.86523 15.7063,21.10712 25.87369,25.98471 15.37616,7.37637 19.93163,8.56492 33.12849,8.64341 l 12.1285,0.0721 2.5899,2.94703 c 1.42445,1.62086 2.60413,3.43978 2.62151,4.04203 0.0589,2.04133 -3.74611,4.52732 -9.11784,5.95711 -6.27389,1.6699 -6.42424,1.66831 -14.76979,-0.1567 z m 468.0628,-74.14542 c -2.13332,-4.2625 -6.2358,-13.375 -9.11663,-20.25 -11.23592,-26.8141 -18.14412,-34.80879 -42.25437,-48.89988 -28.74963,-16.80255 -35.29529,-21.13921 -44.91223,-29.75543 -4.20181,-3.76458 -9.90743,-8.64469 -12.67917,-10.84469 -10.08606,-8.00558 -18.17079,-21.06162 -29.53087,-47.68945 -6.03988,-14.15737 -10.09762,-22.2051 -14.35914,-28.47852 -1.93083,-2.84238 -3.23286,-5.61735 -2.8934,-6.16661 1.18469,-1.91686 8.99233,2.26563 14.60035,7.82128 6.67795,6.61559 10.25623,13.64164 16.304,32.0133 2.44424,7.425 6.46459,17.775 8.93412,23 4.32973,9.16083 4.94164,9.90849 17.13938,20.94187 6.95713,6.29302 16.13122,14.05244 20.38686,17.24315 8.03786,6.02646 24.99506,14.87505 36.23753,18.90944 10.29072,3.69284 23.18923,12.91557 29.9346,21.4039 15.67182,19.72134 27.19062,58.50164 17.37656,58.50164 -0.70886,0 -3.03428,-3.4875 -5.16759,-7.75 z m -448.15429,-23.5 c -6.52526,-3.91113 -9.32475,-7.83392 -12.26865,-17.19147 -1.95979,-6.22941 -2.22063,-9.2316 -2.22063,-25.55853 0,-10.175 0.58826,-23.45 1.30725,-29.5 0.71899,-6.05 1.73149,-14.55905 2.25,-18.909 1.57114,-13.18077 1.129,-44.38407 -0.6956,-49.091 -3.8527,-9.93884 -2.70162,-11.70208 4.31922,-6.61622 9.67013,7.00501 9.64004,13.83996 -0.3131,71.11622 -0.8124,4.675 -1.74323,17.07345 -2.06853,27.5521 -0.50715,16.3371 -0.34917,19.7815 1.10863,24.17052 1.85593,5.58769 8.16392,13.48372 12.39003,15.50925 1.87345,0.89792 2.85832,2.32222 3.30107,4.77393 0.34705,1.92181 0.96491,4.2817 1.37301,5.2442 1.18786,2.80155 -2.34972,2.176 -8.4827,-1.5 z M 219.25,412.1999 c -2.1903,-0.8838 -1.34539,-3.35268 1.5,-4.38311 5.75135,-2.08279 7.78525,-3.67139 14.02534,-10.95461 6.22891,-7.27019 8.8629,-12.08145 23.15851,-42.30146 3.94032,-8.3296 15.01982,-21.13725 23.5522,-27.22584 6.65655,-4.75001 21.32712,-12.4727 23.69404,-12.4727 2.63685,0 24.19845,-11.49779 37.25811,-19.86801 16.65974,-10.67759 30.06198,-21.14933 45.17201,-35.29483 17.04892,-15.96061 29.77724,-22.78208 47.88979,-25.6655 11.16008,-1.77663 20.24228,-2.13002 31.34275,-1.21957 9.32412,0.76475 10.70295,1.13961 14,3.80617 3.98611,3.22385 5.29028,6.24174 2.69733,6.24174 -0.88361,0 -3.95411,-1.2288 -6.82332,-2.73067 -4.72974,-2.47574 -6.197,-2.72859 -15.71676,-2.70846 -12.97837,0.0275 -23.11334,2.94554 -38.88353,11.19544 -9.82386,5.13918 -43.90607,27.32909 -62.60006,40.75705 -7.80167,5.60396 -19.4632,12.98557 -32.51641,20.58249 -3.575,2.08063 -12.575,6.53456 -20,9.89762 -18.26504,8.2729 -17.27744,7.71836 -23.29071,13.0779 -6.66328,5.93888 -10.17597,12.52334 -16.23312,30.42863 -9.04326,26.73242 -16.7461,37.71173 -31.74639,45.25 -7.89035,3.96523 -12.86191,5.04756 -16.47978,3.58772 z M 27.588004,315.75274 c -3.0973,-2.43633 -2.947762,-4.09743 0.440881,-4.89738 1.562301,-0.36881 3.562836,-2.58522 5.819931,-6.44797 6.047424,-10.34943 14.436223,-17.12909 16.687475,-13.48649 0.359879,0.5823 -0.545108,2.7895 -2.011082,4.9049 -1.465974,2.1154 -3.351351,6.47296 -4.189728,9.68345 -2.062644,7.89873 -2.937442,9.28867 -6.883854,10.93759 -4.61876,1.92984 -6.715394,1.7823 -9.863623,-0.6941 z m 78.516276,0.19986 c -2.22662,-1.41756 -0.56542,-3.78725 3.57571,-5.10073 9.23051,-2.92771 18.85813,-10.32913 22.42507,-17.23969 1.06457,-2.0625 2.36061,-3.75 2.88008,-3.75 1.40094,0 2.86457,3.20793 3.6205,7.9353 0.61107,3.82142 0.37447,4.4926 -2.71815,7.71056 -5.10307,5.30989 -8.28416,6.72588 -20.88749,9.29761 -2.475,0.50503 -5.175,1.16963 -6,1.47688 -0.825,0.30725 -2.12807,0.15878 -2.89572,-0.32993 z M 81,308.66461 c -10.633525,-3.95099 -15.198652,-5.12759 -21.5,-5.5413 -11.539268,-0.75761 -12.948764,-2.71307 -5.505864,-7.63855 6.912676,-4.57459 7.434082,-4.48669 23.225911,3.91572 7.953781,4.23199 16.220591,9.20025 18.370687,11.04057 3.710043,3.17552 3.781861,3.34332 1.409266,3.29283 -1.375,-0.0293 -8.575,-2.31044 -16,-5.06927 z m -66.611883,3.2175 c -5.2111441,-2.10554 -7.6410066,-8.59438 -5.4128678,-14.45483 1.9432618,-5.11117 5.5201968,-2.29233 4.3725628,3.44584 -1.040002,5.20001 2.093616,3.51425 5.561277,-2.99175 3.988012,-7.48228 7.180046,-11.3021 12.456022,-14.90579 6.215142,-4.24517 11.07633,-5.5874 14.739967,-4.06988 5.33308,2.20904 3.230376,4.69048 -5.483213,6.47084 -4.483965,0.91617 -8.077217,5.32762 -10.587373,12.99816 -2.417567,7.3876 -4.813814,10.78224 -9.234832,13.08249 -3.049838,1.58683 -3.46736,1.6145 -6.411543,0.42492 z M 7.5952719,286.64404 c -0.8209257,-1.25502 -2.1967341,-3.96936 -3.0573521,-6.03186 -1.4198917,-3.40282 -1.4197336,-4.09718 0.00171,-7.5 1.9890914,-4.76173 4.9965096,-7.92606 14.9603722,-15.74094 17.054324,-13.37608 40.744584,-24.90745 56.666678,-27.58283 9.191854,-1.54451 13.894292,-0.71141 17.750399,3.14469 4.395807,4.39581 3.226215,6.33775 -3.317347,5.50798 -14.370601,-1.8223 -21.285573,-1.14232 -36.59973,3.59905 -12.735428,3.94297 -26.727835,13.35649 -36.12521,24.30356 -4.336822,5.052 -6.705184,10.02143 -5.398718,11.3279 0.315375,0.31537 2.938926,-1.76273 5.830114,-4.618 C 23.207661,268.213 26,266.65113 26,268.75012 c 0,0.48837 -1.979067,3.75087 -4.397926,7.25 -3.592954,5.19758 -4.862485,6.3292 -6.936028,6.18256 -2.05287,-0.14519 -2.660631,0.37836 -3.179011,2.73853 -0.861817,3.92383 -2.0949865,4.46974 -3.8917631,1.72283 z M 487.45425,270.78815 c -0.79365,-1.28415 3.31981,-5.92597 5.25145,-5.92597 2.22419,0 2.66675,2.93097 0.76059,5.03724 -1.9384,2.14192 -4.96135,2.58878 -6.01204,0.88873 z M 165.25,266.43905 c -1.7875,-0.81418 -3.25,-2.15086 -3.25,-2.97041 0,-1.2341 1.20257,-1.38928 7,-0.90324 4.93279,0.41355 7,0.24871 7,-0.55818 0,-0.62977 -0.5625,-1.1377 -1.25,-1.12873 -0.6875,0.009 -4.9625,-1.89202 -9.5,-4.22444 -5.64344,-2.9009 -8.25,-4.80174 -8.25,-6.01632 0,-2.29666 0.48126,-2.25256 7.77955,0.713 3.7106,1.50776 9.00071,2.68897 13.42241,2.99705 l 7.29804,0.5085 -6.80442,-1.83719 c -3.74244,-1.01045 -7.55136,-2.58412 -8.46429,-3.49705 -1.54648,-1.54648 -1.21831,-1.65868 4.80442,-1.64253 6.94605,0.0186 24.3417,1.6582 27.21429,2.56501 0.9625,0.30384 1.75,1.04925 1.75,1.65646 0,2.17288 -9.21873,9.88371 -14.80705,12.38509 -7.16528,3.20724 -19.0593,4.17741 -23.94295,1.95298 z m 314.25552,-2.56794 c -1.89447,-3.06532 8.21149,-10.31861 11.07068,-7.94569 0.78309,0.64991 1.4238,1.57007 1.4238,2.04481 0,1.39183 -11.82863,6.97824 -12.49448,5.90088 z m -369.50025,-4.50258 c -1.73796,-2.09411 -10.729676,-7.02816 -15.50527,-8.50825 -5.906789,-1.83067 -6.383797,-2.70987 -2.979466,-5.4916 3.643985,-2.97756 5.450828,-3.07192 10.406996,-0.54347 5.89556,3.00769 14.63942,16.03697 10.7623,16.03697 -0.79472,0 -2.00277,-0.67214 -2.68456,-1.49365 z m 357.5075,0.51432 c -1.9206,-3.1076 6.56645,-9.02067 12.94739,-9.02067 2.87317,0 3.53984,0.37666 3.53984,2 0,1.40235 -0.67235,2.0051 -2.25,2.01705 -1.2375,0.009 -4.5,1.35171 -7.25,2.98295 -5.52313,3.27621 -6.10692,3.44503 -6.98723,2.02067 z m -15.93814,-0.89992 c -1.68441,-2.72543 20.32265,-15.62347 22.6634,-13.28272 1.28526,1.28526 -8.19424,8.36816 -15.55834,11.62492 -6.50288,2.87588 -6.37123,2.84517 -7.10506,1.6578 z M 443,252.0082 c 0,-1.7633 4.93106,-6.07615 9.63053,-8.42314 6.15628,-3.07454 11.22862,-4.08467 13.02496,-2.59383 1.80689,1.49958 -0.0596,3.87095 -3.04681,3.87095 -1.18054,0 -5.72945,1.8 -10.10868,4 -8.29514,4.16724 -9.5,4.56624 -9.5,3.14602 z M 164.92206,239.69076 c -2.40791,-1.74428 -8.60937,-5.17583 -13.78103,-7.62567 -15.15504,-7.17901 -24.87138,-6.80175 -40.21635,1.56148 -3.97034,2.1639 -7.23878,3.32905 -8.25,2.94101 -4.189879,-1.6078 0.33118,-12.11537 7.20297,-16.74069 3.0443,-2.04908 5.08879,-2.49525 12.81174,-2.7959 9.07264,-0.35319 9.31716,-0.30038 19.24607,4.15732 13.69112,6.14678 32.77256,18.71926 31.51028,20.76167 -1.06599,1.7248 -4.15366,0.90641 -8.52368,-2.25922 z"
         id="path3065"
         inkscape:connector-curvature="0" />
    </g>
  </g>
</svg>
