<?xml version="1.0" encoding="UTF-8" standalone="no"?>
<!-- Created with Inkscape (http://www.inkscape.org/) -->

<svg
   xmlns:dc="http://purl.org/dc/elements/1.1/"
   xmlns:cc="http://creativecommons.org/ns#"
   xmlns:rdf="http://www.w3.org/1999/02/22-rdf-syntax-ns#"
   xmlns:svg="http://www.w3.org/2000/svg"
   xmlns="http://www.w3.org/2000/svg"
   xmlns:xlink="http://www.w3.org/1999/xlink"
   xmlns:sodipodi="http://sodipodi.sourceforge.net/DTD/sodipodi-0.dtd"
   xmlns:inkscape="http://www.inkscape.org/namespaces/inkscape"
   id="svg2"
   sodipodi:modified="true"
   sodipodi:docname="ibis.svg"
   viewBox="0 0 300 330"
   sodipodi:version="0.32"
   version="1.0"
   inkscape:output_extension="org.inkscape.output.svg.inkscape"
   inkscape:version="0.48.4 r9939"
   width="100%"
   height="100%">
  <defs
     id="defs7">
    <linearGradient
       id="linearGradient3773">
      <stop
         style="stop-color:#000000;stop-opacity:1;"
         offset="0"
         id="stop3775" />
      <stop
         style="stop-color:#ff0000;stop-opacity:1;"
         offset="1"
         id="stop3777" />
    </linearGradient>
    <radialGradient
       inkscape:collect="always"
       xlink:href="#linearGradient3773"
       id="radialGradient3779"
       cx="170.14258"
       cy="160.72897"
       fx="170.14258"
       fy="160.72897"
       r="100.39722"
       gradientTransform="matrix(1,0,0,1.3030119,0,-48.702792)"
       gradientUnits="userSpaceOnUse"
       spreadMethod="repeat" />
  </defs>
  <sodipodi:namedview
     id="base"
     bordercolor="#666666"
     inkscape:pageshadow="2"
     guidetolerance="10.0"
     pagecolor="#ffffff"
     gridtolerance="10.0"
     inkscape:zoom="1.6156318"
     objecttolerance="10.0"
     borderopacity="1.0"
     inkscape:current-layer="svg2"
     inkscape:cx="129.41507"
     inkscape:cy="186.88158"
     inkscape:window-y="24"
     inkscape:window-x="65"
     inkscape:window-height="876"
     inkscape:pageopacity="0.0"
     inkscape:window-width="1535"
     showgrid="false"
     inkscape:window-maximized="1" />
  <path
     style="fill:url(#radialGradient3779);stroke:#000000;stroke-width:1px;stroke-linecap:butt;stroke-linejoin:miter;stroke-opacity:1;fill-opacity:1.0"
     d="m 214.15771,40.948992 c 0,0 -15.47383,-16.711729 -22.90126,-8.046388 -7.42744,8.665341 -24.28695,27.495264 -24.28695,27.495264 l -13.3488,22.539788 -1.313,15.755969 -2.18833,21.007955 -6.78382,23.63396 -13.56764,14.6618 -20.35146,13.56764 -14.005306,3.50133 -18.600796,0.21883 -6.564987,7.87798 9.190982,2.626 17.944297,-1.09417 21.22679,-5.25198 10.28515,5.25198 -10.50398,14.00531 -15.53714,14.22414 -5.251987,10.94164 -7.877984,25.16579 -1.094165,25.82228 16.850136,10.06631 12.91114,6.12732 7.44032,-6.78382 21.44562,-31.51193 10.50398,-17.50664 22.75862,-23.63395 11.16048,-18.38196 22.32096,-3.50133 25.60345,1.09417 22.53978,2.84482 7.87799,-3.72016 -29.76128,-10.06631 -29.9801,-12.91114 -3.2825,-1.9695 6.12732,-8.97215 -2.18832,-41.57825 4.59549,-13.12997 -1.313,-9.628648 3.93899,-26.259948 6.12732,-21.226791 z"
     id="path3771"
     inkscape:connector-curvature="0" />
  <path
     id="path2161"
     style="fill:#000000"
     d="m 102.34608,303.52673 c -0.46586,-0.46586 -0.84805,-1.92999 -0.84805,-3.25151 0,-2.23422 -0.20441,-2.26274 -2.826531,-0.42782 -1.555398,1.09334 -3.8305,1.98703 -5.056945,1.98703 -1.834913,0 -2.084956,-0.73207 -1.410887,-4.13569 0.747276,-3.77441 0.630336,-3.98357 -1.334828,-2.36732 -1.183661,0.97925 -2.49282,1.4356 -2.90829,1.01728 -0.414519,-0.41832 -0.769142,-9.80205 -0.788157,-20.84956 -0.03328,-20.32665 1.041052,-27.34306 5.944929,-38.8279 1.111406,-2.5955 2.020306,-6.15124 2.020306,-7.90059 0,-8.20482 5.079763,-16.41914 17.594253,-28.4364 9.86289,-9.4788 11.91647,-12.05529 10.3953,-13.02503 -1.62575,-1.02679 -1.57821,-1.20743 0.31374,-1.22645 3.41313,-0.0285 2.64304,-2.46239 -1.24546,-3.94554 -3.95504,-1.50215 -18.80643,0.56094 -21.78032,3.03284 -1.127566,0.93172 -9.417952,1.61625 -22.922153,1.88245 -23.269172,0.46586 -30.97866,2.19619 -41.996696,9.46929 -3.290484,2.17718 -6.418393,3.35609 -7.632478,2.88072 -3.110036,-1.19792 5.519,-8.59462 13.297892,-11.38977 3.449256,-1.24546 8.07552,-3.04234 10.280268,-4.01209 2.204748,-0.96024 5.352622,-1.76836 6.996438,-1.79688 1.643816,-0.019 5.277515,-1.73034 8.076471,-3.80293 8.02418,-5.95159 12.742664,-7.72946 18.119055,-6.82626 16.079733,2.68106 20.750683,1.85393 30.459553,-5.38115 2.22472,-1.66378 4.44943,-3.02332 4.94381,-3.02332 0.49438,0 4.70613,-3.08038 9.36471,-6.84528 14.50818,-11.72253 20.44075,-27.98005 20.44075,-56.04091 0,-16.383969 6.67902,-34.510996 11.44219,-34.510996 1.22644,0 -2.2391,7.62809 -4.45431,12.480628 -2.16767,4.779331 -3.242,9.935152 -3.75539,18.128567 -1.49265,24.043061 -2.30077,30.622131 -4.63958,37.942771 -2.89973,9.06048 -6.77872,15.63004 -11.78908,19.93685 -6.99738,6.02765 -24.3454,18.08293 -29.51168,20.52631 -4.98848,2.34831 -14.578521,2.75713 -16.630201,0.71305 -1.592477,-1.59723 -7.745616,-0.92221 -9.359959,1.02679 -0.871822,1.04581 -1.157992,1.90147 -0.63604,1.90147 0.521001,0 0.198703,0.90319 -0.716852,2.00604 -1.378562,1.66379 -1.353843,2.1962 0.138807,3.12791 2.589794,1.59723 22.202455,-0.57044 24.919645,-2.76663 0.79386,-0.63699 5.12634,-1.50216 9.62521,-1.92048 7.41571,-0.69403 8.6992,-0.44684 13.65251,2.68107 11.11406,7.0164 22.22812,10.43904 43.33438,13.34828 l 6.99739,0.96024 -7.63438,0.0951 c -12.01726,0.15212 -22.4658,-1.8254 -31.57382,-5.9706 -8.28088,-3.7744 -9.93515,-3.40362 -15.12615,3.39412 -4.68711,6.14173 -6.11321,7.52029 -16.29175,15.81067 -6.21208,5.0579 -9.339037,12.1979 -10.728057,24.48136 -0.3898,3.45116 -1.549694,7.19704 -2.578386,8.33792 -1.032495,1.14088 -2.770434,8.12876 -3.88184,15.60152 -1.976572,13.31025 -1.967065,13.58596 0.596109,16.14343 2.64874,2.65254 11.146384,5.22903 15.088114,4.57302 2.21236,-0.37078 10.2565,4.84874 12.09142,7.84355 1.29299,2.11062 3.43214,2.15816 3.43214,0.0666 0,-0.87468 2.14866,-3.64131 4.77268,-6.14173 2.62402,-2.50994 6.19877,-7.37769 7.94812,-10.81934 1.74935,-3.43214 3.81243,-6.66463 4.58253,-7.16852 0.7796,-0.49438 3.35608,-4.71563 5.72341,-9.37422 2.37683,-4.64908 5.03888,-8.73723 5.91355,-9.07949 0.87467,-0.34226 1.58772,-1.50216 1.58772,-2.58599 0,-1.09335 5.03888,-6.93084 11.19963,-12.98701 10.70524,-10.51509 26.24021,-30.87978 24.71904,-32.39144 -0.39931,-0.39931 -2.3388,-0.72256 -4.32583,-0.72256 -6.71217,0 -3.65082,-2.17718 4.22125,-3.00431 4.29731,-0.44685 8.45201,-1.30251 9.2221,-1.91098 0.77009,-0.60846 2.25324,-1.12186 3.30855,-1.15038 1.0458,-0.038 7.34916,-0.66551 13.99478,-1.40709 6.64562,-0.74157 14.17542,-1.01728 16.73289,-0.61797 3.80292,0.60847 4.89627,0.27571 6.01813,-1.80639 1.96802,-3.68884 -0.656,-5.35263 -9.58338,-6.05617 -12.81587,-1.01728 -18.26357,-1.96801 -18.26357,-3.20397 0,-0.656 2.65255,-1.19792 5.88504,-1.19792 5.08641,0 5.66636,-0.2567 4.29731,-1.91097 -0.87468,-1.04581 -3.12791,-1.90146 -5.01987,-1.90146 -1.99654,0 -5.18149,-1.56871 -7.64389,-3.7649 -2.71909,-2.42437 -6.52202,-4.20224 -10.72426,-4.98184 -3.57475,-0.67502 -14.04231,-2.66205 -23.2454,-4.42091 -9.20309,-1.75885 -17.92131,-2.89022 -19.37593,-2.50993 -3.02332,0.78911 -9.745,-0.58945 -8.5756,-1.75885 1.38807,-1.38807 17.77869,-0.32325 25.90745,1.68279 4.35436,1.07433 12.08381,2.41486 17.17023,2.97579 5.08642,0.56094 11.13307,1.63526 13.44335,2.37683 3.58426,1.15039 4.57302,0.98877 6.66464,-1.10284 2.09161,-2.09162 2.35781,-3.70786 1.79688,-11.05702 -1.33103,-17.48397 -0.59896,-33.31366 1.8159,-39.67406 2.0821,-5.49523 2.12964,-6.54104 0.45635,-10.738521 -1.66378,-4.16135 -1.63526,-5.11969 0.2662,-9.124176 1.16941,-2.460495 1.99654,-5.461006 1.83492,-6.668436 -0.16163,-1.206479 0.39931,-4.640524 1.25496,-7.630577 0.84616,-2.989102 1.23596,-5.93352 0.85566,-6.54294 -0.37078,-0.609419 0.19015,-3.575704 1.25497,-6.592377 1.06482,-3.017624 1.67329,-6.155041 1.35955,-6.974572 -0.31374,-0.81858 0.24719,-3.055653 1.23595,-4.97233 2.43387,-4.683307 2.42437,-4.695666 -2.49092,-3.772505 -3.54623,0.663611 -5.27656,0.106482 -9.7355,-3.123156 -2.9853,-2.161014 -6.3699,-3.930327 -7.52029,-3.930327 -1.15989,0 -2.68107,-0.580897 -3.39411,-1.291094 -1.87295,-1.871992 -8.62315,1.801637 -17.41742,9.474998 -4.06913,3.54528 -8.47102,8.188656 -9.80205,10.319247 -1.33102,2.130591 -3.55574,5.189097 -4.95331,6.795835 -1.38807,1.607688 -2.73811,3.544329 -2.99481,4.303014 -0.24719,0.758684 -8.54728,8.974779 -3.19511,1.333441 0.84557,-1.207224 -0.0849,-2.301287 1.18904,-3.832916 1.84443,-2.230418 4.24978,-6.246311 5.9706,-9.999802 0.66552,-1.439409 3.1184,-4.080543 5.46671,-5.870772 5.68538,-4.3496 20.10799,-19.266589 26.12613,-27.024564 4.69661,-6.064721 4.85824,-6.150287 5.24804,-2.861704 0.45635,3.820993 1.72082,4.28495 4.05012,1.481241 2.04407,-2.469052 6.3604,-2.469052 6.3604,0 0,1.193169 1.20743,1.908119 3.22298,1.908119 3.6318,0 5.40967,2.989102 3.28953,5.538966 -1.98703,2.396796 -0.42783,3.406474 3.15643,2.044075 2.63353,-1.000171 3.05185,-0.785305 3.05185,1.570609 0,1.502157 -0.94122,3.765851 -2.0821,5.030325 -1.82541,2.015552 -1.84442,2.391091 -0.16162,3.035688 1.68279,0.645547 1.61624,1.854878 -0.48488,9.885714 -3.09938,11.781474 -5.191,23.060961 -5.49523,29.58964 -0.1331,2.845541 -0.68453,5.886934 -1.22644,6.758755 -0.53241,0.870871 -0.96024,5.945881 -0.94123,11.277591 0.0285,5.326951 -0.66551,11.734881 -1.52117,14.235311 -1.60674,4.64908 -1.74935,34.54961 -0.19966,39.44588 0.48488,1.52117 -0.35177,4.53499 -2.12964,7.67241 -3.40362,5.99912 -3.28002,6.16075 7.69143,9.58338 8.84181,2.75712 20.127,7.83404 21.17281,9.51683 0.42783,0.69404 4.0311,2.15816 8.02418,3.27052 3.98356,1.10285 9.27914,2.77614 11.75105,3.71736 2.48141,0.93172 7.9196,1.63526 12.0838,1.5497 8.93689,-0.16163 23.71127,2.89022 23.08378,4.77267 -0.24719,0.73207 -1.25496,1.35955 -2.24373,1.39758 -0.99826,0.0475 -2.66205,0.45635 -3.71736,0.92221 -3.72687,1.63526 -18.52026,2.88072 -23.53062,1.97752 -28.09414,-5.02937 -30.39491,-5.24804 -48.18311,-4.47795 -19.70868,0.84616 -23.81585,2.06309 -28.51246,8.41398 -1.5497,2.10112 -2.81417,4.18323 -2.81417,4.63007 0,2.29126 -17.55052,22.86511 -23.52112,27.58074 -3.7744,2.97579 -6.90231,5.87553 -6.94034,6.42695 -0.038,0.56094 -2.92826,5.77095 -6.42695,11.58943 -3.4987,5.80897 -6.3604,11.1616 -6.3604,11.88415 0,0.72256 -0.86517,1.64477 -1.91097,2.05358 -1.04581,0.39931 -1.91097,1.33103 -1.91097,2.05359 0,1.6923 -9.54536,15.73461 -12.17888,17.9213 -1.09335,0.90319 -2.81417,3.2515 -3.84096,5.22903 -1.01729,1.97752 -2.66205,3.59376 -3.64131,3.59376 -0.98876,0 -1.97752,1.51167 -2.19619,3.3656 -0.54192,4.52548 -4.50552,7.02591 -6.25867,3.94554 -1.73794,-3.05186 -3.01857,-2.78565 -4.72609,0.96023 -1.44892,3.17545 -2.87786,3.92653 -4.47224,2.3293 z M 261.20393,189.97127 c -0.39931,-0.65601 -3.85997,-1.83492 -7.68192,-2.63353 -3.82194,-0.78911 -7.28261,-1.97752 -7.69142,-2.62402 -1.22645,-2.00605 -4.23076,-1.33103 -5.61883,1.25497 -1.18841,2.22471 -0.68453,2.56697 5.36213,3.66982 8.96541,1.63526 16.53323,1.79689 15.63004,0.33276 z"
     inkscape:connector-curvature="0"
     sodipodi:nodetypes="cscscccccsccccccccccccccscsscccccccscccccccccccccccccsccccssccscscscccsscsccscscscsccccccccccccsccsccsccccccssccsccccccccccccccccccccscccscsccscccccccccsc" />
  <metadata
     id="metadata5">
    <rdf:RDF>
      <cc:Work>
        <dc:format>image/svg+xml</dc:format>
        <dc:type
           rdf:resource="http://purl.org/dc/dcmitype/StillImage" />
        <cc:license
           rdf:resource="http://creativecommons.org/licenses/publicdomain/" />
        <dc:publisher>
          <cc:Agent
             rdf:about="http://openclipart.org/">
            <dc:title>Openclipart</dc:title>
          </cc:Agent>
        </dc:publisher>
        <dc:title>Wood Ibis 2</dc:title>
        <dc:date>2006-12-20T12:13:31</dc:date>
        <dc:description>Flying wood ibis</dc:description>
        <dc:source>https://openclipart.org/detail/2187/wood-ibis-2-by-molumen</dc:source>
        <dc:creator>
          <cc:Agent>
            <dc:title>molumen</dc:title>
          </cc:Agent>
        </dc:creator>
        <dc:subject>
          <rdf:Bag>
            <rdf:li>animal</rdf:li>
            <rdf:li>beak</rdf:li>
            <rdf:li>bird</rdf:li>
            <rdf:li>colouring book</rdf:li>
            <rdf:li>fly</rdf:li>
            <rdf:li>ibis</rdf:li>
            <rdf:li>remix</rdf:li>
            <rdf:li>wing</rdf:li>
            <rdf:li>wood</rdf:li>
          </rdf:Bag>
        </dc:subject>
      </cc:Work>
      <cc:License
         rdf:about="http://creativecommons.org/licenses/publicdomain/">
        <cc:permits
           rdf:resource="http://creativecommons.org/ns#Reproduction" />
        <cc:permits
           rdf:resource="http://creativecommons.org/ns#Distribution" />
        <cc:permits
           rdf:resource="http://creativecommons.org/ns#DerivativeWorks" />
      </cc:License>
    </rdf:RDF>
  </metadata>
</svg>
