<?xml version="1.0" encoding="UTF-8" standalone="no"?>
<!-- Created with Inkscape (http://www.inkscape.org/) -->

<svg
   xmlns:dc="http://purl.org/dc/elements/1.1/"
   xmlns:cc="http://creativecommons.org/ns#"
   xmlns:rdf="http://www.w3.org/1999/02/22-rdf-syntax-ns#"
   xmlns:svg="http://www.w3.org/2000/svg"
   xmlns="http://www.w3.org/2000/svg"
   xmlns:sodipodi="http://sodipodi.sourceforge.net/DTD/sodipodi-0.dtd"
   xmlns:inkscape="http://www.inkscape.org/namespaces/inkscape"
   width="744.09003"
   height="850"
   id="svg4539"
   version="1.1"
   inkscape:version="0.48.4 r9939"
   sodipodi:docname="Nouveau document 25">
  <defs
     id="defs4541" />
  <sodipodi:namedview
     id="base"
     pagecolor="#ffffff"
     bordercolor="#666666"
     borderopacity="1.0"
     inkscape:pageopacity="0.0"
     inkscape:pageshadow="2"
     inkscape:zoom="0.24748737"
     inkscape:cx="375"
     inkscape:cy="520"
     inkscape:document-units="px"
     inkscape:current-layer="layer1"
     showgrid="false"
     inkscape:window-width="1158"
     inkscape:window-height="641"
     inkscape:window-x="243"
     inkscape:window-y="135"
     inkscape:window-maximized="0" />
  <metadata
     id="metadata4544">
    <rdf:RDF>
      <cc:Work
         rdf:about="">
        <dc:format>image/svg+xml</dc:format>
        <dc:type
           rdf:resource="http://purl.org/dc/dcmitype/StillImage" />
        <dc:title></dc:title>
      </cc:Work>
    </rdf:RDF>
  </metadata>
  <g
     inkscape:label="Calque 1"
     inkscape:groupmode="layer"
     id="layer1"
     transform="translate(0,-202.36218)">
    <g
       id="g5146"
       transform="matrix(2.5939163,0,0,2.5939163,-1172.951,-706.36557)">
      <path
         transform="translate(-0.71428572,-4.2857143)"
         d="m 572.14283,569.14789 c 0,21.10517 -10.87308,38.21428 -24.28571,38.21428 -13.41263,0 -24.28572,-17.10911 -24.28572,-38.21428 0,-21.10517 10.87309,-38.21429 24.28572,-38.21429 13.41263,0 24.28571,17.10912 24.28571,38.21429 z"
         sodipodi:ry="38.214287"
         sodipodi:rx="24.285715"
         sodipodi:cy="569.14789"
         sodipodi:cx="547.85712"
         id="path4631"
         style="fill:#ffc84e;fill-opacity:1"
         sodipodi:type="arc" />
      <path
         transform="matrix(0.63380282,0,0,1,177.97787,0.71428571)"
         d="m 554.28573,405.21933 c 0,9.86223 -22.70556,17.85714 -50.71429,17.85714 -28.00873,0 -50.71429,-7.99491 -50.71429,-17.85714 0,-9.86223 22.70556,-17.85714 50.71429,-17.85714 28.00873,0 50.71429,7.99491 50.71429,17.85714 z"
         sodipodi:ry="17.857143"
         sodipodi:rx="50.714287"
         sodipodi:cy="405.21933"
         sodipodi:cx="503.57144"
         id="path5141"
         style="fill:#f4e3d7;fill-opacity:1"
         sodipodi:type="arc" />
      <g
         transform="translate(155.71428,-10.714286)"
         id="g4625">
        <path
           inkscape:connector-curvature="0"
           id="path4629"
           d="m 368.63802,682.51173 c -1.18122,-0.47659 -2.44528,-1.34807 -2.80902,-1.93661 -0.36374,-0.58855 -1.95549,-1.07008 -3.53723,-1.07008 -4.03895,0 -8.00608,-1.68402 -8.00608,-3.39852 0,-0.79642 -1.125,-2.78502 -2.5,-4.41911 -6.8516,-8.14266 -0.40764,-13.26651 18.5,-14.71011 30.23461,-2.30842 49.12637,-12.04659 45.50498,-23.45656 -1.51855,-4.78453 -10.93564,-2.73748 -12.57868,2.7343 -2.26703,7.54988 -23.36859,14.54503 -54.9263,18.20803 -9.47526,1.09982 -9.51042,1.11427 -13.5,5.54548 -6.11561,6.79259 -20.5,8.38554 -20.5,2.2702 0,-0.73059 -1.40157,-2.5582 -3.1146,-4.06136 -2.33645,-2.05019 -2.9969,-3.34875 -2.64348,-5.19754 0.30454,-1.5931 -0.18532,-3.0586 -1.3854,-4.14466 -2.10935,-1.90893 -2.42709,-7.08927 -0.57472,-9.37015 4.24065,-5.22163 7.38768,-5.84365 35.2182,-6.96097 23.10097,-0.92744 37.22528,-2.36431 38.80901,-3.94804 0.46842,-0.46842 -2.43395,-3.42185 -6.45302,-6.56656 -21.32805,-16.68805 -19.60603,-41.85509 6.33087,-92.52443 7.98002,-15.58946 11.81003,-29.03264 12.55532,-44.06856 1.03697,-20.92073 -6.06668,-25.66911 -32.28901,-21.58334 -13.31533,2.07469 -23.8121,-0.16021 -33.21717,-7.07239 -3.264,-2.39885 -3.264,-2.39885 -5.88486,-0.33728 -10.66346,8.38788 -18.55477,-4.71 -8.80589,-14.61589 8.26751,-8.40067 7.97439,-15.66028 -0.74947,-18.56161 -7.07319,-2.35236 -7.86735,-4.203 -4.70292,-10.95919 2.31129,-4.9347 2.31129,-4.9347 -0.89079,-7.4407 -2.03516,-1.59275 -3.20207,-3.39064 -3.20207,-4.93352 0,-2.73978 2.09315,-3.22514 4,-0.92752 1.40139,1.68857 3.47048,2.07027 2.47293,0.45619 -1.59697,-2.58394 1.74338,-4.10161 4.11784,-1.87092 2.29059,2.1519 2.29059,2.1519 3.16348,-1.21669 1.41707,-5.46866 4.74575,-4.68472 4.74575,1.11768 0,6.88674 6.13785,8.08324 12.92708,2.51998 5.15477,-4.22394 5.38891,-5.36203 2.57292,-12.50624 -7.75894,-19.68459 4.14314,-24.63793 19.87257,-8.27047 10.44613,10.86986 9.09354,10.65722 14.44258,2.27047 11.97872,-18.78143 33.12204,-12.10576 26.77212,8.45287 -2.99395,9.6933 -2.89696,10.07307 3.49378,13.67978 12.12509,6.84298 30.41895,37.85155 30.41895,51.56091 0,0.74296 1.86345,5.05335 4.14101,9.57864 17.74874,35.26508 25.01803,76.28427 18.99969,107.21153 -2.041,10.48837 2.23216,7.66951 7.87421,-5.19434 4.05346,-9.24189 4.32692,-10.46053 4.88934,-21.78939 0.67808,-13.6584 1.14747,-14.93966 5.17788,-14.13357 2.58744,0.51748 2.88054,0.28226 3.30108,-2.64926 0.25383,-1.76944 1.05259,-6.81717 1.77501,-11.21717 1.47351,-8.97458 1.80199,-36.52666 0.48571,-40.74068 -1.03356,-3.30891 1.42487,-4.82196 4.60643,-2.83504 3.61908,2.26015 7.28151,-12.54504 8.76308,-35.42428 1.30027,-20.07937 2.77798,-24.0553 7.09515,-19.09012 2.56174,2.94626 3.97676,2.31985 6.42788,-2.8455 0.82477,-1.73806 3.49515,-5.38856 5.93419,-8.11224 3.37366,-3.76738 5.17193,-7.1307 7.51649,-14.05821 5.05263,-14.9291 7.68022,-16.25243 9.91785,-4.99493 1.64217,8.26173 1.98814,8.45401 8.3767,4.65562 9.44055,-5.61298 27.9057,-14.19669 29.34861,-13.64299 2.40475,0.92279 2.64413,3.39179 0.61111,6.30288 -2.71607,3.88911 -6.34078,15.10605 -5.1244,15.85781 0.53655,0.33161 4.1709,0.45531 8.07632,0.27489 9.48407,-0.43814 10.94362,1.32674 5.687,6.8767 -10.21638,10.78646 -11.02056,13.77679 -3.49614,13.0002 11.67716,-1.20519 8.36438,12.08922 -8.91483,35.77589 -11.8804,16.28587 -12.87782,20.37701 -3.97948,16.32265 10.49112,-4.78007 4.0548,11.32581 -17.7587,44.43837 -4.24024,6.43661 -4.5531,7.27334 -2.82262,7.54901 8.39251,1.33696 -1.26103,18.67763 -18.66042,33.51974 -12.69412,10.8284 -15.57894,14.05265 -14.79191,16.53237 2.37717,7.48979 -17.66246,17.27713 -45.63778,22.28946 -12.68154,2.27215 -12.68154,2.27215 -14.27609,5.81028 -3.52821,7.82865 -7.90117,14.25352 -11.12017,16.33804 -4.90399,3.17567 -4.18502,7.19097 3.42819,19.14586 5.98302,9.39503 4.37693,12.7786 -10.35039,21.80527 -14.32228,8.77841 -21.52649,11.2977 -37.8075,13.22113 -4.78934,0.56582 -5.99702,1.10207 -6.88855,3.05877 -1.94704,4.27328 -9.30529,6.55217 -14.45162,4.47574 z m 6.32503,-106.44818 c 3.25474,-6.09 6.32123,-17.11849 6.93723,-24.94942 0.83541,-10.62008 -0.0808,-9.60738 -7.13937,7.89091 -8.56654,21.23669 -8.42478,33.20052 0.20214,17.05851 z M 358.71914,419.25504 c -0.72109,-5.95769 -3.08954,-8.75 -7.42179,-8.75 -3.89079,0 -5.63431,2.33801 -4.15868,5.57667 0.63086,1.38459 1.14702,3.84626 1.14702,5.47038 0,2.91489 0.0713,2.95295 5.53444,2.95295 5.53445,0 5.53445,0 4.89901,-5.25 z m -35.92799,-5.34952 c 3.38066,-5.76867 2.42197,-7.29453 -3.47336,-5.52824 -4.63962,1.39006 -4.5914,1.25747 -2.2821,6.27435 2.22558,4.83499 2.50602,4.79863 5.75546,-0.74611 z m -0.99073,-24.37664 c -0.37069,-0.5998 -2.27824,-0.96303 -4.23899,-0.80719 -4.28403,0.3405 -5.202,-1.29039 -2.33824,-4.15415 3.52708,-3.52708 13.21981,-0.0718 11.81,4.21002 -0.52802,1.60369 -4.36545,2.15466 -5.23277,0.75132 z"
           style="fill:#835c02" />
        <g
           id="g5143">
          <path
             style="fill:#392f17"
             d="m 367.01282,680.50504 c -1.44911,-1.13987 -4.05678,-2 -6.06343,-2 -3.40143,0 -6.6637,-2.04492 -6.6637,-4.17707 0,-0.56882 -1.10606,-2.34869 -2.4579,-3.95527 -5.22139,-6.20527 -0.13409,-10.54578 14.01069,-11.95399 36.08072,-3.59206 51.04872,-10.37082 50.24821,-22.75655 -0.47906,-7.41209 -11.32861,-7.27329 -13.49976,0.17271 -2.15215,7.38082 -21.47317,13.7956 -53.21095,17.6666 -10.40971,1.26965 -10.40971,1.26965 -15,6.0067 -5.99683,6.18855 -19.09029,8.15457 -19.09029,2.86645 0,-0.48828 -1.35,-2.30043 -3,-4.027 -2.11221,-2.21023 -3,-4.13107 -3,-6.49089 0,-1.84343 -0.43417,-3.35169 -0.96482,-3.35169 -2.11592,0 -3.24451,-4.08042 -1.97577,-7.14343 2.47661,-5.97906 15.20863,-8.85657 39.18735,-8.85657 13.3998,0 32.42109,-1.75295 35.2099,-3.24484 2.1425,-1.14615 0.63814,-2.81966 -8.88155,-9.88017 -18.46936,-13.69826 -14.94298,-43.17801 11.16958,-93.37499 9.43348,-18.13428 14.00178,-46.02866 9.08931,-55.5 -4.49855,-8.67329 -12.32804,-10.53313 -31.41334,-7.462 -13.19488,2.12327 -24.04549,-0.20078 -33.06824,-7.08276 -3.14979,-2.40247 -3.14979,-2.40247 -5.65883,-0.42885 -5.44894,4.28613 -13.69359,0.99968 -13.69359,-5.45849 0,-2.66466 5.63442,-9.60617 8.65555,-10.66349 5.59557,-1.9583 0.89323,-16.84753 -5.33412,-16.88967 -5.14608,-0.0348 -6.27785,-3.61769 -3.32143,-10.51474 2.52508,-5.89078 2.55285,-5.67822 -1.00632,-7.70349 -1.79477,-1.02127 -2.99368,-2.52308 -2.99368,-3.75 0,-2.4146 1.25924,-2.644 3,-0.54651 1.83897,2.21582 4.27095,1.92906 3.52671,-0.41584 -0.87314,-2.75104 0.89733,-3.37807 2.99463,-1.06058 2.25875,2.4959 3.47866,2.51631 3.47866,0.0582 0,-2.92053 1.06827,-5.08179 2.51183,-5.08179 0.93671,0 1.14871,1.112 0.76185,3.99622 -1.24222,9.26144 15.48014,7.90558 19.10832,-1.54931 0.3076,-0.80159 -0.32171,-4.26756 -1.39847,-7.70217 -6.64652,-21.20098 3.20951,-24.91072 19.56311,-7.36342 8.41431,9.02851 13.45336,9.87126 13.45336,2.25001 0,-3.19452 13.65146,-12.63133 18.2727,-12.63133 7.78916,0 11.26048,9.23404 7.71784,20.53017 -2.77055,8.83421 -2.58026,9.4135 4.40494,13.41003 11.55951,6.61368 21.51652,22.37258 28.12477,44.51288 1.96221,6.57419 4.40045,13.32419 5.41832,15 6.90644,11.37065 17.73546,43.17401 19.9352,58.54692 1.10049,7.69084 0.61344,43.47025 -0.68299,50.17312 -1.96567,10.16303 3.23682,8.38808 8.35903,-2.85187 5.2311,-11.47888 6.45019,-16.63914 6.45019,-27.30275 0,-10.41892 0.88723,-12.6844 4.26056,-10.87906 2.90978,1.55727 3.56243,0.22182 4.71744,-9.65287 0.57812,-4.94262 1.48384,-10.78657 2.01271,-12.98657 1.33017,-5.53329 1.25032,-24.65714 -0.12578,-30.12211 -1.38418,-5.49711 -0.0615,-7.77078 2.94018,-5.05426 3.74975,3.39347 4.76039,1.3753 7.17287,-14.32363 0.54938,-3.575 1.45408,-8.07203 2.01045,-9.9934 0.55636,-1.92137 1.04442,-7.09637 1.08457,-11.5 0.15094,-16.55366 2.00127,-22.49 5.75439,-18.4615 2.63418,2.82747 4.56857,2.05924 7.04686,-2.79861 1.08054,-2.11803 3.96294,-6.07745 6.40534,-8.79873 3.43327,-3.82527 5.16921,-7.10301 7.65176,-14.44776 4.78374,-14.15294 6.86382,-15.03712 8.52128,-3.62215 1.30075,8.95838 1.72833,9.16845 9.10159,4.47168 20.6978,-13.18451 34.24825,-16.73813 28.52721,-7.48129 -2.04434,3.30781 -5.0485,11.8285 -5.07061,14.38176 -0.008,0.89714 2.25635,1.25 8.02056,1.25 9.83816,0 10.9508,1.31021 5.79205,6.82055 -10.50173,11.21746 -10.99238,14.53642 -2.07188,14.01528 10.30309,-0.60192 6.77362,11.33446 -10.26466,34.71422 -11.6363,15.96721 -12.683,20.15491 -4.35028,17.40487 6.15759,-2.03219 6.63069,-0.54793 2.84732,8.93292 -2.92293,7.32463 -5.58323,11.84099 -20.4096,34.64906 -5.37842,8.27386 -5.37097,8.23859 -1.82433,8.64668 6.62495,0.76228 -2.37827,17.20201 -15.62884,28.53799 -14.83892,12.69482 -19.0535,17.36674 -18.43889,20.4398 1.4537,7.26849 -17.82525,16.71467 -42.60641,20.87601 -15.04344,2.52615 -16.07586,2.79072 -16.07586,4.11956 0,2.77141 -9.70349,17.32558 -12.74941,19.12272 -4.6912,2.76787 -3.57191,9.18825 3.13475,17.98112 6.61821,8.67693 5.50389,12.89093 -5.2711,19.93362 -14.89417,9.73504 -24.29487,13.25477 -41.01303,15.35574 -4.53666,0.57012 -5.98906,1.29897 -9.09516,4.56416 -4.38263,4.6071 -9.89393,5.33493 -14.27892,1.8857 z m 10.0943,-7.30191 c 0.39875,-3.4759 2.24488,-4.21289 12.67857,-5.06136 12.51168,-1.01745 22.61631,-4.2736 31.93167,-10.28979 14.38595,-9.29095 14.45813,-9.40872 9.77459,-15.9469 -1.53656,-2.14502 -3.83875,-6.37504 -5.11599,-9.40004 -2.82263,-6.68509 -2.71237,-6.55852 -4.45414,-5.11298 -1.02115,0.84748 -1.19988,2.11337 -0.64547,4.57158 3.93464,17.44568 -16.47805,29.30504 -55.23693,32.09152 -8.18079,0.58814 -13.43931,2.44988 -6.91974,2.44988 3.1487,0 4.53572,1.87297 3.46102,4.67361 -0.51129,1.33239 -0.25004,1.52116 1.28138,0.92591 3.80053,-1.47726 5.31501,-1.01535 6.44885,1.96686 1.43,3.76119 6.33702,3.13426 6.79619,-0.86829 z m -45.95857,-18.55581 c 5.00407,-5.19182 7.3694,-5.96693 23.63714,-7.7458 20.39145,-2.22981 41.5,-8.99392 41.5,-13.29845 0,-4.8921 -6.09347,-6.10115 -10.63822,-2.11081 -1.82546,1.60277 -4.79114,3.16675 -6.5904,3.4755 -8.55872,1.46869 -22.38573,2.52218 -33.27138,2.53497 -13.98535,0.0164 -31.27547,2.34921 -33.43765,4.51139 -1.32123,1.32123 -0.9202,1.49092 3.52336,1.49092 7.46482,0 9.1831,2.27893 4.7898,6.35263 -2.58971,2.40131 -2.59634,2.44251 -0.5,3.10786 1.52974,0.48552 2.12449,1.49526 2.12449,3.6069 0,4.52275 3.3494,3.79522 8.86286,-1.92511 z m 92.63714,-34.98394 c 6.50911,-3.36907 9.42335,-5.48864 10.52965,-7.65834 0.84131,-1.65 2.41631,-4.32816 3.5,-5.95147 10.71682,-16.05315 17.05912,-83.46063 9.06911,-96.38873 -0.27005,-0.43696 -1.44089,-4.33909 -2.60187,-8.67141 -2.58845,-9.6591 -6.65931,-19.54496 -15.90472,-38.62375 -5.71546,-11.79437 -7.09217,-15.55002 -7.09217,-19.3473 0,-10.60656 -12.7942,-29.05559 -24.71206,-35.6344 -8.95354,-4.94246 -9.70009,-6.13181 -7.23046,-11.51889 7.17248,-15.64552 4.2118,-22.71795 -6.83907,-16.33713 -5.03856,2.90929 -7.49141,6.28111 -9.61924,13.22308 -0.42938,1.40085 -1.68047,1.75 -6.27073,1.75 -5.73434,0 -5.73434,0 -1.89733,3.92945 2.45442,2.51355 3.61985,4.49537 3.23434,5.5 -0.87341,2.27607 -2.97846,1.93072 -5.66545,-0.92945 -1.29175,-1.375 -3.21232,-2.5 -4.26793,-2.5 -1.07831,0 -2.14848,-0.87636 -2.44232,-2 -0.74368,-2.84384 -2.46642,-2.52959 -11.28563,2.05867 -25.09399,13.05533 -28.31391,46.27827 -5.35262,55.22814 12.51214,4.87699 32.50199,1.92174 36.13029,-5.34142 3.01532,-6.03608 7.09653,-4.49472 5.2399,1.97898 -0.83478,2.91072 -0.71243,3.08182 2.89925,4.05434 19.10452,5.14432 22.32725,36.55027 7.01602,68.37204 -1.58812,3.30062 -1.77293,5.44355 -1.29361,15 1.13128,22.55509 -6.84858,44.05066 -19.18298,51.67374 -10.0868,6.23399 4.17263,27.78805 20.65101,31.21534 14.63702,3.04431 23.05435,2.26746 33.38862,-3.08149 z m -23.80576,-51.68994 c -1.54317,-1.35762 -3.83593,-2.4684 -5.09502,-2.4684 -8.60613,0 -6.41284,-8.90405 3.94946,-16.03349 10.31064,-7.09391 14.63426,-25.73559 9.96535,-42.96651 -5.20778,-19.21962 4.91746,-34.31363 15.45262,-23.0357 6.94364,7.43319 5.75208,46.67267 -1.93187,63.61928 -2.79418,6.16241 -2.89421,6.78757 -1.51336,9.45784 4.01147,7.75734 -3.70605,18.37395 -9.29429,12.78571 -0.89717,-0.89717 -1.77799,-0.89717 -3.74706,0 -3.58536,1.6336 -4.58229,1.45962 -7.78583,-1.35873 z m 16.30576,-6.06411 c 0,-0.87764 -0.77302,-2.90432 -1.71782,-4.50375 -1.87851,-3.18006 -2.0444,-2.44958 3.38396,-14.90054 3.47792,-7.97728 5.04113,-52.3382 1.93515,-54.91594 -5.79451,-4.80901 -8.72835,3.44333 -5.70683,16.05225 6.13058,25.58317 1.43686,42.28654 -14.89446,53.00438 -2.88677,1.89451 -2.16777,3.55465 0.84191,1.94392 2.6892,-1.43922 5.14592,-0.36781 5.21054,2.27238 0.0524,2.14301 0.0524,2.14301 1.62197,-0.10699 2.09474,-3.00293 5.13449,-2.88279 6.32558,0.25 1.0602,2.78854 3,3.37325 3,0.90429 z m -72,-132.07257 c -9.60375,-2.59572 -10.8264,-5.27391 -6.43275,-14.09083 6.1509,-12.34326 17.42442,-14.95802 25.19911,-5.84464 1.88127,2.2052 2.60694,2.47434 4.27067,1.58393 2.52987,-1.35394 4.2866,-0.32573 3.64371,2.13268 -0.27143,1.03793 -0.19813,1.89403 0.16288,1.90245 4.04166,0.0943 3.09387,4.98469 -0.96606,4.98469 -1.03266,0 -1.87756,0.45 -1.87756,1 0,0.55 1.09844,1 2.44098,1 1.34254,0 2.70688,0.43023 3.03187,0.95607 0.75049,1.21432 -3.98099,4.37542 -5.69081,3.80201 -0.70512,-0.23647 -3.26156,0.62122 -5.68098,1.90598 -5.05659,2.68517 -9.96655,2.86627 -18.10106,0.66766 z m 15.18818,-10.33172 c -0.35921,-6.33575 -3.3232,-10 -8.08896,-10 -3.89927,0 -6.92561,3.44709 -5.30483,6.04237 0.66308,1.06177 1.20561,3.4366 1.20561,5.27739 0,4.48195 0.51863,4.81531 6.9603,4.47387 5.5397,-0.29363 5.5397,-0.29363 5.22788,-5.79363 z m 103.31182,173.00983 c 14.79177,-2.64835 24.17249,-5.69028 30.34217,-9.83922 1.12289,-0.75511 1.12289,-1.26759 0,-3.13682 -1.24252,-2.06836 -1.04651,-2.46811 2.63987,-5.38402 2.19012,-1.73237 6.69012,-5.63966 10,-8.68286 3.30988,-3.0432 9.09506,-8.17852 12.85596,-11.41182 6.30765,-5.42278 12.65924,-12.89815 15.50497,-18.24824 1.03163,-1.9395 0.84935,-2.34518 -1.57598,-3.50762 -4.14712,-1.98766 -3.83879,-3.73202 2.18643,-12.36989 3.04205,-4.36114 6.20313,-9.43153 7.02462,-11.26754 0.82148,-1.83601 2.78008,-4.98601 4.35242,-7 3.75191,-4.80574 10.16954,-16.42983 10.16954,-18.4198 0,-1.2182 -1.02415,-1.52987 -4.61324,-1.4039 -8.94158,0.31381 -6.94849,-7.46703 6.602,-25.77354 12.77725,-17.26188 17.35761,-27.56456 12.25464,-27.56456 -11.38916,0 -13.4189,-3.77037 -6.77005,-12.57574 5.90539,-7.82076 5.81616,-8.2674 -1.72335,-8.62654 -7.55672,-0.35997 -8.05554,-1.51181 -4.67264,-10.78972 3.26034,-8.94179 1.11196,-8.95326 -13.96769,-0.0745 -13.88391,8.17469 -15.8606,8.4585 -18.11735,2.60124 -0.67509,-1.75215 -1.08314,-1.3473 -2.9383,2.9152 -1.18488,2.72245 -4.09534,7.02501 -6.46769,9.56124 -2.37234,2.53623 -5.09975,6.26852 -6.06089,8.294 -1.8859,3.97423 -7.75329,9.69484 -9.9436,9.69484 -1.86413,0 -2.55265,3.22042 -2.56557,12 -0.006,4.125 -0.67095,10.425 -1.4775,14 -0.80656,3.575 -2.14927,10.1 -2.98381,14.5 -1.27816,6.73891 -1.99465,8.39409 -4.54517,10.5 -3.02782,2.5 -3.02782,2.5 -3.02438,15.5 0.002,7.15 -0.43017,14.575 -0.96013,16.5 -0.52996,1.925 -1.40859,7.44937 -1.9525,12.27637 -1.22039,10.83055 -2.65054,14.11552 -6.33017,14.54005 -2.67212,0.30829 -2.74261,0.48123 -2.74261,6.729 0,12.4361 -8.32513,31.02795 -15.85865,35.41587 -3.71587,2.16432 -8.12851,9.09654 -8.14054,12.78871 -0.002,0.5321 2.88989,0.15934 13.49919,-1.74017 z m -89.7194,-10.25983 c 7.8356,-10.22334 14.80048,-41.63077 9.63102,-43.43009 -1.99742,-0.69524 -14.85917,30.39349 -15.92362,38.4897 -0.33917,2.57971 -0.84847,5.92789 -1.13179,7.44039 -0.88516,4.7255 2.8506,3.46757 7.42439,-2.5 z M 321.79782,416.92607 c 0.55667,-1.05657 1.83296,-3.13874 2.8362,-4.62705 2.5407,-3.76917 1.31804,-5.1292 -4.06561,-4.52238 -5.48014,0.61769 -7.25193,2.07036 -5.4958,4.50592 0.68308,0.94737 1.73662,2.98043 2.34119,4.51792 1.20361,3.06092 2.8132,3.10703 4.38402,0.12559 z m 29.98787,-25.22251 c 6.29722,-2.25871 6.2583,-2.72706 -0.84076,-10.11779 -9.24999,-9.63002 -12.35859,-8.03086 -8.50133,4.37336 2.60431,8.37496 2.3847,8.23993 9.34209,5.74443 z m -29.51604,-2.71785 c -0.89635,-1.08003 -2.23289,-1.337 -4.62245,-0.88871 -2.70029,0.50658 -3.36151,0.30946 -3.36151,-1.00211 0,-4.04533 8.90945,-4.49607 11.01738,-0.55738 1.82243,3.40525 -0.60992,5.36834 -3.03342,2.4482 z"
             id="path4627"
             inkscape:connector-curvature="0" />
        </g>
      </g>
    </g>
  </g>
</svg>
