<?xml version="1.0" encoding="UTF-8" standalone="no"?>
<!-- Created with Inkscape (http://www.inkscape.org/) -->
<svg xmlns:dc="http://purl.org/dc/elements/1.1/" xmlns:cc="http://creativecommons.org/ns#" xmlns:rdf="http://www.w3.org/1999/02/22-rdf-syntax-ns#" xmlns:svg="http://www.w3.org/2000/svg" xmlns="http://www.w3.org/2000/svg" xmlns:sodipodi="http://sodipodi.sourceforge.net/DTD/sodipodi-0.dtd" xmlns:inkscape="http://www.inkscape.org/namespaces/inkscape" width="955.04352" height="561.61896" id="svg3013" version="1.1" inkscape:version="0.48.0 r9654" sodipodi:docname="New document 3">
  <defs id="defs3015"/>
  <sodipodi:namedview id="base" pagecolor="#ffffff" bordercolor="#666666" borderopacity="1.0" inkscape:pageopacity="0.0" inkscape:pageshadow="2" inkscape:zoom="0.35" inkscape:cx="486.80748" inkscape:cy="240.80947" inkscape:document-units="px" inkscape:current-layer="layer1" showgrid="false" fit-margin-top="0" fit-margin-left="0" fit-margin-right="0" fit-margin-bottom="0" inkscape:window-width="802" inkscape:window-height="445" inkscape:window-x="0" inkscape:window-y="24" inkscape:window-maximized="0"/>
  <g inkscape:label="Layer 1" inkscape:groupmode="layer" id="layer1" transform="translate(111.80748,-211.55272)">
    <path style="fill:#dd4814;fill-opacity:1" d="m 169.03668,677.2749 6.87825,5.7442 c 8.43645,7.04547 17.54609,10.53871 28.46451,12.29635 23.20392,3.73535 105.03172,-3.70362 147.99571,-11.08919 28.2588,-4.85773 30.02523,-2.82669 45.23729,5.26162 18.33986,9.7514 68.7615,17.57784 81.81962,7.24776 12.35683,-9.7753 -2.7901,-17.68133 -23.4204,-32.55745 5.30195,-3.30918 10.86723,-5.73254 21.97111,-9.31671 73.74611,-23.80418 137.30096,-74.63125 176.9236,-128.39665 27.42306,-37.21138 40.75209,-70.85526 54.09776,-136.54857 8.78129,-43.22535 12.90376,-57.16016 19.88953,-66.14526 2.72411,-3.50375 22.15874,-12.19784 41.56105,-21.91932 36.01537,-18.04544 68.09597,-37.20199 71.48587,-42.68712 6.01447,-11.17888 -10.0675,-6.16227 -24.4826,-7.22482 -13.7875,-1.01628 -33.075,-4.26289 -45.3409,-8.63182 -12.26595,-4.36889 -20.97289,-8.86186 -27.31981,-8.18087 -3.24611,0.34831 -12.89347,6.63196 -18.79907,12.72498 -12.7249,13.12878 -15.087,16.53612 -15.087,5.98143 0,-15.94032 0.88122,-20.56814 -22.80244,-18.12065 -9.72256,1.00471 -22.89179,-2.13818 -40.27916,-11.36237 -11.77978,-6.2493 -18.82257,-14.40585 -24.73345,-12.52177 -5.91094,1.88403 0.24899,21.22648 3.94315,28.15554 2.07935,3.90001 11.53073,16.69335 21.00307,28.42963 31.02039,38.43439 36.85668,62.0918 22.76667,92.28492 -14.74822,31.60363 -48.75151,53.32524 -106.34719,67.93558 -16.87951,4.28186 -37.61066,9.7854 -52.72945,11.09649 -20.88633,1.81126 -23.73224,2.32964 -28.26274,4.41941 -17.01326,7.84759 -57.43937,26.98466 -111.54885,48.44353 -27.18887,10.78262 -63.29894,26.23786 -76.70188,33.63645 -26.58046,14.67273 -62.87172,39.57479 -90.25008,47.69234 -30.26255,8.9727 -38.02889,19.94776 -43.26567,52.49321 -3.77919,23.48678 -1.13796,28.38883 -2.26046,30.74866 -13.00789,0.94924 -22.29061,12.39789 -35.06484,14.13857 -13.93918,1.89943 -27.590726,14.93288 -42.100916,16.76053 -15.80251,1.99043 -31.61262,16.05894 -45.48049,18.13868 -16.31862,2.44726 -30.0084797,14.90651 -45.2036597,18.27301 -15.4159003,3.4154 -27.7057803,13.79447 -41.2703003,17.16356 -13.388181,3.32531 -23.545221,11.85322 -33.680541,14.81029 -10.10143,2.9472 -17.236803,8.21321 -22.434283,11.21326 -5.19743,3.00006 -6.29811,4.62717 -5.95903,5.18036 0.33904,0.55318 3.19863,0.5786 8.75018,-1.28022 5.551563,-1.85882 27.827413,-7.65755 36.855253,-12.88628 10.431471,-6.04169 22.320741,-5.77715 34.500551,-12.12014 13.23784,-6.89399 28.0683103,-7.51343 41.98331,-14.89848 15.42,-8.1838 31.53348,-8.19525 45.8543,-16.38073 15.81849,-9.04152 32.30209,-8.57326 46.113466,-16.56681 13.85361,-8.01799 28.42097,-5.35862 38.9057,-14.84817 2.51085,-2.27254 18.32479,-3.56435 27.82526,-6.58696 z" id="Large_Narwhal_Ubuntu_11.04" inkscape:connector-curvature="0" sodipodi:nodetypes="cssssscssssscssssssszsssssssssscssssssszsssssssc" inkscape:label="#large_narwhal">
      <desc id="desc2994">A sihloutte of a narwhal to be used with Ubuntu 11.04 promotional material.</desc>
      <title id="title2992">Large Narwhal for Ubuntu 11.04</title>
    </path>
  </g>
  <metadata>
    <rdf:RDF>
      <cc:Work>
        <dc:format>image/svg+xml</dc:format>
        <dc:type rdf:resource="http://purl.org/dc/dcmitype/StillImage"/>
        <cc:license rdf:resource="http://creativecommons.org/licenses/publicdomain/"/>
        <dc:publisher>
          <cc:Agent rdf:about="http://openclipart.org/">
            <dc:title>Open Clip Art Library</dc:title>
          </cc:Agent>
        </dc:publisher>
        <dc:title>large narwhal</dc:title>
        <dc:date>2011-02-24T02:44:28</dc:date>
        <dc:description>Narwhal silhouettes for Ubuntu 11.04 promotional material.</dc:description>
        <dc:source>http://openclipart.org/detail/122227/large-narwhal-by-squiggle</dc:source>
        <dc:creator>
          <cc:Agent>
            <dc:title>Squiggle</dc:title>
          </cc:Agent>
        </dc:creator>
        <dc:subject>
          <rdf:Bag>
            <rdf:li>Ubuntu</rdf:li>
            <rdf:li>animal</rdf:li>
            <rdf:li>clip art</rdf:li>
            <rdf:li>clipart</rdf:li>
            <rdf:li>narwhal</rdf:li>
            <rdf:li>silhouette</rdf:li>
            <rdf:li>whale</rdf:li>
          </rdf:Bag>
        </dc:subject>
      </cc:Work>
      <cc:License rdf:about="http://creativecommons.org/licenses/publicdomain/">
        <cc:permits rdf:resource="http://creativecommons.org/ns#Reproduction"/>
        <cc:permits rdf:resource="http://creativecommons.org/ns#Distribution"/>
        <cc:permits rdf:resource="http://creativecommons.org/ns#DerivativeWorks"/>
      </cc:License>
    </rdf:RDF>
  </metadata>
</svg>