<?xml version="1.0" encoding="UTF-8" standalone="no"?>
<!-- Created with Inkscape (http://www.inkscape.org/) -->

<svg
   xmlns:dc="http://purl.org/dc/elements/1.1/"
   xmlns:cc="http://creativecommons.org/ns#"
   xmlns:rdf="http://www.w3.org/1999/02/22-rdf-syntax-ns#"
   xmlns:svg="http://www.w3.org/2000/svg"
   xmlns="http://www.w3.org/2000/svg"
   xmlns:sodipodi="http://sodipodi.sourceforge.net/DTD/sodipodi-0.dtd"
   xmlns:inkscape="http://www.inkscape.org/namespaces/inkscape"
   width="745"
   height="850"
   id="svg3141"
   version="1.1"
   inkscape:version="0.48.4 r9939"
   sodipodi:docname="quetzal.svg">
  <defs
     id="defs3143" />
  <sodipodi:namedview
     id="base"
     pagecolor="#ffffff"
     bordercolor="#666666"
     borderopacity="1.0"
     inkscape:pageopacity="0.0"
     inkscape:pageshadow="2"
     inkscape:zoom="0.35"
     inkscape:cx="375"
     inkscape:cy="520"
     inkscape:document-units="px"
     inkscape:current-layer="layer1"
     showgrid="false"
     inkscape:window-width="1535"
     inkscape:window-height="876"
     inkscape:window-x="65"
     inkscape:window-y="24"
     inkscape:window-maximized="1" />
  <metadata
     id="metadata3146">
    <rdf:RDF>
      <cc:Work
         rdf:about="">
        <dc:format>image/svg+xml</dc:format>
        <dc:type
           rdf:resource="http://purl.org/dc/dcmitype/StillImage" />
      </cc:Work>
    </rdf:RDF>
  </metadata>
  <g
     inkscape:label="Calque 1"
     inkscape:groupmode="layer"
     id="layer1"
     transform="translate(0,-202.36218)">
    <g
       id="g3246"
       transform="matrix(1.4865687,0,0,1.4865687,-185.87838,-154.84551)">
      <path
         style="fill:#b0c13f"
         d="m 498.26973,803.62159 c 0.33635,-36.21472 -17.40861,-61.45429 -58.07041,-82.59651 -32.94646,-17.1306 -45.62408,-37.26026 -45.60554,-72.4129 0.005,-8.9375 -0.35195,-16.25 -0.7926,-16.25 -0.44065,0 -0.81699,3.7125 -0.83631,8.25 -0.0956,22.44649 -10.0464,37.60139 -21.21076,32.30356 -8.54836,-4.05646 -11.48137,-15.66726 -8.15681,-32.29007 0.59643,-2.98215 0.44804,-3.16436 -3.12255,-3.8342 C 351.16191,635.04437 343,617.99054 343,600.27901 c 0,-2.58547 -1.0589,-5.28937 -3.48085,-8.88838 -3.7273,-5.53874 -5.01143,-9.31858 -6.12482,-18.02845 -0.58306,-4.56116 -1.45222,-6.35349 -5.09183,-10.5 C 324.0458,558.01264 316,543.54897 316,540.74638 c 0,-2.3858 -1.97884,-1.59113 -14.91599,5.98995 -34.58875,20.2688 -59.26753,28.59139 -84.86613,28.61995 -16.9272,0.0189 -20.74046,-13.44798 -7.84852,-27.71781 4.18596,-4.63336 3.91043,-5.27109 -2.28603,-5.29107 -17.15467,-0.0553 -58.75853,-16.48492 -64.1551,-25.33521 -6.60438,-10.83108 0.88531,-16.97011 23.73305,-19.45311 7.83202,-0.85115 14.05438,-1.84796 13.82745,-2.21514 -0.22693,-0.36717 -4.14223,-2.82491 -8.70066,-5.46164 C 142.86663,473.73174 131,461.06352 131,447.40655 c 0,-10.89697 4.03892,-12.58138 29.75,-12.40712 11.1375,0.0755 20.25,-0.0559 20.25,-0.292 0,-0.23609 -2.95916,-3.82228 -6.57592,-7.96931 -30.88128,-35.40899 -37.91093,-79.09539 -13.05898,-81.15631 8.7632,-0.72671 14.07844,2.23752 68.1349,37.99784 70.30401,46.50866 67.8073,45.23754 78.3201,39.87431 7.4843,-3.81821 7.32457,-5.09178 -0.63864,-5.09178 -8.18479,0 -9.83986,-1.28024 -4.5256,-3.50068 7.92907,-3.31297 12.68463,-8.93479 9.31808,-11.01543 C 310.17708,402.73555 301,391.30241 301,390.17434 c 0,-1.06061 4.09681,-0.79092 11.75,0.7735 5.40112,1.10406 -3.19996,-12.30954 -11.71951,-18.27685 -3.39504,-2.37799 -2.31352,-3.30881 3.84451,-3.30881 14.34166,0 14.89576,-1.33837 4.05958,-9.80541 -9.73699,-7.60817 -9.76829,-8.81794 -0.21598,-8.34816 9.05813,0.44548 9.66732,-0.72079 3.06139,-5.86087 -2.90399,-2.25959 -6.08664,-4.76772 -7.07254,-5.5736 -3.47783,-2.84281 -0.9058,-3.50537 10.87377,-2.80113 14.92098,0.89206 14.64311,-1.89366 -1.30987,-13.13191 -7.14922,-5.03635 -6.76357,-5.24795 12.72865,-6.98406 18.27342,-1.62755 18.47909,-2.38337 4.5,-16.53679 -11.73659,-11.88295 -13.60475,-14.70314 -8.96894,-13.53963 4.47074,1.12208 17.80024,3.42472 23.46894,4.0542 3.025,0.3359 7.1875,0.85653 9.25,1.15695 4.45352,0.64868 4.65384,-0.13105 1.63553,-6.36606 -2.82365,-5.83288 -2.28757,-5.99473 6.01199,-1.81514 8.91235,4.48819 8.94859,4.79224 -1.93597,-16.2399 -11.12603,-21.49871 -10.45437,-22.47119 5.53845,-8.01905 3.3,2.98209 11.70664,10.00245 18.68142,15.6008 6.97478,5.59834 12.96384,10.63577 13.30901,11.19428 0.34518,0.55852 1.05105,1.01548 1.56859,1.01548 3.76585,0 -4.89092,-30.35899 -11.78925,-41.34448 -3.27721,-5.2189 -2.43556,-5.4355 3.3475,-0.86147 9.85928,7.79804 26.45423,27.13088 34.84617,40.59521 2.60897,4.18591 5.08554,7.61074 5.5035,7.61074 1.75285,0 8.13011,-16.32863 11.50701,-29.46306 4.1885,-16.2912 6.60829,-9.7887 11.15021,29.96306 2.02352,17.71026 1.88834,17.45912 7.14663,13.27618 8.19669,-6.5204 17.09333,-19.40516 18.71005,-27.09722 0.5894,-2.80426 3.11177,-3.29737 2.92248,-0.57133 -0.0532,0.7658 -0.38948,4.76737 -0.74734,8.89237 -0.63692,7.34172 -0.61378,7.44743 1.09668,5.00898 13.99717,-19.95453 24.17924,-9.82609 24.22998,24.10235 0.0174,11.61133 0.0174,11.61133 2.49888,11.13695 14.66097,-2.80262 15.05169,19.74984 1.10914,64.01849 -2.44617,7.76676 -2.44617,7.76676 0.94599,9.1841 12.76826,5.33491 -6.10334,44.77131 -34.18371,71.43448 -11.58349,10.99888 -11.58349,10.99888 -7.01299,17.8739 6.95421,10.46062 8.84962,17.0466 4.58496,15.93137 -1.48506,-0.38836 -0.66345,0.94995 2.88957,4.70674 8.26478,8.73878 11.18552,16.83591 11.18552,31.00943 0,6.78202 10.70366,15.59321 18.94231,15.59321 0.47126,0 1.02927,-5.7375 1.24002,-12.75 0.64531,-21.47265 10.68727,-32.29316 25.98657,-28.0013 2.57367,0.72198 2.74818,0.50788 4.89058,-6 9.02068,-27.40175 35.5418,-49.00457 65.3573,-53.23689 12.31904,-1.74869 22.36749,0.093 12.12193,2.2217 -16.4339,3.41446 -35.65718,21.92548 -42.06119,40.50276 -8.57685,24.88044 -13.74844,111.10947 -5.83339,97.26373 4.20359,-7.35331 7.62407,-17.28564 10.31437,-29.95069 3.11237,-14.65204 4.88088,-17.84372 15.11875,-27.28531 11.8842,-10.95988 16.05157,-12.33885 9.86409,-3.264 -7.61868,11.1739 -10.54735,20.67002 -11.91424,38.63155 -1.1877,15.60683 -2.28511,18.91288 -15.72342,47.36845 -29.38936,62.23188 -53.38553,82.5312 -99.80368,84.42793 -14,0.57207 -14,0.57207 -6.5,4.47581 26.19541,13.63467 36.89171,41.2753 31.57589,81.59626 -3.02196,22.9219 -5.47277,27.19864 -5.30616,9.25941 z m -61.5271,-94.7728 c 0.13345,-1.09263 0.51193,-3.38036 0.84108,-5.08384 0.55975,-2.89695 0.18455,-3.39258 -5.80225,-7.66467 -8.47247,-6.04583 -12.95939,-11.72414 -20.27649,-25.6604 -7.26585,-13.83865 -7.92092,-14.08184 -8.29026,-3.07762 -0.45765,13.63559 9.59517,32.06578 20.2295,37.08745 2.23068,1.05336 5.40579,3.02997 7.05579,4.39247 3.46002,2.85712 5.89417,2.8597 6.24263,0.007 z m 10.91859,-13.94647 c 3.8087,-1.09008 8.11973,-7.66394 5.88248,-8.97014 -8.54146,-4.98688 -17.6006,-15.44198 -24.1055,-27.82 -4.24264,-8.07323 -5.4382,-8.442 -5.4382,-1.67742 0,5.07258 0,5.07258 -2.63486,3 -5.2067,-4.09559 -6.76048,2.10898 -3.1993,12.77551 3.38124,10.12759 19.90258,25.29066 25.83416,23.71026 0.825,-0.21981 2.47255,-0.67801 3.66122,-1.01821 z m 13.80341,-14.04014 c -0.0195,-0.55 -2.04445,-2.09335 -4.5,-3.42966 -2.45554,-1.33631 -8.0169,-5.95904 -12.35857,-10.27272 -8.74696,-8.6906 -10.41714,-9.29247 -5.78762,-2.08564 6.76971,10.53849 22.85719,21.75404 22.64619,15.78802 z m 2.04496,-10.06845 c 7.2491,-3.02887 12.19187,-9.7877 7.93849,-10.85523 -1.40356,-0.35227 -7.65456,-3.12192 -13.89112,-6.15478 -8.09896,-3.93856 -12.02576,-5.34198 -13.74183,-4.91128 -1.69321,0.42497 -2.95219,-0.004 -4.26387,-1.45362 -4.373,-4.83211 -4.44403,0.42466 -0.0938,6.94336 4.65128,6.96985 16.31196,17.90167 19.17044,17.97218 0.62033,0.0153 2.8171,-0.67798 4.88171,-1.54063 z m 26.79711,-15.92322 c 23.49493,-6.11965 42.63326,-27.66255 45.2172,-50.89835 0.73412,-6.60146 1.47046,-6.30371 -7.64024,-3.08952 -8.97279,3.16553 -19.49509,-3.20014 -25.27332,-15.2896 -2.68872,-5.62545 -3.41597,-6.32185 -10.99475,-10.52832 -16.53355,-9.17665 -16.24348,-9.07828 -20.96254,-7.10926 -2.87471,1.19946 -7.07722,1.76032 -13.65305,1.82212 -10.12805,0.0952 -18.85628,3.92807 -19.08886,8.38264 -0.25669,4.91647 0.37576,11.66009 1.57898,16.83617 2.1405,9.20816 0.33514,9.73627 -8.08752,2.36579 -6.20908,-5.43343 -6.90196,-5.74704 -7.75955,-3.51218 -10.42339,27.16292 35.44792,69.15118 66.66365,61.02051 z M 401,386.80316 c 0,-4.81923 -1.51074,-4.32265 -1.63821,0.53848 -0.0574,2.18871 0.28773,3.73715 0.76693,3.44098 C 400.60793,390.48646 401,388.6957 401,386.80316 z m -28.56613,-14.76897 c 3.60423,-2.63547 1.33075,-9.67201 -3.125,-9.67201 -0.71988,0 -2.20887,0.9 -3.30887,2 -4.91789,4.91789 0.82883,11.77052 6.43387,7.67201 z"
         id="path3254"
         inkscape:connector-curvature="0" />
      <path
         style="fill:#5eae1d"
         d="m 499.30041,796.98184 c -5.03178,-36.9005 -20.33066,-56.82974 -59.03231,-76.899 -32.68006,-16.94669 -44.861,-36.71038 -44.69053,-72.51078 0.099,-20.78637 -2.5821,-24.1736 -3.71916,-4.69871 -0.94103,16.11741 -3.34993,22.87008 -9.85841,27.63534 -12.7393,9.3272 -21.72093,-6.26121 -17.43014,-30.25154 0.64117,-3.58488 0.62196,-3.60868 -3.43693,-4.25772 C 351.8178,634.50988 344,618.13426 344,600.1118 c 0,-2.58864 -0.82337,-4.96256 -2.47,-7.1214 -3.84266,-5.03799 -6.32056,-11.53005 -7.11005,-18.62822 -0.64275,-5.77881 -1.21022,-7.05476 -5.11459,-11.5 C 325.02422,557.98797 317,543.54599 317,540.715 c 0,-3.37217 -3.59025,-2.25642 -15.27209,4.74615 -62.53557,37.48634 -124.86049,39.1429 -92.57134,2.46049 4.89973,-5.56638 4.91201,-5.54817 -4.44901,-6.59797 C 193.32494,540.04716 176.01469,534.93706 158.5,527.68288 147.1853,522.9966 141,517.0748 141,510.9284 c 0,-8.01135 6.20062,-10.83502 28.38174,-12.92461 14.32557,-1.34955 14.54157,-1.74159 4.11826,-7.47469 -52.92253,-29.10887 -57.78188,-56.42572 -9.75,-54.80966 21.18009,0.71262 20.55074,1.1968 11.67408,-8.98132 -31.0694,-35.6247 -38.26247,-80.35647 -12.92408,-80.37141 8.52196,-0.005 14.13094,3.22278 71.86652,41.35714 61.70779,40.758 62.11908,40.98272 69.91589,38.20113 11.77927,-4.20236 13.54069,-8.55811 3.46759,-8.57485 -7.25,-0.012 -7.25,-0.012 -2.75,-2.57433 10.55219,-6.0084 10.87472,-7.47092 3.5,-15.87084 -7.96729,-9.07487 -7.62628,-9.52593 5.25,-6.94437 5.35679,1.07398 4.09872,-2.19212 -4.67081,-12.12597 -7.92081,-8.97244 -7.92081,-8.97244 -0.29787,-9.69301 12.88981,-1.21844 12.96842,-1.56929 2.21868,-9.90185 -9.05931,-7.02225 -10.02368,-8.9587 -4.06334,-8.15925 11.74943,1.57593 13.50403,-1.54051 4.56334,-8.10523 -8.79741,-6.4595 -8.509,-6.84766 4.47732,-6.02593 15.70088,0.99351 15.74572,-2.17749 0.19497,-13.78748 -6.52816,-4.87384 -6.82603,-4.6032 6.42162,-5.83456 10.71545,-0.99599 19.81181,-3.19455 20.96988,-5.06835 0.32303,-0.52266 -4.35852,-6.22576 -10.40343,-12.67354 -12.86418,-13.72152 -12.82855,-12.87672 -0.45859,-10.87289 28.3831,4.59781 29.02629,4.54979 26.15001,-1.95251 -2.62687,-5.93849 -2.23102,-6.12287 5.14822,-2.39784 9.1683,4.62814 8.99894,3.38639 -2.5719,-18.85735 -8.98456,-17.27188 -8.65514,-17.86228 3.80879,-6.82605 4.54471,4.02413 13.73263,11.64756 20.4176,16.94096 6.68497,5.29339 12.44903,10.10092 12.80902,10.6834 6.83654,11.06174 3.12951,-12.95861 -5.04897,-32.71572 -1.9279,-4.65731 -3.24971,-8.7234 -2.93736,-9.03575 1.91327,-1.91327 28.61478,29.26212 36.25706,42.33199 4.36539,7.4657 5.52814,7.85631 8.12208,2.72852 2.71622,-5.36953 9.77041,-25.06983 10.56322,-29.5 1.86262,-10.40821 7.81693,17.32674 9.8053,45.6727 0.60899,8.68169 15.52057,-3.60923 24.1706,-19.9227 2.65119,-5 2.65119,-5 2.02379,3.25 -0.74002,9.73097 -0.52843,9.88789 3.93159,2.91576 11.8996,-18.60208 20.47456,-10.03657 21.41349,21.38991 0.46475,15.55566 0.46475,15.55566 4.97028,15.5 12.3838,-0.15301 12.41804,18.52183 0.10788,58.84813 -1.66281,5.44709 -3.24014,10.46894 -3.5052,11.15966 -0.26734,0.6967 0.55207,1.57136 1.84041,1.96448 14.78585,4.51168 -3.05703,43.18218 -32.96768,71.45014 -11.47889,10.84848 -11.47889,10.84848 -6.88922,17.75233 7.22276,10.86459 8.4663,15.33387 4.0306,14.48593 -3.29299,-0.62949 -2.69355,0.5053 3.07636,5.82382 8.05841,7.42798 13.64272,23.60909 11.98053,34.71479 -0.63684,4.25495 -0.63684,4.25495 9.04801,8.75 12.97406,6.02167 12.18305,6.42514 12.26312,-6.25495 0.14795,-23.42977 8.99094,-33.40286 26.69493,-30.10644 1.58263,0.29468 2.39981,-1.01564 4.7161,-7.56219 10.10673,-28.56472 37.06792,-49.18033 68.12424,-52.09055 9.4072,-0.88153 9.61672,-0.35926 1.35813,3.38536 -25.9324,11.75832 -38.29685,32.14623 -42.52727,70.12382 -2.64367,23.73286 -4.14722,74.7742 -2.16662,73.55011 4.01536,-2.48162 11.88501,-22.41094 15.03715,-38.08048 2.72607,-13.55149 4.79489,-17.20987 14.73188,-26.05095 10.27072,-9.138 10.7092,-8.98367 4.91626,1.7303 -5.65758,10.46361 -7.3073,16.92164 -8.55101,33.47376 -1.17628,15.65471 -1.67576,17.14341 -15.72804,46.87726 -29.57193,62.57255 -54.86827,83.46856 -101.07515,83.49299 -15.56297,0.008 -15.6772,0.14627 -4.97069,6.00701 25.98467,14.22399 36.2689,39.40836 31.78972,77.84773 -1.70642,14.64409 -2.41155,15.72404 -3.76862,5.77193 z m -59.46756,-84.36966 c 3.44067,-6.6664 2.18132,-11.00585 -4.44738,-15.32462 -13.67433,-8.90917 -23.96558,-24.29062 -25.87577,-38.67426 -0.99019,-7.45605 -5.28619,-8.58818 -7.41225,-1.95334 -4.87845,15.22432 5.71928,38.87101 22.65532,50.5508 10.58223,7.29794 13.55219,8.36173 15.08008,5.40142 z m 22.25693,-13.08224 c -0.53932,-1.00774 -1.65576,-2.3926 -2.48098,-3.07747 -1.12712,-0.93542 -1.2651,-1.8641 -0.5546,-3.73285 1.44612,-3.80357 1.379,-3.90457 -5.46858,-8.2292 -10.61893,-6.70647 -16.11347,-13.23417 -23.46585,-27.87824 -4.47005,-8.90321 -4.52565,-8.94291 -9.5714,-6.83466 -12.6531,5.28681 -3.99692,32.09989 14.05979,43.55112 8.89571,5.64149 29.6937,10.33461 27.48162,6.2013 z m 1.73229,-17.85313 c -0.17851,-0.92696 -3.02401,-3.24148 -6.32332,-5.14338 -3.31757,-1.91243 -9.61697,-7.19306 -14.09399,-11.81463 -10.56058,-10.90155 -12.39009,-10.50748 -5.06645,1.09129 7.52078,11.911 27.06549,24.07994 25.48376,15.86672 z m 3.84689,-7.81176 c 1.55707,-0.82342 4.76728,-1.97216 7.13379,-2.55275 11.30454,-2.7734 10.89334,-8.3676 -0.88118,-11.98818 -4.71813,-1.45079 -13.45731,-5.18574 -19.42039,-8.29987 -5.96308,-3.11414 -11.58684,-5.66207 -12.49726,-5.66207 -0.91041,0 -2.71217,-1.125 -4.00392,-2.5 -5.42975,-5.7797 -7.11268,-2.20248 -2.94583,6.26159 7.62683,15.4923 25.07516,28.72844 32.61479,24.74128 z m -88.65879,-16.75287 c 10.88791,-7.41024 10.55792,-29.75 -0.43945,-29.75 -8.37879,0 -14.28161,22.44296 -7.64764,29.07692 3.51209,3.5121 3.87173,3.54203 8.08709,0.67308 z m 116.52622,-2.8495 c 21.27978,-7.96178 37.65488,-27.38671 40.47985,-48.01911 1.34695,-9.83756 0.82452,-10.54128 -5.46264,-7.35832 -10.15339,5.1403 -20.16558,0.15472 -27.01885,-13.45407 -3.3715,-6.6949 -3.3715,-6.6949 -15.20312,-13.12567 -12.70036,-6.90295 -13.01987,-6.96983 -21.33163,-4.46503 -3.85347,1.16127 -7.5534,1.50213 -12.35908,1.13862 -14.68961,-1.11117 -20.33766,7.58518 -16.16092,24.88308 0.79682,3.3 1.46479,6.3375 1.48438,6.75 0.0973,2.0493 -3.50669,0.23971 -8.46438,-4.25 -6.24625,-5.65663 -7.18716,-5.95303 -8.43969,-2.65863 -11.54253,30.35915 39.4075,72.93167 72.47608,60.55913 z M 517.5,651.01146 c 13.19909,-6.15391 24.50977,-21.47696 22.63164,-30.66002 -0.65329,-3.19421 -0.6671,-3.18163 -6.64314,6.04665 -4.12195,6.36517 -8.94643,12.00854 -15.47853,18.1058 -10.07165,9.4012 -10.1989,11.0249 -0.50997,6.50757 z M 367.52528,629.7404 c 1.33638,-1.44198 2.68329,-4.25448 2.99313,-6.25 0.30984,-1.99552 1.3131,-6.55322 2.22946,-10.12822 4.72101,-18.41806 -0.95516,-34.89805 -11.60988,-33.70774 -7.78645,0.86988 -8.46411,2.36994 -8.53985,18.90368 -0.10695,23.34616 7.48722,39.21009 14.92714,31.18228 z m 34.17817,-11.93812 c 2.57009,-2.84995 3.51004,-5.91497 6.51287,-21.23723 2.59891,-13.26126 2.20114,-14.74353 -3.92574,-14.62927 -11.89111,0.22177 -23.02478,28.72121 -15.79212,40.42392 0.91332,1.47777 10.85744,-1.95423 13.20499,-4.55742 z m -17.24073,-19.92699 c 3.05458,-8.37512 2.57604,-10.52642 -2.33516,-10.4978 -4.60871,0.0269 -5.28895,1.08452 -4.21936,6.5603 0.52904,2.70841 1.23885,6.6244 1.57737,8.70218 0.82189,5.0447 1.70932,4.19516 4.97715,-4.76468 z m 144.81883,-6.59237 c 16.19506,-5.41514 22.52614,-27.89214 7.39257,-26.24558 -8.26985,0.89977 -12.95438,5.93875 -15.17654,16.32484 -0.75606,3.53372 -2.23376,5.28108 -3.69983,4.375 -2.43169,-1.50287 0.5901,-11.43978 5.78773,-19.03243 3.53057,-5.15744 3.53057,-5.15744 0.79963,-10.38026 -5.16634,-9.88044 -4.06379,-29.46231 1.65886,-29.46231 1.85159,0 2.54183,0.60831 2.80464,2.47174 0.19173,1.35946 0.97923,3.37208 1.75,4.47251 0.77076,1.10042 1.40139,3.22134 1.40139,4.71316 0,6.8754 9.61938,15.45118 12.66282,11.28903 6.26884,-8.57315 -2.86475,-28.44644 -13.07373,-28.44644 -12.73937,0 -17.58909,8.19253 -17.58909,29.71289 0,15.19976 0.60694,14.87079 -14.53222,7.87665 -12.87534,-5.94827 -13.19464,-5.9522 -16.16956,-0.19935 -1.45851,2.82045 -1.44203,3.10944 0.23227,4.07283 12.17128,7.00342 20.04291,13.40863 23.97581,19.50934 7.49018,11.61876 10.31599,12.78001 21.77525,8.94838 z M 386.19579,555.62793 c 10.09882,-10.09882 -2.71719,-26.73291 -14.88197,-19.31552 -4.03944,2.46302 -5.64715,5.47403 -5.64715,10.57627 0,10.99757 12.81532,16.45305 20.52912,8.73925 z m 173.21841,-0.51575 c 3.54032,-5.45484 4.44859,-22.79434 1.44585,-27.60248 -4.67684,-7.48881 -15.62878,-4.86402 -12.35108,2.96011 1.41021,3.36628 1.81819,6.78684 1.74646,14.64237 -0.0855,9.35984 0.0679,10.25 1.76647,10.25 1.02304,0 2.13818,0.45 2.4781,1 1.05116,1.70081 3.38422,1.10736 4.9142,-1.25 z m -78.36322,-32.65007 c -3.75827,-7.36682 -5.7742,-7.19798 -6.60427,0.55311 -0.6675,6.23302 -0.56531,6.74965 1.67115,8.4482 6.29667,4.78219 9.23226,-0.5743 4.93312,-9.00131 z m 74.2013,-26.05617 c 1.89943,-3.11559 1.93356,-3.36252 0.28242,-2.04376 -1.99904,1.59663 -8.58512,14.97371 -8.46061,17.18446 0.0408,0.72355 1.41141,-1.58977 3.0459,-5.1407 1.6345,-3.55093 3.94403,-8.05093 5.13229,-10 z M 334.9357,462.42308 c 2.15729,-1.36507 -0.008,-3.46267 -7.82259,-7.57914 C 323.4759,452.92805 317.8,448.96043 314.5,446.027 c -3.3,-2.93343 -12.3,-9.29821 -20,-14.14394 -7.7,-4.84574 -31.55,-20.39613 -53,-34.55642 -44.95358,-29.67627 -50.74467,-32.958 -53.59973,-30.37421 -13.92869,12.6053 68.48807,79.86283 111.54118,91.02498 16.76108,4.34556 32.53098,6.32075 35.49425,4.44567 z m 109.11359,-14.71026 c 4.27858,-12.96422 -3.98124,-29.15351 -14.32929,-28.0855 -8.19657,0.84596 -13.91821,3.48988 -10.98756,5.07724 1.22784,0.66506 4.33484,4.12259 6.90443,7.68341 14.13891,19.59303 16.38643,21.46367 18.41242,15.32485 z M 314.55385,435.44931 C 313.58074,433.87478 311,434.11408 311,435.77885 c 0,1.6814 2.13793,2.66393 3.36287,1.54546 0.47457,-0.43332 0.56052,-1.27707 0.19098,-1.875 z m 85.54264,-37.08713 c 4.38785,0 6.53112,-14.66111 2.83093,-19.36514 -4.02615,-5.11842 -8.56899,-2.45478 -7.63897,4.47903 0.32197,2.4005 -0.0378,5.75865 -0.86961,8.11615 -1.72675,4.89412 -1.74673,4.29922 0.2101,6.25604 0.89592,0.89592 2.28272,1.37806 3.08179,1.07143 0.79906,-0.30663 1.87265,-0.55751 2.38576,-0.55751 z m -25.55104,-25.45455 c 4.50402,-4.50401 1.26996,-12.54545 -5.04545,-12.54545 -3.57646,0 -7.5,4.16133 -7.5,7.95455 0,6.55839 7.74408,9.39228 12.54545,4.5909 z m 58.10239,-9.29545 c 16.21646,-17.47229 -33.3913,-58.44217 -54.23057,-44.78775 -6.173,4.04471 -5.30233,12.64115 1.01307,10.00241 11.19352,-4.67695 31.36988,3.38475 33.1469,13.24424 0.37581,2.0851 1.97467,6.58483 3.55302,9.9994 1.57836,3.41456 2.86974,6.62947 2.86974,7.14424 0,5.60647 9.64223,8.71328 13.64784,4.39746 z"
         id="path3252"
         inkscape:connector-curvature="0" />
      <path
         style="fill:#bb3b16"
         d="m 499.28005,795.65933 c -5.29237,-36.16857 -25.06129,-61.06395 -61.14016,-76.99495 -31.54848,-13.93056 -46.89202,-44.99122 -41.89112,-84.8022 0.17801,-1.41708 -0.33169,-2 -1.74877,-2 -1.834,0 -2.055,0.88756 -2.66268,10.69372 -1.57846,25.47167 -13.19489,38.27456 -23.78446,26.21371 -5.09281,-5.8004 -5.84719,-11.90156 -3.45256,-27.92321 0.60021,-4.01578 0.60021,-4.01578 -3.80865,-5.19497 -9.33141,-2.49578 -16.68293,-17.8666 -16.77001,-35.06336 -0.0163,-3.2233 -0.87876,-5.52014 -3.50795,-9.34231 -3.72134,-5.40988 -4.99555,-9.12733 -6.12516,-17.86985 -0.59501,-4.60503 -1.51424,-6.45226 -5.72271,-11.5 -2.75761,-3.30755 -6.52742,-9.38873 -8.37735,-13.51373 -4.19058,-9.34417 -4.88527,-10.54398 -5.97694,-10.32282 -0.48103,0.0974 -6.54884,3.55622 -13.48404,7.68617 -31.75089,18.90783 -53.42868,26.56186 -80.13438,28.29396 -20.72477,1.34419 -25.64453,-10.52964 -11.05423,-26.67936 4.34769,-4.81236 3.7455,-5.97795 -3.08842,-5.97795 -15.25782,0 -54.18264,-14.42294 -61.86045,-22.92136 -9.98088,-11.04764 -2.08534,-17.79214 23.61176,-20.16955 15.15237,-1.40185 16.40199,-2.21095 8.94823,-5.79373 -18.91651,-9.09254 -40.90427,-27.54678 -44.10194,-37.01458 -5.70364,-16.88759 5.41012,-22.46238 38.62717,-19.3758 12.41387,1.15351 12.51989,0.93172 4.21928,-8.8267 -31.72659,-37.29862 -38.91773,-80.89828 -13.34302,-80.89828 7.92826,0 12.81498,2.79137 64.84851,37.04245 69.66907,45.85966 68.16592,45.01092 75.90867,42.86116 11.66223,-3.23801 14.55618,-8.68235 4.84133,-9.10792 -6.75,-0.29569 -6.75,-0.29569 -3.15874,-2.0843 10.00537,-4.98314 10.8028,-8.03305 4.07852,-15.59906 -8.40213,-9.4539 -8.33678,-9.88219 1.21503,-7.96392 9.82069,1.97228 9.35141,-0.0682 -3.23779,-14.07836 -6.35299,-7.07005 -6.35299,-7.07005 0,-7.16973 13.70743,-0.21507 14.39588,-1.86187 4.16569,-9.96449 -9.73915,-7.71371 -9.8085,-7.93583 -2.47783,-7.93583 11.30761,0 11.8793,-1.84758 2.66512,-8.6131 -8.58188,-6.30126 -8.4048,-6.50451 5,-5.7389 11.10792,0.63442 11.5,0.58755 11.5,-1.37447 0,-2.01855 -13.03386,-15.27353 -15.01874,-15.27353 -0.5397,0 -0.98126,-0.45 -0.98126,-1 0,-0.55 2.3625,-1.00008 5.25,-1.00017 9.2672,-3e-4 26.75,-4.03439 26.75,-6.17245 0,-1.06321 -12.3982,-15.25975 -17.93041,-20.53118 -4.51113,-4.29848 -3.93922,-4.57113 6.01904,-2.86946 27.14874,4.63917 30.20019,4.40574 27.05423,-2.0696 -2.88418,-5.93651 -2.55375,-6.09815 4.8382,-2.3667 9.01643,4.55148 9.00373,4.07954 -0.39571,-14.70454 -10.95299,-21.88876 -10.95382,-22.06203 -0.0583,-12.18804 3.70081,3.35382 13.15532,11.20568 21.01003,17.44857 7.85471,6.24289 14.5737,11.82385 14.9311,12.40214 6.60755,10.69123 -0.73479,-24.96068 -8.05638,-39.11906 -6.91059,-13.36361 22.13812,18.12829 33.67435,36.50658 7.3125,11.64951 7.92773,11.31887 15.51149,-8.33609 3.6804,-9.53856 4.76491,-5.64939 1.33436,4.78519 -3.24009,9.85532 -5.39686,13.6323 -10.66954,18.68474 -5.40925,5.1833 -7.377,5.904 -4.29243,1.57212 3.16311,-4.44218 -6.34451,-21.61023 -20.23689,-36.54205 -7.97685,-8.57369 -8.15483,-8.42569 -4.61269,3.83577 5.4861,18.99065 5.01822,25.62515 -1.51134,21.43075 -1.94061,-1.24659 -5.45905,-3.5005 -7.81876,-5.00869 -2.35971,-1.50819 -9.89711,-7.67646 -16.74978,-13.70727 -15.0496,-13.24466 -14.55075,-13.68081 -5.37296,4.69769 9.04733,18.11727 8.81085,22.33852 -0.88245,15.75175 -4.48879,-3.05021 -6.27106,-3.27637 -4.84675,-0.61503 0.55484,1.03674 2.16408,2.17493 3.57608,2.52932 4.77342,1.19805 1.49032,2.45989 -5.28381,2.03079 -10.95532,-0.69395 -26.47478,-2.47798 -30.17448,-3.46869 -5.06358,-1.35593 -5.07457,-0.29332 -0.0395,3.81308 9.40385,7.66934 16.31358,14.9073 15.71656,16.46312 -1.04792,2.73098 -15.32612,6.74741 -23.98667,6.74741 -8.91206,0 -9.53253,0.86906 -3.24937,4.55124 14.99335,8.78669 15.69483,16.67283 1.49121,16.76429 -4.39363,0.0283 -7.98843,0.41887 -7.98843,0.86795 0,0.44909 0.40959,0.81652 0.9102,0.81652 1.71923,0 11.0898,8.04688 11.0898,9.52325 0,0.94166 -0.99644,1.48074 -2.75,1.48776 -4.62114,0.0185 -10.25,1.19939 -10.25,2.15038 0,1.12555 6.45445,6.90389 9.62921,8.62055 4.06598,2.19856 -1.35764,5.61375 -12.43282,7.82878 -3.15253,0.63051 -3.15253,0.63051 2.6325,6.94385 11.12292,12.13871 11.91124,16.68694 2.72797,15.73914 -6.7877,-0.70055 -6.80993,-0.44519 -0.55686,6.39667 5.53166,6.05252 6.24398,8.30962 2.62244,8.30962 -3.88031,0 -5.34471,2.68245 -1.87985,3.44346 7.20693,1.58291 11.46054,6.55654 5.60736,6.55654 -1.45113,0 -4.28814,1.50317 -6.64577,3.52121 -2.26256,1.93667 -5.82159,4.0329 -7.90896,4.65829 -5.93787,1.77903 -4.46764,2.76051 3.17533,2.11975 7.70932,-0.64632 9.49256,0.82733 8.33413,6.88726 -0.45185,2.36368 0.32299,3.06622 9.03958,8.19621 14.79353,8.70646 14.47006,10.55748 -0.52857,3.02471 C 305.75354,437.68934 284.80913,424.7949 230.5,388.85713 c -59.57225,-39.4205 -68.00468,-43.45764 -75.36189,-36.08044 -5.48612,5.50102 -2.35747,30.61326 4.86953,39.08549 0.93833,1.1 2.39556,3.35 3.23829,5 9.78959,19.16712 22.84525,35.9501 38.92227,50.03437 4.99276,4.3739 7.14213,7.46563 5.19011,7.46563 -0.35293,0 -4.56835,-2.47764 -9.36761,-5.50587 -13.65807,-8.61795 -38.55684,-12.44509 -55.46392,-8.52524 -13.05623,3.02704 -6.8798,17.70188 13.46701,31.99685 15.73421,11.05432 23.04146,15.36983 43.25621,25.54624 18.24316,9.18387 19.14786,11.5339 2.44222,6.34386 -26.74081,-8.30774 -63.00452,-0.25368 -52.5369,11.66828 4.80175,5.46889 7.63953,6.67325 29.34468,12.45393 1.65,0.43944 5.025,1.71898 7.5,2.84342 5.47384,2.48687 19.90797,5.43932 38,7.77277 18.36493,2.36864 20.94422,5.26557 4.71996,5.30123 -16.66247,0.0366 -32.79019,22.70007 -16.94631,23.81377 2.04949,0.14406 5.52635,0.52683 7.72635,0.8506 22.74978,3.34802 88.39633,-27.30655 131.84961,-61.56901 4.17882,-3.29495 7.83468,-5.99083 8.12412,-5.99083 3.13598,0 -5.44372,9.14404 -16.35633,17.43219 -18.63657,14.15451 -18.65336,14.17689 -15.67059,20.88405 2.68277,6.03259 3.15969,8.77839 2.11621,12.18376 -1.7979,5.86736 3.53846,9.00298 5.81231,3.41529 6.31367,-15.51501 19.46049,-28.00044 32.37059,-30.74208 4.41813,-0.93825 4.50437,-1.78642 1.08513,-10.67321 -4.5011,-11.69863 -2.80387,-36.04563 2.46004,-35.28953 1.72371,0.24759 2.19719,-0.59385 3.26853,-5.80867 1.46031,-7.10809 5.18676,-14.90441 9.43852,-19.7469 3.72355,-4.24089 3.78488,-5.63489 0.25186,-5.72519 -4.74285,-0.12121 -7.06231,-1.37574 -4.84146,-2.61859 1.68823,-0.94478 1.61345,-1.2098 -1.03414,-3.66477 -3.93182,-3.6458 -2.74023,-3.38223 10.60923,2.34662 15.82859,6.79276 21.60636,7.61031 20.59672,2.9144 -5.63233,-26.1963 -5.77885,-25.74298 9.30889,-28.80138 13.18139,-2.67198 14.87933,-2.64327 23.29937,0.39401 10.60688,3.82611 11.67208,3.50723 7.32076,-2.19153 -5.13954,-6.73104 -4.56551,-7.78462 4.31425,-7.91836 9.09779,-0.13702 10.84105,-1.48265 4.87333,-3.76174 -5.47881,-2.09238 -13.21192,-8.5134 -11.86963,-9.85569 0.61183,-0.61183 1.8154,-0.39766 3.32546,0.59177 C 455.47701,398.2152 479,363.33565 479,351.95239 c 0,-1.02457 -1.4786,-0.76049 -6.0258,1.0762 -10.56866,4.26888 -20.11087,4.27406 -13.59912,0.007 3.89784,-2.55397 15.1991,-37.2293 17.10936,-52.49615 0.58529,-4.67726 0.58529,-4.67726 -1.69957,-1.71993 -6.85661,8.8746 -11.60169,12.93283 -20.12952,17.21576 -8.00424,4.01997 -13.1627,5.13394 -8.15535,1.76115 6.3069,-4.24814 5.95939,-1.80797 3.56079,-25.00318 -1.19046,-11.51208 -2.74955,-22.54121 -3.46466,-24.50917 -1.99304,-5.4848 -0.17557,-13.48024 1.85901,-8.17819 0.9374,2.44281 5.40388,33.14661 6.18797,42.53776 1.03807,12.43321 12.4794,5.92455 23.78643,-13.53146 3.58047,-6.16092 3.68954,-6.07026 3.00721,2.5 -0.64837,8.1438 -0.56528,8.12665 5.90452,-1.21919 10.85283,-15.67726 20.20626,-2.05776 19.55172,28.46919 -0.21507,10.03053 -0.0222,11.92869 1.17486,11.56552 15.92672,-4.83182 16.97502,16.48596 2.96019,60.19734 -3.24052,10.10698 -3.23942,11.73714 0.008,11.73714 16.61724,0 -11.09181,53.44181 -39.39971,75.98933 -6.82876,5.43917 -6.81081,5.06347 -0.67612,14.15767 5.94682,8.8157 7.49236,13.4661 4.18822,12.60204 -4.09406,-1.07062 -3.21761,1.25329 2.81054,7.45209 7.83217,8.05388 10.06305,13.73086 10.90973,27.76217 0.63138,10.4633 0.63138,10.4633 8.54471,14.30767 13.93114,6.76787 13.36819,7.09308 13.75504,-7.94615 0.56733,-22.05583 9.47343,-31.80276 25.48023,-27.88585 3.14398,0.76934 3.15105,0.76189 4.82009,-5.08425 6.3651,-22.29501 22.4377,-39.052 47.4407,-49.46077 12.42461,-5.17238 34.39084,-7.86828 23.59061,-2.89526 -34.43192,15.85434 -44.24979,40.26644 -46.04925,114.50131 -0.27997,11.55 -0.69972,23.1375 -0.93278,25.75 -1.4064,15.76535 12.77757,-12.82116 16.47289,-33.19961 1.8629,-10.27324 4.54783,-16.18443 9.57604,-21.0828 4.58603,-4.46759 4.58603,-4.46759 1.00639,0.88761 -3.72157,5.56754 -5.80791,11.73269 -9.69364,28.6448 -2.14095,9.31819 -6.12832,18.32203 -18.15697,41 -0.87518,1.65 -3.64259,7.275 -6.14981,12.5 -18.05868,37.63401 -52.50346,61.74608 -85.32375,59.72844 -24.89071,-1.53017 -39.26658,-17.97724 -51.76973,-59.22844 -6.58481,-21.72506 -7.9484,-21.39882 -8.25036,1.97392 -0.47472,36.74457 3.43434,48.45806 19.82402,59.40267 30.3766,20.28472 77.80496,14.67498 104.44695,-12.35379 21.74972,-22.06548 50.7494,-79.47424 52.54648,-104.0228 1.34009,-18.3061 5.83278,-33.06314 11.64497,-38.25003 4.9263,-4.3963 5.19524,-3.47335 1.00279,3.44139 -6.59036,10.86969 -8.42237,17.51256 -9.67905,35.09612 -1.11539,15.60668 -2.46562,19.65312 -16.25233,48.70592 -28.9971,61.10572 -53.36801,81.36484 -98.76286,82.09991 -18.05985,0.29243 -18.08703,0.31661 -7.10659,6.31871 25.71741,14.05757 36.29517,38.88217 32.25501,75.69824 -1.61153,14.68517 -2.47869,16.18414 -3.86837,6.68689 z M 501,773.99317 c 0,-27.18949 -10.43779,-47.17962 -30.0491,-57.54909 -3.54799,-1.876 -8.9259,-5.03622 -11.9509,-7.0227 -3.025,-1.98649 -10.44411,-6.02252 -16.48692,-8.96896 -24.91609,-12.14898 -32.20185,-25.34563 -33.17532,-60.09024 -0.60494,-21.59137 -0.50931,-21.26686 -4.83034,-16.39053 -11.65305,13.15057 -6.9403,52.88666 8.67257,73.12384 5.53312,7.17194 14.97513,13.82815 29.82001,21.02183 31.91202,15.46423 44.19661,28.31093 53.54478,55.99486 C 500.06033,784.52322 501,784.49811 501,773.99317 z m -22,-88.54309 c 0,-0.50166 -1.77333,-1.21171 -3.94073,-1.57789 -10.09169,-1.70498 -26.51125,-12.35777 -34.73892,-22.53816 -5.06123,-6.26244 -6.32645,-7.10883 -6.31097,-4.22185 0.03,5.60158 12.0483,20.16063 20.10192,24.35168 6.28736,3.27191 24.8887,6.25113 24.8887,3.98622 z m 32.5,-8.06658 c 17.92542,-8.90812 42.83455,-40.99293 48.61777,-62.6233 4.31743,-16.14806 3.97673,-55.33462 -0.45173,-51.95687 -1.97514,1.50652 -5.34698,2.97462 -7.49298,3.26246 -3.9018,0.52335 -3.9018,0.52335 -3.42075,4.79129 0.59084,5.24188 -1.02182,10.44664 -5.26892,17.0051 -2.6946,4.16106 -3.35188,6.34231 -3.9173,13 -2.36534,27.85126 -24.93358,53.44925 -51.57801,58.50226 -15.78169,2.99294 -46.16163,-11.50001 -57.78693,-27.56763 -5.35373,-7.39953 -6.87259,-6.40216 -2.86461,1.88108 1.37968,2.85136 3.64554,7.7763 5.03524,10.94431 12.91219,29.4349 52.68546,45.90215 79.12822,32.7613 z M 379.01017,657.11218 c 10.88791,-7.41024 10.55792,-29.75 -0.43945,-29.75 -8.37879,0 -14.28161,22.44296 -7.64764,29.07692 3.51209,3.5121 3.87173,3.54203 8.08709,0.67308 z m 114.88957,-2.27814 c 21.25313,-6.71386 39.58205,-27.62497 42.25685,-48.21003 1.39158,-10.70941 1.10741,-11.32944 -3.91778,-8.5484 -11.1418,6.1661 -21.29901,1.605 -28.64464,-12.86289 -5.14641,-10.13634 -25.03123,-20.96519 -33.44452,-18.21317 -3.6895,1.20684 -8.60582,1.85055 -14.17009,1.85532 -17.18149,0.0147 -21.99354,7.06609 -17.59073,25.77665 1.95555,8.31044 -0.81422,8.25459 -8.82592,-0.17796 -4.34391,-4.57209 -6.18285,-4.09076 -7.48005,1.95784 -6.68353,31.16426 39.40899,68.66029 71.81688,58.42264 z M 367.52528,629.7404 c 1.33638,-1.44198 2.68329,-4.25448 2.99313,-6.25 0.30984,-1.99552 1.3131,-6.55322 2.22946,-10.12822 4.72101,-18.41806 -0.95516,-34.89805 -11.60988,-33.70774 -7.78645,0.86988 -8.46411,2.36994 -8.53985,18.90368 -0.10695,23.34616 7.48722,39.21009 14.92714,31.18228 z m 33.29066,-10.65742 c 5.29727,-4.32793 11.08552,-34.51212 7.0973,-37.01059 -11.37324,-7.12489 -27.7344,26.82588 -19.41478,40.28731 0.60512,0.97909 10.24835,-1.58622 12.31748,-3.27672 z m -16.35322,-21.20769 c 3.05458,-8.37512 2.57604,-10.52642 -2.33516,-10.4978 -4.60871,0.0269 -5.28895,1.08452 -4.21936,6.5603 0.52904,2.70841 1.23885,6.6244 1.57737,8.70218 0.82189,5.0447 1.70932,4.19516 4.97715,-4.76468 z m 144.81883,-6.59237 c 16.19506,-5.41514 22.52614,-27.89214 7.39257,-26.24558 -8.26985,0.89977 -12.95438,5.93875 -15.17654,16.32484 -0.75606,3.53372 -2.23376,5.28108 -3.69983,4.375 -2.43169,-1.50287 0.5901,-11.43978 5.78773,-19.03243 3.53057,-5.15744 3.53057,-5.15744 0.79963,-10.38026 -5.16634,-9.88044 -4.06379,-29.46231 1.65886,-29.46231 1.85159,0 2.54183,0.60831 2.80464,2.47174 0.19173,1.35946 0.97923,3.37208 1.75,4.47251 0.77076,1.10042 1.40139,3.22134 1.40139,4.71316 0,6.8754 9.61938,15.45118 12.66282,11.28903 6.26884,-8.57315 -2.86475,-28.44644 -13.07373,-28.44644 -12.73937,0 -17.58909,8.19253 -17.58909,29.71289 0,15.19488 0.59936,14.86728 -14.46657,7.90698 -12.95671,-5.98586 -14.18071,-6.00336 -16.38998,-0.23428 -1.02239,2.66977 -0.95125,3.25718 0.49827,4.11441 12.9049,7.6318 19.92307,13.3583 23.86458,19.47236 7.49018,11.61876 10.31599,12.78001 21.77525,8.94838 z m -182.10647,-7.08216 c 5.89696,-10.55506 21.27713,-12.18232 26.65055,-2.81968 1.51649,2.64233 1.99748,2.83002 5.88641,2.29698 2.47435,-0.33914 5.49163,-0.0599 7.25771,0.67159 2.84028,1.17648 3.26095,1.03683 6.96981,-2.3139 5.67549,-5.12747 15.442,-7.10127 17.62891,-3.56279 3.70719,5.99837 6.26318,-15.72936 2.95011,-25.07801 -14.52971,-40.99909 -65.8585,-33.64059 -75.39102,10.80806 -2.92136,13.62184 3.16286,28.74087 8.04752,19.99775 z M 468,563.13876 c 18.57811,-5.7519 24.60362,-31.24121 10.7613,-45.52285 -4.29663,-4.43301 -4.37223,-4.36686 -5.70957,4.99627 -1.18827,8.31942 -11.22322,32.33868 -16.10195,38.54097 -3.4634,4.403 0.77967,5.16544 11.05022,1.98561 z m 91.4142,-8.02658 c 3.54032,-5.45484 4.44859,-22.79434 1.44585,-27.60248 -4.67684,-7.48881 -15.62878,-4.86402 -12.35108,2.96011 1.41021,3.36628 1.81819,6.78684 1.74646,14.64237 -0.0855,9.35984 0.0679,10.25 1.76647,10.25 1.02304,0 2.13818,0.45 2.4781,1 1.05116,1.70081 3.38422,1.10736 4.9142,-1.25 z m 8.75167,-40.40284 c 3.88161,-18.85819 10.22954,-30.96719 22.67083,-43.24573 7.48469,-7.38679 6.3423,-7.67228 -6.52779,-1.63132 -20.51538,9.62951 -32.0368,21.18128 -38.33341,38.43441 -4.52036,12.38609 -4.09643,15.60393 1.66019,12.60164 5.21833,-2.72154 12.75114,-1.35976 16.32964,2.95207 1.82166,2.19496 1.91514,1.99221 4.20054,-9.11107 z m -81.52169,-59.54138 c 14.13406,-14.75077 28.8782,-43.6834 24.4949,-48.0667 -1.91828,-1.91828 -4.17993,0.20786 -9.31681,8.75855 -8.12116,13.51824 -11.07277,14.14117 -4.74947,1.00237 15.60609,-32.42695 24.97355,-83.5 15.31497,-83.5 -2.26969,0 -8.17046,9.98435 -11.23506,19.01017 -3.74343,11.02514 -14.6915,38.08251 -18.00166,44.48983 -5.06465,9.80341 -3.42756,1.17212 3.15593,-16.63913 17.06314,-46.1633 20.98337,-71.13889 13.75165,-87.61087 -4.95446,-11.28497 -16.77855,4.25269 -24.13792,31.71888 -1.55196,5.79212 -3.96901,13.57889 -5.37123,17.30395 -1.40221,3.72505 -2.54948,6.98755 -2.54948,7.25 0,1.3542 4.49372,0.10749 10.48939,-2.91011 6.73018,-3.38728 6.73018,-3.38728 6.08197,0.6664 -1.89171,11.83007 -11.97756,33.10525 -21.06844,44.44195 -6.17791,7.70409 -6.21527,7.57581 3.07639,10.56102 9.48618,3.0477 3.05512,10.45555 -9.27029,10.67831 -4.9183,0.0889 -1.37286,6.36489 6.26091,11.08282 7.8594,4.85737 4.26604,5.94473 -8.42319,2.54887 -10.27206,-2.74899 -10.44687,-2.70388 -8.71272,2.24832 3.42496,9.78066 3.00227,20.764 -1.02764,26.70241 -3.04864,4.49242 -3.34386,3.83674 3.34362,7.42599 3.1625,1.69734 7.97268,5.02744 10.6893,7.40022 5.466,4.77417 12.05636,1.24623 27.20488,-14.56325 z m -42.59489,-7.45514 c 4.27858,-12.96422 -3.98124,-29.15351 -14.32929,-28.0855 -8.19657,0.84596 -13.91821,3.48988 -10.98756,5.07724 1.22784,0.66506 4.33484,4.12259 6.90443,7.68341 14.13891,19.59303 16.38643,21.46367 18.41242,15.32485 z M 315,436.9212 c 0,-1.89244 -1.70391,-2.88662 -3.66051,-2.1358 -1.26466,0.48529 -1.32788,0.88584 -0.32967,2.08861 1.57542,1.89827 3.99018,1.92682 3.99018,0.0472 z m 83.37699,-23.12918 c -18.86314,-3.16487 -42.15454,-18.46027 -49.83874,-32.72895 -4.54993,-8.44871 9.11515,-23.46784 23.45296,-25.77688 27.61606,-4.44743 47.59033,19.51755 40.90371,49.07599 -0.55989,2.475 -1.26636,5.7375 -1.56995,7.25 -0.30358,1.5125 -0.91409,2.75 -1.35668,2.75 -0.44259,0 -1.40402,0.17836 -2.1365,0.39636 -0.73249,0.218 -4.98714,-0.21693 -9.4548,-0.96652 z m 3.4903,-16.78857 c 6.23159,-6.63323 4.31013,-20.64127 -2.83133,-20.64127 -3.76732,0 -4.41893,1.20093 -4.60714,8.4911 -0.0853,3.30489 -0.49466,7.24899 -0.90965,8.76465 -1.50487,5.49625 4.19399,7.80738 8.34812,3.38552 z M 374.75,372.7256 c 4.51574,-4.96721 1.46451,-12.36342 -5.10039,-12.36342 -8.70188,0 -10.83883,12.32405 -2.64961,15.28056 2.38576,0.86132 5.31855,-0.2426 7.75,-2.91714 z m 33.05849,-28.34887 c -3.48084,-6.11752 -13.4379,-10.14069 -20.14375,-8.13912 -8.10532,2.41927 -8.43148,2.42894 -9.57951,0.28382 -0.89381,-1.67009 -0.65353,-2.5496 1.32489,-4.84966 6.87421,-7.99174 31.58988,1.45587 31.58988,12.07528 0,4.38865 -0.94643,4.57538 -3.19151,0.62968 z"
         id="path3250"
         inkscape:connector-curvature="0" />
      <path
         style="fill:#39441c"
         d="m 499.28005,795.65933 c -5.29237,-36.16857 -25.06129,-61.06395 -61.14016,-76.99495 -31.54848,-13.93056 -46.89202,-44.99122 -41.89112,-84.8022 0.17801,-1.41708 -0.33169,-2 -1.74877,-2 -1.834,0 -2.055,0.88756 -2.66268,10.69372 -1.57846,25.47167 -13.19489,38.27456 -23.78446,26.21371 -5.09281,-5.8004 -5.84719,-11.90156 -3.45256,-27.92321 0.60021,-4.01578 0.60021,-4.01578 -3.80865,-5.19497 -9.33141,-2.49578 -16.68293,-17.8666 -16.77001,-35.06336 -0.0163,-3.2233 -0.87876,-5.52014 -3.50795,-9.34231 -3.72134,-5.40988 -4.99555,-9.12733 -6.12516,-17.86985 -0.59501,-4.60503 -1.51424,-6.45226 -5.72271,-11.5 -2.75761,-3.30755 -6.52742,-9.38873 -8.37735,-13.51373 -4.19058,-9.34417 -4.88527,-10.54398 -5.97694,-10.32282 -0.48103,0.0974 -6.54884,3.55622 -13.48404,7.68617 -31.75089,18.90783 -53.42868,26.56186 -80.13438,28.29396 -20.72477,1.34419 -25.64453,-10.52964 -11.05423,-26.67936 4.34769,-4.81236 3.7455,-5.97795 -3.08842,-5.97795 -15.25782,0 -54.18264,-14.42294 -61.86045,-22.92136 -9.98088,-11.04764 -2.08534,-17.79214 23.61176,-20.16955 15.15237,-1.40185 16.40199,-2.21095 8.94823,-5.79373 -18.91651,-9.09254 -40.90427,-27.54678 -44.10194,-37.01458 -5.70364,-16.88759 5.41012,-22.46238 38.62717,-19.3758 12.41387,1.15351 12.51989,0.93172 4.21928,-8.8267 -31.72659,-37.29862 -38.91773,-80.89828 -13.34302,-80.89828 7.92826,0 12.81498,2.79137 64.84851,37.04245 69.66907,45.85966 68.16592,45.01092 75.90867,42.86116 11.66223,-3.23801 14.55618,-8.68235 4.84133,-9.10792 -6.75,-0.29569 -6.75,-0.29569 -3.15874,-2.0843 10.00537,-4.98314 10.8028,-8.03305 4.07852,-15.59906 -8.40213,-9.4539 -8.33678,-9.88219 1.21503,-7.96392 9.82069,1.97228 9.35141,-0.0682 -3.23779,-14.07836 -6.35299,-7.07005 -6.35299,-7.07005 0,-7.16973 13.70743,-0.21507 14.39588,-1.86187 4.16569,-9.96449 -9.73915,-7.71371 -9.8085,-7.93583 -2.47783,-7.93583 11.30761,0 11.8793,-1.84758 2.66512,-8.6131 -8.58188,-6.30126 -8.4048,-6.50451 5,-5.7389 11.10792,0.63442 11.5,0.58755 11.5,-1.37447 0,-2.01855 -13.03386,-15.27353 -15.01874,-15.27353 -0.5397,0 -0.98126,-0.45 -0.98126,-1 0,-0.55 2.3625,-1.00008 5.25,-1.00017 9.2672,-3e-4 26.75,-4.03439 26.75,-6.17245 0,-1.06321 -12.3982,-15.25975 -17.93041,-20.53118 -4.51113,-4.29848 -3.93922,-4.57113 6.01904,-2.86946 27.14874,4.63917 30.20019,4.40574 27.05423,-2.0696 -2.88418,-5.93651 -2.55375,-6.09815 4.8382,-2.3667 9.01643,4.55148 9.00373,4.07954 -0.39571,-14.70454 -10.95299,-21.88876 -10.95382,-22.06203 -0.0583,-12.18804 3.70081,3.35382 13.15532,11.20568 21.01003,17.44857 7.85471,6.24289 14.5737,11.82385 14.9311,12.40214 6.60755,10.69123 -0.73479,-24.96068 -8.05638,-39.11906 -6.91059,-13.36361 22.13812,18.12829 33.67435,36.50658 7.3125,11.64951 7.92773,11.31887 15.51149,-8.33609 3.6804,-9.53856 4.76491,-5.64939 1.33436,4.78519 -3.24009,9.85532 -5.39686,13.6323 -10.66954,18.68474 -5.40925,5.1833 -7.377,5.904 -4.29243,1.57212 3.16311,-4.44218 -6.34451,-21.61023 -20.23689,-36.54205 -7.97685,-8.57369 -8.15483,-8.42569 -4.61269,3.83577 5.4861,18.99065 5.01822,25.62515 -1.51134,21.43075 -1.94061,-1.24659 -5.45905,-3.5005 -7.81876,-5.00869 -2.35971,-1.50819 -9.89711,-7.67646 -16.74978,-13.70727 -15.0496,-13.24466 -14.55075,-13.68081 -5.37296,4.69769 9.04733,18.11727 8.81085,22.33852 -0.88245,15.75175 -4.48879,-3.05021 -6.27106,-3.27637 -4.84675,-0.61503 0.55484,1.03674 2.16408,2.17493 3.57608,2.52932 4.77342,1.19805 1.49032,2.45989 -5.28381,2.03079 -10.95532,-0.69395 -26.47478,-2.47798 -30.17448,-3.46869 -5.06358,-1.35593 -5.07457,-0.29332 -0.0395,3.81308 9.40385,7.66934 16.31358,14.9073 15.71656,16.46312 -1.04792,2.73098 -15.32612,6.74741 -23.98667,6.74741 -8.91206,0 -9.53253,0.86906 -3.24937,4.55124 14.99335,8.78669 15.69483,16.67283 1.49121,16.76429 -4.39363,0.0283 -7.98843,0.41887 -7.98843,0.86795 0,0.44909 0.40959,0.81652 0.9102,0.81652 1.71923,0 11.0898,8.04688 11.0898,9.52325 0,0.94166 -0.99644,1.48074 -2.75,1.48776 -4.62114,0.0185 -10.25,1.19939 -10.25,2.15038 0,1.12555 6.45445,6.90389 9.62921,8.62055 4.06598,2.19856 -1.35764,5.61375 -12.43282,7.82878 -3.15253,0.63051 -3.15253,0.63051 2.6325,6.94385 11.12292,12.13871 11.91124,16.68694 2.72797,15.73914 -6.7877,-0.70055 -6.80993,-0.44519 -0.55686,6.39667 5.53166,6.05252 6.24398,8.30962 2.62244,8.30962 -3.88031,0 -5.34471,2.68245 -1.87985,3.44346 7.20693,1.58291 11.46054,6.55654 5.60736,6.55654 -1.45113,0 -4.28814,1.50317 -6.64577,3.52121 -2.26256,1.93667 -5.82159,4.0329 -7.90896,4.65829 -5.93787,1.77903 -4.46764,2.76051 3.17533,2.11975 7.70932,-0.64632 9.49256,0.82733 8.33413,6.88726 -0.45185,2.36368 0.32299,3.06622 9.03958,8.19621 14.79353,8.70646 14.47006,10.55748 -0.52857,3.02471 C 305.75354,437.68934 284.80913,424.7949 230.5,388.85713 c -59.57225,-39.4205 -68.00468,-43.45764 -75.36189,-36.08044 -5.48612,5.50102 -2.35747,30.61326 4.86953,39.08549 0.93833,1.1 2.39556,3.35 3.23829,5 9.78959,19.16712 22.84525,35.9501 38.92227,50.03437 4.99276,4.3739 7.14213,7.46563 5.19011,7.46563 -0.35293,0 -4.56835,-2.47764 -9.36761,-5.50587 -13.65807,-8.61795 -38.55684,-12.44509 -55.46392,-8.52524 -13.05623,3.02704 -6.8798,17.70188 13.46701,31.99685 15.73421,11.05432 23.04146,15.36983 43.25621,25.54624 18.24316,9.18387 19.14786,11.5339 2.44222,6.34386 -26.74081,-8.30774 -63.00452,-0.25368 -52.5369,11.66828 4.80175,5.46889 7.63953,6.67325 29.34468,12.45393 1.65,0.43944 5.025,1.71898 7.5,2.84342 5.47384,2.48687 19.90797,5.43932 38,7.77277 18.36493,2.36864 20.94422,5.26557 4.71996,5.30123 -16.66247,0.0366 -32.79019,22.70007 -16.94631,23.81377 2.04949,0.14406 5.52635,0.52683 7.72635,0.8506 22.74978,3.34802 88.39633,-27.30655 131.84961,-61.56901 4.17882,-3.29495 7.83468,-5.99083 8.12412,-5.99083 3.13598,0 -5.44372,9.14404 -16.35633,17.43219 -18.63657,14.15451 -18.65336,14.17689 -15.67059,20.88405 2.68277,6.03259 3.15969,8.77839 2.11621,12.18376 -1.7979,5.86736 3.53846,9.00298 5.81231,3.41529 6.31367,-15.51501 19.46049,-28.00044 32.37059,-30.74208 4.41813,-0.93825 4.50437,-1.78642 1.08513,-10.67321 -4.5011,-11.69863 -2.80387,-36.04563 2.46004,-35.28953 1.72371,0.24759 2.19719,-0.59385 3.26853,-5.80867 1.46031,-7.10809 5.18676,-14.90441 9.43852,-19.7469 3.72355,-4.24089 3.78488,-5.63489 0.25186,-5.72519 -4.74285,-0.12121 -7.06231,-1.37574 -4.84146,-2.61859 1.68823,-0.94478 1.61345,-1.2098 -1.03414,-3.66477 -3.93182,-3.6458 -2.74023,-3.38223 10.60923,2.34662 15.82859,6.79276 21.60636,7.61031 20.59672,2.9144 -5.63233,-26.1963 -5.77885,-25.74298 9.30889,-28.80138 13.18139,-2.67198 14.87933,-2.64327 23.29937,0.39401 10.60688,3.82611 11.67208,3.50723 7.32076,-2.19153 -5.13954,-6.73104 -4.56551,-7.78462 4.31425,-7.91836 9.09779,-0.13702 10.84105,-1.48265 4.87333,-3.76174 -5.47881,-2.09238 -13.21192,-8.5134 -11.86963,-9.85569 0.61183,-0.61183 1.8154,-0.39766 3.32546,0.59177 C 455.47701,398.2152 479,363.33565 479,351.95239 c 0,-1.02457 -1.4786,-0.76049 -6.0258,1.0762 -10.56866,4.26888 -20.11087,4.27406 -13.59912,0.007 3.89784,-2.55397 15.1991,-37.2293 17.10936,-52.49615 0.58529,-4.67726 0.58529,-4.67726 -1.69957,-1.71993 -6.85661,8.8746 -11.60169,12.93283 -20.12952,17.21576 -8.00424,4.01997 -13.1627,5.13394 -8.15535,1.76115 6.3069,-4.24814 5.95939,-1.80797 3.56079,-25.00318 -1.19046,-11.51208 -2.74955,-22.54121 -3.46466,-24.50917 -1.99304,-5.4848 -0.17557,-13.48024 1.85901,-8.17819 0.9374,2.44281 5.40388,33.14661 6.18797,42.53776 1.03807,12.43321 12.4794,5.92455 23.78643,-13.53146 3.58047,-6.16092 3.68954,-6.07026 3.00721,2.5 -0.64837,8.1438 -0.56528,8.12665 5.90452,-1.21919 10.85283,-15.67726 20.20626,-2.05776 19.55172,28.46919 -0.21507,10.03053 -0.0222,11.92869 1.17486,11.56552 15.92672,-4.83182 16.97502,16.48596 2.96019,60.19734 -3.24052,10.10698 -3.23942,11.73714 0.008,11.73714 16.61724,0 -11.09181,53.44181 -39.39971,75.98933 -6.82876,5.43917 -6.81081,5.06347 -0.67612,14.15767 5.94682,8.8157 7.49236,13.4661 4.18822,12.60204 -4.09406,-1.07062 -3.21761,1.25329 2.81054,7.45209 7.83217,8.05388 10.06305,13.73086 10.90973,27.76217 0.63138,10.4633 0.63138,10.4633 8.54471,14.30767 13.93114,6.76787 13.36819,7.09308 13.75504,-7.94615 0.56733,-22.05583 9.47343,-31.80276 25.48023,-27.88585 3.14398,0.76934 3.15105,0.76189 4.82009,-5.08425 6.3651,-22.29501 22.4377,-39.052 47.4407,-49.46077 12.42461,-5.17238 34.39084,-7.86828 23.59061,-2.89526 -34.43192,15.85434 -44.24979,40.26644 -46.04925,114.50131 -0.27997,11.55 -0.69972,23.1375 -0.93278,25.75 -1.4064,15.76535 12.77757,-12.82116 16.47289,-33.19961 1.8629,-10.27324 4.54783,-16.18443 9.57604,-21.0828 4.58603,-4.46759 4.58603,-4.46759 1.00639,0.88761 -3.72157,5.56754 -5.80791,11.73269 -9.69364,28.6448 -2.14095,9.31819 -6.12832,18.32203 -18.15697,41 -0.87518,1.65 -3.64259,7.275 -6.14981,12.5 -18.05868,37.63401 -52.50346,61.74608 -85.32375,59.72844 -24.89071,-1.53017 -39.26658,-17.97724 -51.76973,-59.22844 -6.58481,-21.72506 -7.9484,-21.39882 -8.25036,1.97392 -0.47472,36.74457 3.43434,48.45806 19.82402,59.40267 30.3766,20.28472 77.80496,14.67498 104.44695,-12.35379 21.74972,-22.06548 50.7494,-79.47424 52.54648,-104.0228 1.34009,-18.3061 5.83278,-33.06314 11.64497,-38.25003 4.9263,-4.3963 5.19524,-3.47335 1.00279,3.44139 -6.59036,10.86969 -8.42237,17.51256 -9.67905,35.09612 -1.11539,15.60668 -2.46562,19.65312 -16.25233,48.70592 -28.9971,61.10572 -53.36801,81.36484 -98.76286,82.09991 -18.05985,0.29243 -18.08703,0.31661 -7.10659,6.31871 25.71741,14.05757 36.29517,38.88217 32.25501,75.69824 -1.61153,14.68517 -2.47869,16.18414 -3.86837,6.68689 z M 501,773.99317 c 0,-27.18949 -10.43779,-47.17962 -30.0491,-57.54909 -3.54799,-1.876 -8.9259,-5.03622 -11.9509,-7.0227 -3.025,-1.98649 -10.44411,-6.02252 -16.48692,-8.96896 -24.91609,-12.14898 -32.20185,-25.34563 -33.17532,-60.09024 -0.60494,-21.59137 -0.50931,-21.26686 -4.83034,-16.39053 -11.65305,13.15057 -6.9403,52.88666 8.67257,73.12384 5.53312,7.17194 14.97513,13.82815 29.82001,21.02183 31.91202,15.46423 44.19661,28.31093 53.54478,55.99486 C 500.06033,784.52322 501,784.49811 501,773.99317 z m -22,-88.54309 c 0,-0.50166 -1.77333,-1.21171 -3.94073,-1.57789 -10.09169,-1.70498 -26.51125,-12.35777 -34.73892,-22.53816 -5.06123,-6.26244 -6.32645,-7.10883 -6.31097,-4.22185 0.03,5.60158 12.0483,20.16063 20.10192,24.35168 6.28736,3.27191 24.8887,6.25113 24.8887,3.98622 z m 32.5,-8.06658 c 17.92542,-8.90812 42.83455,-40.99293 48.61777,-62.6233 4.31743,-16.14806 3.97673,-55.33462 -0.45173,-51.95687 -1.97514,1.50652 -5.34698,2.97462 -7.49298,3.26246 -3.9018,0.52335 -3.9018,0.52335 -3.42075,4.79129 0.59084,5.24188 -1.02182,10.44664 -5.26892,17.0051 -2.6946,4.16106 -3.35188,6.34231 -3.9173,13 -2.36534,27.85126 -24.93358,53.44925 -51.57801,58.50226 -15.78169,2.99294 -46.16163,-11.50001 -57.78693,-27.56763 -5.35373,-7.39953 -6.87259,-6.40216 -2.86461,1.88108 1.37968,2.85136 3.64554,7.7763 5.03524,10.94431 12.91219,29.4349 52.68546,45.90215 79.12822,32.7613 z M 381.3782,665.48931 c 7.80332,-8.1449 9.167,-29.04443 2.3718,-36.34971 -6.08186,-6.53839 -9.69066,-4.51493 -14.81052,8.30428 -7.14188,17.882 2.13553,38.79965 12.43872,28.04543 z m 112.52154,-10.65527 c 21.25313,-6.71386 39.58205,-27.62497 42.25685,-48.21003 1.39158,-10.70941 1.10741,-11.32944 -3.91778,-8.5484 -11.1418,6.1661 -21.29901,1.605 -28.64464,-12.86289 -5.14641,-10.13634 -25.03123,-20.96519 -33.44452,-18.21317 -3.6895,1.20684 -8.60582,1.85055 -14.17009,1.85532 -17.18149,0.0147 -21.99354,7.06609 -17.59073,25.77665 1.95555,8.31044 -0.81422,8.25459 -8.82592,-0.17796 -4.34391,-4.57209 -6.18285,-4.09076 -7.48005,1.95784 -6.68353,31.16426 39.40899,68.66029 71.81688,58.42264 z M 365.32669,632.25919 c 14.38972,-6.55639 12.11909,-53.23034 -2.58959,-53.23034 -14.45107,0 -19.61023,25.53984 -9.35954,46.33333 2.93993,5.96364 7.81803,8.77927 11.94913,6.89701 z m 30.5766,-5.97927 c 16.06115,-9.79153 22.49353,-48.27838 7.60195,-45.4847 C 393.44238,582.68302 385,599.40625 385,617.45162 c 0,10.6576 3.3944,13.40602 10.90329,8.8283 z m -11.92865,-24.41774 c 4.01974,-11.59293 4.09686,-12.65613 1.02536,-14.13664 -5.24462,-2.52799 -8.31085,-0.70712 -7.61999,4.52509 0.3349,2.53635 0.92292,9.56155 1.30673,15.61155 0.56963,8.97936 0.83278,10.26522 1.43252,7 0.40409,-2.2 2.13901,-8.05 3.85538,-13 z m 34.52,-4.4756 c 0.70503,-3.20999 -0.0624,-5.40955 -1.56374,-4.48169 -1.20759,0.74633 -1.21691,7.45729 -0.0104,7.45729 0.5063,0 1.21465,-1.33902 1.5741,-2.9756 z m 111.42341,-1.98259 c 7.88718,-4.02374 15.41387,-15.11397 15.41478,-22.71297 0.002,-16.05749 -21.29246,-9.94081 -23.98368,6.88915 -0.83974,5.25145 -3.34943,7.24103 -3.34836,2.65445 8.8e-4,-3.74983 4.7623,-14.61091 7.34085,-16.74488 2.25682,-1.86773 2.08247,-5.38613 -0.51622,-10.4174 -3.75812,-7.27602 -2.63637,-28.81381 1.43011,-27.45832 0.75407,0.25136 1.03553,3.78421 0.86128,10.81077 -0.42558,17.16165 5.54286,24.71254 14.16973,17.92664 11.48205,-9.03178 4.01091,-35.98925 -9.97426,-35.98925 -12.3254,0 -17.74198,8.63646 -17.87449,28.5 -0.1123,16.83271 0.66873,16.29197 -13.76942,9.53294 -17.92588,-8.39177 -28.15019,0.6376 -11.38461,10.05407 13.40088,7.52668 14.28633,8.30241 18.38942,16.11061 6.04076,11.49557 14.36025,15.37678 23.24487,10.84419 z m -96.77772,-7.29181 c 0.0772,-0.6875 0.22151,-3.90851 0.32075,-7.1578 0.1569,-5.13756 0.53446,-6.18057 2.89586,-8 15.36306,-11.83699 18.81182,-15.77336 23.11603,-26.38431 5.45698,-13.4528 -0.64774,-12.96949 -7.06783,0.55956 -4.11826,8.6784 -5.40423,8.76212 -7.08432,0.46118 -1.6158,-7.98332 -7.03293,-18.91652 -8.59748,-17.35197 -4.33451,4.33451 -19.72084,-13.34415 -24.73954,-28.42535 -2.51341,-7.55279 -3.41273,-8.37812 -5.84978,-5.36848 -6.69768,8.27127 -5.93637,-18.17236 1.06165,-36.87627 2.40467,-6.42705 2.50373,-6.30045 -5.42808,-6.93714 -10.45191,-0.83898 -21.38207,14.67504 -22.67848,32.1893 -0.55128,7.44759 -0.7492,7.99626 -3.08184,8.54337 -2.91107,0.68277 -2.99325,4.05365 -0.35346,14.49791 2.9597,11.70998 5.7321,14.62211 15.17883,15.94386 21.18931,2.96473 36.58345,30.12852 30.59533,53.98711 -0.44924,1.78992 -0.0183,2.91259 1.63179,4.25068 1.23325,1.00009 3.63682,3.04266 5.34126,4.53904 3.45015,3.02899 4.53177,3.37801 4.73931,1.52931 z m -85.96525,-3.91142 c 5.89696,-10.55506 21.27713,-12.18232 26.65055,-2.81968 1.51649,2.64233 1.99748,2.83002 5.88641,2.29698 2.47435,-0.33914 5.49163,-0.0599 7.25771,0.67159 2.84028,1.17648 3.26095,1.03683 6.96981,-2.3139 5.67549,-5.12747 15.442,-7.10127 17.62891,-3.56279 3.70719,5.99837 6.26318,-15.72936 2.95011,-25.07801 -14.52971,-40.99909 -65.8585,-33.64059 -75.39102,10.80806 -2.92136,13.62184 3.16286,28.74087 8.04752,19.99775 z M 468,563.13876 c 18.57811,-5.7519 24.60362,-31.24121 10.7613,-45.52285 -4.29663,-4.43301 -4.37223,-4.36686 -5.70957,4.99627 -1.18827,8.31942 -11.22322,32.33868 -16.10195,38.54097 -3.4634,4.403 0.77967,5.16544 11.05022,1.98561 z m 89.97272,-4.74738 c 11.04157,-11.82004 4.12622,-41.42102 -8.16407,-34.94607 -3.48009,1.83343 -3.62717,2.55421 -1.67442,8.20588 2.17198,6.28619 2.32685,13.38983 0.44597,20.45507 -2.54887,9.57446 2.90848,13.22631 9.39252,6.28512 z m -104.7771,-27.1118 c 0.93259,-2.42957 1.72009,-6.1049 1.75,-8.1674 0.0935,-6.44603 7.70705,-0.96636 9.70219,6.98289 0.93577,3.72841 2.72935,2.07415 4.13571,-3.81447 1.63392,-6.84144 0.97099,-19.52615 -1.26696,-24.24228 -0.93178,-1.96357 -1.40386,-4.45585 -1.05327,-5.56048 1.44678,-4.55841 -5.70794,-13.85233 -15.84251,-20.57927 -4.00631,-2.65924 -5.58329,-4.36383 -5.80984,-6.27998 -0.67539,-5.71259 -13.42336,-11.02307 -16.21898,-6.75641 -2.14997,3.28126 -2.50348,3.21026 -7.96858,-1.60031 -5.64123,-4.96561 -6.82504,-4.64939 -9.51561,2.54182 -3.39674,9.0786 -3.81662,13.55849 -1.27076,13.55849 2.68848,0 3.6467,1.94338 5.07449,10.29166 2.10749,12.3226 9.29139,29.90545 11.36952,27.82732 3.06249,-3.06249 10.15722,2.60234 18.9859,15.15942 4.66951,6.64146 5.596,6.71613 7.9287,0.639 z m 114.97025,-16.57024 c 3.88161,-18.85819 10.22954,-30.96719 22.67083,-43.24573 7.48469,-7.38679 6.3423,-7.67228 -6.52779,-1.63132 -20.51538,9.62951 -32.0368,21.18128 -38.33341,38.43441 -4.52036,12.38609 -4.09643,15.60393 1.66019,12.60164 5.21833,-2.72154 12.75114,-1.35976 16.32964,2.95207 1.82166,2.19496 1.91514,1.99221 4.20054,-9.11107 z m -81.52169,-59.54138 c 14.13406,-14.75077 28.8782,-43.6834 24.4949,-48.0667 -1.91828,-1.91828 -4.17993,0.20786 -9.31681,8.75855 -8.12116,13.51824 -11.07277,14.14117 -4.74947,1.00237 15.60609,-32.42695 24.97355,-83.5 15.31497,-83.5 -2.26969,0 -8.17046,9.98435 -11.23506,19.01017 -3.74343,11.02514 -14.6915,38.08251 -18.00166,44.48983 -5.06465,9.80341 -3.42756,1.17212 3.15593,-16.63913 17.06314,-46.1633 20.98337,-71.13889 13.75165,-87.61087 -4.95446,-11.28497 -16.77855,4.25269 -24.13792,31.71888 -1.55196,5.79212 -3.96901,13.57889 -5.37123,17.30395 -1.40221,3.72505 -2.54948,6.98755 -2.54948,7.25 0,1.3542 4.49372,0.10749 10.48939,-2.91011 6.73018,-3.38728 6.73018,-3.38728 6.08197,0.6664 -1.89171,11.83007 -11.97756,33.10525 -21.06844,44.44195 -6.17791,7.70409 -6.21527,7.57581 3.07639,10.56102 9.48618,3.0477 3.05512,10.45555 -9.27029,10.67831 -4.9183,0.0889 -1.37286,6.36489 6.26091,11.08282 7.8594,4.85737 4.26604,5.94473 -8.42319,2.54887 -10.27206,-2.74899 -10.44687,-2.70388 -8.71272,2.24832 3.42496,9.78066 3.00227,20.764 -1.02764,26.70241 -3.04864,4.49242 -3.34386,3.83674 3.34362,7.42599 3.1625,1.69734 7.97268,5.02744 10.6893,7.40022 5.466,4.77417 12.05636,1.24623 27.20488,-14.56325 z m -59.1004,-2.33703 c 0.50652,-2.58698 -0.0697,-3.60689 -4.48125,-7.93116 -6.01544,-5.89647 -6.35763,-4.68359 -1.52413,5.40223 3.65086,7.61808 4.90548,8.14641 6.00538,2.52893 z m 15.93054,-1.41909 c 5.1493,-9.95766 -0.86084,-30.65782 -9.44894,-32.54409 -2.71502,-0.59631 -15.95022,1.90991 -19.27725,3.65035 -3.67157,1.92069 5.45065,14.75749 18.41857,25.91864 7.93682,6.83102 8.26471,6.92565 10.30762,2.9751 z M 315,436.9212 c 0,-1.89244 -1.70391,-2.88662 -3.66051,-2.1358 -1.26466,0.48529 -1.32788,0.88584 -0.32967,2.08861 1.57542,1.89827 3.99018,1.92682 3.99018,0.0472 z m 83.37699,-23.12918 c -18.86314,-3.16487 -42.15454,-18.46027 -49.83874,-32.72895 -4.54993,-8.44871 9.11515,-23.46784 23.45296,-25.77688 27.61606,-4.44743 47.59033,19.51755 40.90371,49.07599 -0.55989,2.475 -1.26636,5.7375 -1.56995,7.25 -0.30358,1.5125 -0.91409,2.75 -1.35668,2.75 -0.44259,0 -1.40402,0.17836 -2.1365,0.39636 -0.73249,0.218 -4.98714,-0.21693 -9.4548,-0.96652 z m 3.4903,-16.78857 c 6.23159,-6.63323 4.31013,-20.64127 -2.83133,-20.64127 -3.76732,0 -4.41893,1.20093 -4.60714,8.4911 -0.0853,3.30489 -0.49466,7.24899 -0.90965,8.76465 -1.50487,5.49625 4.19399,7.80738 8.34812,3.38552 z M 374.75,372.7256 c 4.51574,-4.96721 1.46451,-12.36342 -5.10039,-12.36342 -8.70188,0 -10.83883,12.32405 -2.64961,15.28056 2.38576,0.86132 5.31855,-0.2426 7.75,-2.91714 z m 33.05849,-28.34887 c -3.48084,-6.11752 -13.4379,-10.14069 -20.14375,-8.13912 -8.10532,2.41927 -8.43148,2.42894 -9.57951,0.28382 -0.89381,-1.67009 -0.65353,-2.5496 1.32489,-4.84966 6.87421,-7.99174 31.58988,1.45587 31.58988,12.07528 0,4.38865 -0.94643,4.57538 -3.19151,0.62968 z"
         id="path3248"
         inkscape:connector-curvature="0" />
    </g>
  </g>
</svg>
